<svg width="130" height="130" viewBox="0 0 130 130" fill="none" xmlns="http://www.w3.org/2000/svg">
<path fill-rule="evenodd" clip-rule="evenodd" d="M127.536 52.0469C127.363 52.2263 127.156 52.3682 126.926 52.4637C126.696 52.5592 126.449 52.6063 126.2 52.602C125.952 52.606 125.705 52.5587 125.476 52.4633C125.246 52.3678 125.039 52.226 124.867 52.0469C124.689 51.8727 124.549 51.664 124.455 51.4337C124.361 51.2034 124.315 50.9563 124.319 50.7075C124.319 50.1882 124.502 49.7458 124.872 49.3755C125.045 49.1983 125.251 49.058 125.48 48.9634C125.708 48.8688 125.953 48.8217 126.2 48.8252C126.722 48.8252 127.166 49.008 127.536 49.3755C127.905 49.7404 128.086 50.1828 128.089 50.7075C128.089 51.2295 127.905 51.6746 127.536 52.0469Z" fill="black" stroke="black" stroke-width="2.80147" stroke-miterlimit="2.613"/>
<path fill-rule="evenodd" clip-rule="evenodd" d="M125.054 49.5583C124.902 49.7081 124.781 49.8872 124.7 50.0846C124.619 50.2821 124.578 50.494 124.581 50.7075C124.581 51.1601 124.737 51.5458 125.051 51.8649C125.365 52.1839 125.748 52.343 126.2 52.343C126.414 52.3465 126.626 52.3058 126.824 52.2236C127.021 52.1413 127.2 52.0192 127.348 51.8649C127.5 51.7135 127.621 51.533 127.702 51.3342C127.783 51.1354 127.824 50.9223 127.821 50.7075C127.821 50.2604 127.664 49.8773 127.348 49.5583C127.032 49.2393 126.649 49.0801 126.2 49.0801C125.753 49.0801 125.373 49.2393 125.054 49.5583Z" fill="white" stroke="black" stroke-width="2.80147" stroke-miterlimit="2.613"/>
<path fill-rule="evenodd" clip-rule="evenodd" d="M24.0069 56.2338H31.255V80.0775H24.0069V56.2338ZM24.0069 49.6568H31.255V55.2039H24.0069V49.6568ZM45.3802 56.2338H42.236V49.6568H35.34V56.2338H31.9605V61.236H35.34V74.5964C35.34 78.1594 35.7258 80.064 41.6142 80.064C42.872 80.064 43.7798 80.1207 45.0376 80.0775V74.3395C42.9152 74.3395 42.236 73.9564 42.236 72.2096V61.236H45.3802V56.2338ZM1.91133 80.0775H9.04003V69.5598L9.04813 69.1841L15.0397 80.0775H23.1194L14.7032 67.032L22.9225 56.2338H15.5786L9.04003 64.2318V49.7073H1.91133V80.0775ZM70.7212 80.0276H77.8505V69.5092L77.858 69.1329L83.8503 80.0276H91.9306L83.513 66.9815L91.733 56.1832H84.3891L77.8505 64.1812V49.6568H70.7212V80.0276ZM126.309 56.2183H123.165V49.6406H116.269V56.2183H112.888V61.2198H116.269V74.5809C116.269 78.1439 116.654 80.0485 122.543 80.0485C123.799 80.0485 124.708 80.1051 125.966 80.062V74.3239C123.844 74.3239 123.165 73.9409 123.165 72.1941V61.2198H126.309V56.2183Z" fill="black"/>
<path fill-rule="evenodd" clip-rule="evenodd" d="M126.164 49.6662C126.421 49.6662 126.608 49.6891 126.729 49.7404C126.942 49.8281 127.048 50.0027 127.051 50.2651C127.051 50.4506 126.983 50.5861 126.848 50.6738C126.755 50.7275 126.653 50.7617 126.546 50.7743C126.708 50.8006 126.827 50.8674 126.904 50.9773C126.973 51.0709 127.012 51.183 127.016 51.299V51.4507C127.016 51.4973 127.016 51.5485 127.022 51.6052C127.024 51.6591 127.03 51.6949 127.04 51.7131L127.053 51.7394H126.711C126.711 51.734 126.711 51.7286 126.705 51.7185C126.705 51.7131 126.705 51.7057 126.701 51.6949L126.693 51.6281V51.4635C126.693 51.2248 126.629 51.0677 126.497 50.9874C126.421 50.9436 126.287 50.9233 126.091 50.9206H125.804V51.7387H125.439V49.6662H126.164Z" fill="black" stroke="black" stroke-width="2.80147" stroke-miterlimit="2.613"/>
<path fill-rule="evenodd" clip-rule="evenodd" d="M126.554 49.9926C126.464 49.9414 126.318 49.9157 126.115 49.9157H125.804V50.6664H126.132C126.287 50.6664 126.402 50.6515 126.48 50.6205C126.621 50.5645 126.691 50.456 126.693 50.2968C126.694 50.1471 126.647 50.0473 126.554 49.9926Z" fill="white" stroke="black" stroke-width="2.80147" stroke-miterlimit="2.613"/>
<path fill-rule="evenodd" clip-rule="evenodd" d="M54.0331 64.4713C54.3245 62.7306 55.4885 61.5429 57.2346 61.5429C58.8931 61.5429 60.0868 62.8688 60.1745 64.4713H54.0331ZM68.7957 71.2391H61.8025C61.8025 71.2391 61.6063 75.076 57.7034 75.076C53.4585 75.076 53.8692 70.1432 53.8692 70.1432H69.0007C69.0729 69.5699 69.2064 68.9906 69.2064 68.3964C69.2064 61.3392 63.8724 55.6174 57.2926 55.6174C50.7129 55.6174 45.3795 61.3385 45.3795 68.3964C45.3795 75.453 50.7129 81.1748 57.2926 81.1748C62.9578 81.1748 67.6991 76.9333 68.9083 71.2479L68.7957 71.2391Z" fill="#CF4037"/>
<path fill-rule="evenodd" clip-rule="evenodd" d="M98.2014 73.1093C98.2014 71.4745 99.4397 70.8358 100.91 70.4777C102.34 70.0784 104.043 69.9584 104.971 69.3609C105.126 73.6286 104.082 75.4637 100.948 75.4637C99.4781 75.4637 98.2014 74.7853 98.2014 73.1093ZM97.8669 63.8123C98.2109 61.8605 99.3318 60.3862 101.659 60.3862C103.166 60.3862 104.74 61.5517 104.74 63.0374C104.74 64.4571 103.44 65.0459 101.523 65.3878C96.4162 66.301 90.4988 66.7852 90.4988 73.3858C90.4988 78.1331 94.5386 80.8733 99.0566 80.8733C102.686 80.8733 104.227 79.5703 105.39 78.6801C105.39 78.6801 105.801 79.5204 106.349 80.0013H113.675C112.134 79.1873 112.302 76.7607 112.302 74.8089V63.9492C112.302 57.8511 106.901 55.6059 101.609 55.6059C99.0708 55.6059 96.4034 55.9917 94.5096 57.2805C93.1688 58.1937 91.0255 60.4544 91.0255 63.8117L97.8669 63.8123Z" fill="black"/>
</svg>
