<svg width="129" height="71" viewBox="0 0 129 71" fill="none" xmlns="http://www.w3.org/2000/svg">
<g clip-path="url(#clip0_85_366)">
<path d="M38.4563 14.9388C39.8992 14.9772 50.7878 15.2602 51.2608 14.7517C51.4519 14.547 51.4678 14.2863 51.3086 13.9697C51.2353 13.8258 51.2003 13.6723 51.2034 13.5092L51.385 1.70783C51.3856 1.66018 51.3768 1.61287 51.3591 1.56867C51.3414 1.52446 51.3151 1.48423 51.2818 1.45031C51.2484 1.41639 51.2087 1.38945 51.1649 1.37107C51.1211 1.35269 51.0741 1.34323 51.0267 1.34323L37.9594 1.27127C37.9139 1.27064 37.8686 1.2791 37.8263 1.29618C37.784 1.31325 37.7456 1.33859 37.7131 1.37073C37.6807 1.40287 37.6549 1.44116 37.6373 1.48338C37.6197 1.5256 37.6107 1.57091 37.6107 1.61668L37.6537 14.5166C37.6537 14.5738 37.6661 14.6303 37.69 14.6825C37.7139 14.7346 37.7488 14.7811 37.7922 14.8188C37.9801 14.9851 38.1458 15.0363 38.2891 14.9724C38.3433 14.9468 38.399 14.9356 38.4563 14.9388Z" stroke="#F68E92" stroke-width="2"/>
<path d="M116.497 10.1559L117.156 11.9693C117.229 12.1643 117.172 12.3035 116.984 12.3866L116.291 12.6936C116.243 12.7128 116.219 12.7496 116.219 12.804V12.9479C116.216 13.1206 116.301 13.2054 116.473 13.2022L120.166 13.1686C120.219 13.1669 120.27 13.1462 120.31 13.1103C120.349 13.0743 120.375 13.0254 120.381 12.9724C120.388 12.9193 120.376 12.8655 120.347 12.8206C120.318 12.7757 120.274 12.7426 120.223 12.7272C119.589 12.5513 119.129 12.126 118.842 11.4511C117.664 8.69749 116.511 5.91826 115.383 3.11344C115.364 3.06571 115.331 3.02472 115.289 2.99554C115.246 2.96636 115.197 2.95026 115.145 2.94924C115.094 2.94822 115.043 2.96232 115 2.98979C114.956 3.01727 114.922 3.05692 114.901 3.10385L110.926 12.1084C110.868 12.2395 110.771 12.3227 110.634 12.3578C110.344 12.441 110.098 12.5849 109.894 12.7896C109.607 13.0742 109.666 13.2134 110.07 13.207L112.999 13.1494C113.378 13.143 113.421 13.0183 113.128 12.7752C112.908 12.5961 112.652 12.4938 112.359 12.4682C112.302 12.4647 112.247 12.4477 112.198 12.4185C112.149 12.3894 112.108 12.3489 112.077 12.3004C112.046 12.2518 112.027 12.1965 112.021 12.139C112.016 12.0815 112.023 12.0234 112.044 11.9693L112.727 10.2086C112.791 10.0391 112.912 9.95439 113.09 9.95439H116.21C116.353 9.95439 116.449 10.0215 116.497 10.1559ZM56.33 3.95776C56.4111 3.97531 56.4838 4.02057 56.5359 4.08603C56.5881 4.15149 56.6166 4.2332 56.6167 4.31756V11.9069C56.6167 12.0988 56.545 12.2571 56.4017 12.3818C56.2042 12.5513 55.9701 12.6217 55.6993 12.5929C55.5656 12.5801 55.4525 12.6217 55.3601 12.7176C55.3251 12.7496 55.2884 12.7864 55.2502 12.828C55.0018 13.0742 55.0527 13.1974 55.4031 13.1974L59.5072 13.1638C60.0328 13.1606 60.0646 13.0311 59.6028 12.7752C59.3703 12.6473 59.117 12.5625 58.8431 12.5209C58.6889 12.4969 58.5484 12.418 58.4468 12.2984C58.3451 12.1787 58.2892 12.0263 58.2889 11.8685V8.99972C58.2889 8.81103 58.3828 8.72788 58.5708 8.75026C61.1078 9.02371 64.457 7.17675 62.0777 4.33675C60.9071 2.94074 57.7824 3.14222 55.5703 3.27175C55.4079 3.28135 55.3203 3.3549 55.3076 3.49243C55.2916 3.64274 55.3569 3.73389 55.5034 3.76587L56.33 3.95776ZM68.2076 3.87141C68.5006 3.78506 68.7904 3.69871 69.0771 3.61236C69.9212 3.3629 69.9021 3.23817 69.0198 3.23817H64.8583C64.7787 3.23817 64.7389 3.27815 64.7389 3.3581C64.7389 3.40288 64.7373 3.44925 64.7341 3.49722C64.7246 3.63794 64.7898 3.70511 64.93 3.69871C65.7199 3.67313 66.1244 4.04891 66.1436 4.82608C66.1913 6.9177 65.8043 10.1559 66.7503 11.7486C67.7919 13.4996 70.4053 13.5284 72.0489 12.8376C75.7564 11.2784 71.9103 4.31756 75.1831 3.59317C75.23 3.58808 75.2729 3.5645 75.3025 3.52761C75.3321 3.49073 75.3458 3.44356 75.3408 3.39648C75.3357 3.3494 75.3122 3.30628 75.2755 3.27659C75.2388 3.2469 75.1918 3.23308 75.1449 3.23817H71.7909C71.3864 3.23817 71.3529 3.35011 71.6906 3.57398C71.888 3.70831 72.111 3.79626 72.3594 3.83783C72.7512 3.90499 72.9519 4.13686 72.9614 4.53344C73.0092 6.27006 73.3293 10.1799 72.2973 11.4847C71.1984 12.8711 68.2267 12.7848 67.9352 10.4677C67.6517 8.23535 67.6406 6.15653 67.9018 4.23121C67.9273 4.04252 68.0292 3.92258 68.2076 3.87141ZM83.4343 8.23695C85.2499 7.71405 85.8997 5.45932 84.5762 4.17364C83.2241 2.85918 79.4544 3.12783 77.7201 3.31493C77.4303 3.34691 77.3984 3.45565 77.6246 3.64114C77.8316 3.81065 78.0753 3.87461 78.3556 3.83303C78.4297 3.82198 78.5054 3.82698 78.5774 3.84771C78.6494 3.86845 78.7161 3.90441 78.7728 3.95315C78.8295 4.00189 78.8749 4.06225 78.906 4.13012C78.9371 4.19798 78.953 4.27174 78.9528 4.34635V12.07C78.9528 12.2939 78.8445 12.4234 78.6279 12.4586C78.2807 12.5225 77.9463 12.6297 77.6246 12.78C77.0576 13.0454 77.0879 13.1798 77.7153 13.183L81.7526 13.1926C81.8163 13.1958 81.8609 13.167 81.8863 13.1062C81.9023 13.0678 81.9166 13.0263 81.9293 12.9815C81.9803 12.8216 81.9261 12.7192 81.7669 12.6745L80.8973 12.4298C80.7158 12.3786 80.625 12.2587 80.625 12.07V9.01891C80.6242 8.92464 80.6534 8.8328 80.7082 8.75651C80.763 8.68022 80.8408 8.62338 80.9303 8.59411C81.0199 8.56485 81.1167 8.56465 81.2068 8.59356C81.297 8.62246 81.376 8.67899 81.4324 8.75506L84.5046 12.9911C84.6256 13.1606 84.7896 13.2389 84.9967 13.2261L87.1849 13.0774C87.5098 13.0582 87.5289 12.9703 87.2422 12.8136C85.4617 11.8509 84.1478 10.4213 83.3006 8.52479C83.2337 8.37767 83.2783 8.28173 83.4343 8.23695ZM92.8657 12.046C92.7383 9.63457 92.7319 7.21513 92.8466 4.7877C92.8752 4.10168 93.1046 3.70831 93.8499 3.84263C94.0314 3.87781 94.1222 3.80105 94.1222 3.61236V3.47803C94.1254 3.31813 94.0458 3.23817 93.8833 3.23817H90.0611C89.991 3.23817 89.9385 3.26695 89.9034 3.32452L89.8174 3.47324C89.7187 3.63954 89.7633 3.74029 89.9512 3.77547L90.8256 3.92898C91.0613 3.97376 91.1791 4.11608 91.1791 4.35594L91.2078 12.0364C91.2078 12.2891 91.0836 12.4394 90.8351 12.4874L90.0133 12.6409C89.8286 12.6729 89.7697 12.7768 89.8366 12.9527C90.0181 13.4468 93.4438 13.1158 94.0744 13.039C94.1157 13.0366 94.1547 13.0192 94.1843 12.9903C94.2139 12.9613 94.2321 12.9226 94.2355 12.8812C94.239 12.8398 94.2276 12.7986 94.2032 12.765C94.1789 12.7315 94.1434 12.7078 94.1031 12.6984L93.1714 12.425C92.9803 12.3706 92.8784 12.2443 92.8657 12.046ZM100.372 6.05418L106.086 13.0582C106.146 13.135 106.224 13.1798 106.32 13.1926C106.371 13.2022 106.412 13.2277 106.444 13.2693C106.466 13.2956 106.495 13.3147 106.527 13.3241C106.56 13.3334 106.595 13.3326 106.627 13.3216C106.659 13.3107 106.687 13.2902 106.707 13.2629C106.728 13.2355 106.739 13.2026 106.74 13.1686C106.794 10.3254 106.812 7.49497 106.793 4.67736C106.788 3.40128 107.763 4.17364 108.045 3.58358C108.134 3.39808 108.077 3.29734 107.873 3.28135C107.447 3.24297 104.624 3.07986 104.514 3.47324C104.463 3.65873 104.533 3.76587 104.724 3.79466L105.532 3.90499C105.729 3.93378 105.828 4.04891 105.828 4.2504V9.69533C105.828 10.0088 105.729 10.0455 105.532 9.80567L100.314 3.45885C100.203 3.32132 100.058 3.25096 99.8794 3.24776C99.5354 3.23337 97.4571 3.12783 97.3711 3.41567C97.3393 3.51481 97.3711 3.58517 97.4667 3.62675L99.0051 4.32236C99.1739 4.39912 99.2583 4.53184 99.2583 4.72054V12.0796C99.2583 12.2747 99.1644 12.3946 98.9764 12.4394L98.0687 12.6649C98.0209 12.6745 97.989 12.7016 97.9731 12.7464C97.9604 12.7848 97.9444 12.8248 97.9253 12.8663C97.8362 13.0966 97.9142 13.2086 98.1594 13.2022L101.346 13.135C101.435 13.1318 101.491 13.0886 101.513 13.0055C101.638 12.5785 100.744 12.5353 100.462 12.4106C100.262 12.3211 100.16 12.1643 100.157 11.9405L100.071 6.16452C100.064 5.83831 100.165 5.80153 100.372 6.05418Z" stroke="#918F90" stroke-width="2"/>
<path d="M50.7324 10.5694C50.7323 10.5316 50.7248 10.4941 50.7103 10.4592C50.6958 10.4243 50.6746 10.3925 50.6479 10.3658C50.6212 10.3392 50.5895 10.318 50.5546 10.3036C50.5198 10.2893 50.4824 10.2819 50.4447 10.282L46.871 10.2888C46.7951 10.289 46.7224 10.3195 46.6689 10.3734C46.6153 10.4274 46.5852 10.5004 46.5852 10.5766L46.591 14.1074C46.591 14.1453 46.5984 14.1828 46.6129 14.2178C46.6274 14.2528 46.6486 14.2845 46.6753 14.3113C46.702 14.338 46.7337 14.3592 46.7686 14.3736C46.8035 14.388 46.8409 14.3954 46.8786 14.3952L50.4524 14.3885C50.5282 14.3883 50.6009 14.3578 50.6545 14.3039C50.708 14.2499 50.7381 14.1769 50.7381 14.1007L50.7324 10.5699M42.3951 2.2269C42.395 2.17399 42.3845 2.12161 42.3642 2.07277C42.3439 2.02392 42.3143 1.97957 42.2769 1.94224C42.2396 1.90491 42.1952 1.87533 42.1465 1.8552C42.0978 1.83506 42.0455 1.82477 41.9928 1.82489L38.6293 1.83065C38.5766 1.83077 38.5244 1.84132 38.4758 1.86169C38.4271 1.88206 38.383 1.91185 38.3458 1.94935C38.3086 1.98686 38.2792 2.03136 38.2591 2.0803C38.239 2.12924 38.2288 2.18166 38.2289 2.23458L38.2346 5.63107C38.2348 5.68399 38.2453 5.73636 38.2656 5.78521C38.2858 5.83405 38.3155 5.8784 38.3529 5.91573C38.3902 5.95306 38.4345 5.98264 38.4833 6.00277C38.532 6.02291 38.5842 6.03321 38.6369 6.03308L42.0005 6.02732C42.0532 6.0272 42.1054 6.01665 42.154 5.99628C42.2026 5.97591 42.2468 5.94613 42.284 5.90862C42.3212 5.87111 42.3506 5.82661 42.3707 5.77768C42.3907 5.72874 42.401 5.67631 42.4009 5.62339L42.3951 2.2269ZM50.7008 2.16934C50.7004 2.1265 50.6917 2.08415 50.675 2.04472C50.6583 2.00528 50.6341 1.96953 50.6036 1.93951C50.5732 1.90948 50.5372 1.88577 50.4976 1.86973C50.4581 1.85368 50.4157 1.84562 50.3731 1.846L46.8948 1.8767C46.8522 1.87708 46.81 1.88589 46.7707 1.90263C46.7315 1.91937 46.6959 1.94372 46.666 1.97428C46.6361 2.00484 46.6124 2.04101 46.5965 2.08074C46.5805 2.12046 46.5724 2.16296 46.5728 2.2058L46.6034 5.73661C46.6038 5.77945 46.6126 5.82179 46.6292 5.86123C46.6459 5.90066 46.6701 5.93641 46.7006 5.96644C46.731 5.99646 46.767 6.02017 46.8066 6.03622C46.8462 6.05226 46.8885 6.06033 46.9312 6.05995L50.4094 6.02924C50.452 6.02887 50.4942 6.02006 50.5335 6.00331C50.5728 5.98657 50.6084 5.96222 50.6383 5.93166C50.6682 5.9011 50.6918 5.86493 50.7078 5.82521C50.7237 5.78548 50.7318 5.74299 50.7314 5.70015L50.7008 2.16934ZM46.5738 6.43653C46.5733 6.34755 46.5376 6.26241 46.4746 6.19981C46.4117 6.13721 46.3265 6.10226 46.2379 6.10264L42.731 6.12087C42.6871 6.12112 42.6437 6.13006 42.6032 6.14717C42.5627 6.16427 42.526 6.18922 42.4951 6.22058C42.4642 6.25194 42.4398 6.28911 42.4232 6.32994C42.4066 6.37078 42.3982 6.4145 42.3985 6.4586L42.4166 9.98941C42.4169 10.0335 42.4258 10.0771 42.4428 10.1178C42.4599 10.1584 42.4847 10.1953 42.5159 10.2263C42.5472 10.2573 42.5842 10.2818 42.6249 10.2985C42.6655 10.3151 42.7091 10.3236 42.753 10.3233L46.2599 10.3051C46.3038 10.3048 46.3472 10.2959 46.3877 10.2788C46.4282 10.2617 46.4649 10.2367 46.4958 10.2054C46.5267 10.174 46.5511 10.1368 46.5677 10.096C46.5843 10.0552 46.5927 10.0114 46.5924 9.96734L46.5738 6.43653ZM42.409 10.4989C42.4091 10.4417 42.3867 10.3868 42.3465 10.3463C42.3064 10.3057 42.2519 10.2828 42.1949 10.2825L38.4492 10.2691C38.4209 10.269 38.3929 10.2744 38.3667 10.2852C38.3405 10.296 38.3168 10.3118 38.2967 10.3318C38.2766 10.3518 38.2607 10.3756 38.2498 10.4018C38.2389 10.428 38.2333 10.4561 38.2332 10.4845L38.2208 14.1688C38.2207 14.226 38.2431 14.2809 38.2833 14.3214C38.3234 14.362 38.3779 14.3849 38.4348 14.3852L42.1806 14.3986C42.2089 14.3987 42.2369 14.3933 42.2631 14.3825C42.2892 14.3717 42.313 14.3559 42.3331 14.3359C42.3532 14.3159 42.3691 14.2921 42.38 14.2659C42.3909 14.2397 42.3965 14.2116 42.3966 14.1832L42.409 10.4989Z" stroke="#F68E92" stroke-width="2"/>
<path d="M113.338 8.8462C113.326 8.87486 113.32 8.9063 113.323 8.93762C113.325 8.96895 113.335 8.99915 113.352 9.02544C113.37 9.05173 113.393 9.07326 113.421 9.08805C113.448 9.10284 113.479 9.11041 113.51 9.11006L115.789 9.11485C115.82 9.11485 115.85 9.10725 115.877 9.09272C115.904 9.07818 115.927 9.05717 115.944 9.03154C115.961 9.00591 115.972 8.97646 115.975 8.9458C115.978 8.91515 115.973 8.88423 115.961 8.8558L114.829 6.16931C114.815 6.13522 114.791 6.10609 114.76 6.0856C114.73 6.06511 114.694 6.05418 114.657 6.05418C114.62 6.05418 114.584 6.06511 114.554 6.0856C114.523 6.10609 114.499 6.13522 114.485 6.16931L113.338 8.8462ZM58.523 7.9635C61.791 8.84141 61.3658 3.3581 58.566 4.17843C58.3813 4.2328 58.2889 4.35753 58.2889 4.55262V7.65647C58.2889 7.81958 58.3669 7.92193 58.523 7.9635ZM80.9069 7.85796C84.1988 8.07864 84.1749 3.59316 80.8639 4.15445C80.7046 4.18323 80.625 4.27758 80.625 4.43749V7.55573C80.625 7.74442 80.719 7.84517 80.9069 7.85796Z" stroke="#918F90" stroke-width="2"/>
<path d="M51.7171 15.1628C51.7169 15.2201 51.7056 15.2769 51.6836 15.3298C51.6616 15.3827 51.6295 15.4308 51.589 15.4712C51.5486 15.5117 51.5006 15.5437 51.4478 15.5655C51.395 15.5874 51.3384 15.5985 51.2813 15.5984L37.6264 15.5744C37.5693 15.5743 37.5128 15.5629 37.4601 15.5408C37.4074 15.5188 37.3596 15.4865 37.3193 15.4459C37.279 15.4053 37.2471 15.3571 37.2253 15.304C37.2036 15.251 37.1925 15.1942 37.1926 15.1369L37.2165 1.34948C37.2166 1.29215 37.228 1.2354 37.25 1.18249C37.2719 1.12957 37.3041 1.08151 37.3445 1.04107C37.385 1.00062 37.433 0.968566 37.4858 0.946744C37.5386 0.924921 37.5951 0.913754 37.6522 0.91388L51.3071 0.937867C51.3642 0.937993 51.4207 0.949409 51.4734 0.971465C51.5261 0.99352 51.574 1.02578 51.6143 1.06641C51.6546 1.10704 51.6865 1.15523 51.7082 1.20825C51.7299 1.26126 51.7411 1.31805 51.7409 1.37538L51.7171 15.1628ZM38.4563 14.9388C39.8992 14.9772 50.7878 15.2602 51.2608 14.7517C51.4519 14.547 51.4678 14.2863 51.3086 13.9697C51.2353 13.8258 51.2003 13.6723 51.2034 13.5092L51.385 1.70783C51.3856 1.66018 51.3768 1.61288 51.3591 1.56867C51.3414 1.52446 51.3151 1.48423 51.2818 1.45031C51.2484 1.41639 51.2087 1.38946 51.1649 1.37108C51.1211 1.3527 51.0741 1.34323 51.0267 1.34324L37.9594 1.27128C37.9139 1.27064 37.8686 1.27911 37.8263 1.29618C37.784 1.31326 37.7456 1.3386 37.7131 1.37073C37.6807 1.40287 37.6549 1.44116 37.6373 1.48339C37.6197 1.52561 37.6107 1.57092 37.6107 1.61668L37.6537 14.5166C37.6537 14.5738 37.6661 14.6303 37.69 14.6825C37.7139 14.7346 37.7488 14.7811 37.7922 14.8188C37.9801 14.9852 38.1458 15.0363 38.2891 14.9724C38.3433 14.9468 38.399 14.9356 38.4563 14.9388Z" fill="#ED1D25"/>
<path d="M123.195 15.3514C123.195 15.3857 123.181 15.4187 123.157 15.443C123.133 15.4672 123.1 15.4809 123.066 15.4809H52.546C52.5118 15.4809 52.479 15.4672 52.4548 15.443C52.4306 15.4187 52.417 15.3857 52.417 15.3514V0.969066C52.417 0.934713 52.4306 0.901767 52.4548 0.877476C52.479 0.853185 52.5118 0.839539 52.546 0.839539H123.066C123.1 0.839539 123.133 0.853185 123.157 0.877476C123.181 0.901767 123.195 0.934713 123.195 0.969066V15.3514ZM116.497 10.1559L117.156 11.9693C117.229 12.1644 117.172 12.3035 116.984 12.3866L116.291 12.6937C116.243 12.7128 116.219 12.7496 116.219 12.804V12.9479C116.216 13.1206 116.301 13.2054 116.473 13.2022L120.166 13.1686C120.219 13.1669 120.27 13.1462 120.31 13.1103C120.349 13.0743 120.375 13.0255 120.381 12.9724C120.388 12.9193 120.376 12.8655 120.347 12.8206C120.318 12.7757 120.274 12.7426 120.223 12.7272C119.589 12.5513 119.129 12.126 118.842 11.4512C117.664 8.69751 116.511 5.91828 115.383 3.11346C115.364 3.06572 115.331 3.02473 115.289 2.99555C115.246 2.96637 115.197 2.95028 115.145 2.94926C115.094 2.94824 115.043 2.96234 115 2.98981C114.956 3.01729 114.922 3.05694 114.901 3.10386L110.926 12.1084C110.868 12.2395 110.771 12.3227 110.634 12.3579C110.344 12.441 110.098 12.5849 109.894 12.7896C109.607 13.0742 109.666 13.2134 110.07 13.207L112.999 13.1494C113.378 13.143 113.421 13.0183 113.128 12.7752C112.908 12.5961 112.652 12.4938 112.359 12.4682C112.302 12.4647 112.247 12.4477 112.198 12.4186C112.149 12.3894 112.108 12.3489 112.077 12.3004C112.046 12.2518 112.027 12.1966 112.021 12.1391C112.016 12.0815 112.023 12.0234 112.044 11.9693L112.727 10.2087C112.791 10.0392 112.912 9.9544 113.09 9.9544H116.21C116.353 9.9544 116.449 10.0216 116.497 10.1559ZM56.33 3.95778C56.4111 3.97533 56.4838 4.02059 56.5359 4.08605C56.5881 4.15151 56.6166 4.23322 56.6167 4.31758V11.9069C56.6167 12.0988 56.545 12.2571 56.4017 12.3818C56.2042 12.5513 55.9701 12.6217 55.6993 12.5929C55.5656 12.5801 55.4525 12.6217 55.3601 12.7176C55.3251 12.7496 55.2884 12.7864 55.2502 12.828C55.0018 13.0742 55.0527 13.1974 55.4031 13.1974L59.5072 13.1638C60.0328 13.1606 60.0646 13.0311 59.6028 12.7752C59.3703 12.6473 59.117 12.5625 58.8431 12.521C58.6889 12.4969 58.5484 12.418 58.4468 12.2984C58.3451 12.1788 58.2892 12.0263 58.2889 11.8685V8.99974C58.2889 8.81105 58.3829 8.72789 58.5708 8.75028C61.1078 9.02373 64.457 7.17677 62.0777 4.33677C60.9071 2.94075 57.7824 3.14224 55.5703 3.27177C55.4079 3.28136 55.3203 3.35492 55.3076 3.49244C55.2916 3.64276 55.3569 3.73391 55.5034 3.76589L56.33 3.95778ZM68.2076 3.87143C68.5006 3.78508 68.7904 3.69873 69.0771 3.61238C69.9212 3.36292 69.9021 3.23819 69.0198 3.23819H64.8583C64.7787 3.23819 64.7389 3.27816 64.7389 3.35812C64.7389 3.40289 64.7373 3.44927 64.7341 3.49724C64.7246 3.63796 64.7898 3.70512 64.93 3.69873C65.7199 3.67314 66.1244 4.04893 66.1436 4.82609C66.1913 6.91772 65.8043 10.1559 66.7503 11.7486C67.7919 13.4996 70.4053 13.5284 72.0489 12.8376C75.7564 11.2785 71.9103 4.31758 75.1831 3.59319C75.23 3.5881 75.2729 3.56452 75.3025 3.52763C75.3321 3.49074 75.3458 3.44357 75.3408 3.3965C75.3357 3.34942 75.3122 3.3063 75.2755 3.27661C75.2388 3.24692 75.1918 3.2331 75.1449 3.23819H71.7909C71.3864 3.23819 71.3529 3.35012 71.6906 3.574C71.888 3.70832 72.111 3.79627 72.3594 3.83785C72.7512 3.90501 72.9519 4.13688 72.9614 4.53346C73.0092 6.27008 73.3293 10.1799 72.2973 11.4847C71.1984 12.8712 68.2267 12.7848 67.9352 10.4677C67.6517 8.23537 67.6406 6.15654 67.9018 4.23123C67.9273 4.04253 68.0292 3.9226 68.2076 3.87143ZM83.4343 8.23697C85.2499 7.71407 85.8997 5.45934 84.5762 4.17366C83.2241 2.8592 79.4544 3.12785 77.7201 3.31494C77.4303 3.34693 77.3984 3.45567 77.6246 3.64116C77.8316 3.81067 78.0753 3.87463 78.3556 3.83305C78.4297 3.82199 78.5054 3.827 78.5774 3.84773C78.6494 3.86846 78.7161 3.90443 78.7728 3.95317C78.8295 4.00191 78.8749 4.06227 78.906 4.13013C78.9371 4.198 78.953 4.27175 78.9528 4.34636V12.07C78.9528 12.2939 78.8445 12.4234 78.6279 12.4586C78.2807 12.5226 77.9463 12.6297 77.6246 12.78C77.0576 13.0455 77.0879 13.1798 77.7153 13.183L81.7526 13.1926C81.8163 13.1958 81.8609 13.167 81.8863 13.1062C81.9023 13.0679 81.9166 13.0263 81.9293 12.9815C81.9803 12.8216 81.9261 12.7192 81.7669 12.6745L80.8973 12.4298C80.7158 12.3786 80.625 12.2587 80.625 12.07V9.01893C80.6242 8.92466 80.6534 8.83282 80.7082 8.75653C80.763 8.68023 80.8408 8.62339 80.9303 8.59413C81.0199 8.56486 81.1167 8.56467 81.2068 8.59358C81.297 8.62248 81.376 8.67901 81.4324 8.75508L84.5046 12.9911C84.6256 13.1606 84.7896 13.239 84.9967 13.2262L87.1849 13.0774C87.5098 13.0583 87.5289 12.9703 87.2422 12.8136C85.4617 11.8509 84.1478 10.4213 83.3006 8.52481C83.2337 8.37769 83.2783 8.28175 83.4343 8.23697ZM92.8657 12.046C92.7383 9.63458 92.7319 7.21515 92.8466 4.78771C92.8752 4.1017 93.1046 3.70832 93.8499 3.84265C94.0314 3.87783 94.1222 3.80107 94.1222 3.61238V3.47805C94.1254 3.31814 94.0458 3.23819 93.8833 3.23819H90.0611C89.991 3.23819 89.9385 3.26697 89.9034 3.32454L89.8174 3.47325C89.7187 3.63956 89.7633 3.7403 89.9512 3.77548L90.8256 3.929C91.0613 3.97377 91.1791 4.11609 91.1791 4.35596L91.2078 12.0364C91.2078 12.2891 91.0836 12.4394 90.8351 12.4874L90.0133 12.6409C89.8286 12.6729 89.7697 12.7768 89.8366 12.9527C90.0181 13.4468 93.4438 13.1158 94.0744 13.0391C94.1157 13.0366 94.1547 13.0193 94.1843 12.9903C94.2139 12.9613 94.2321 12.9226 94.2355 12.8812C94.239 12.8399 94.2276 12.7986 94.2032 12.7651C94.1789 12.7315 94.1434 12.7079 94.1031 12.6985L93.1714 12.425C92.9803 12.3706 92.8784 12.2443 92.8657 12.046ZM100.372 6.0542L106.086 13.0583C106.146 13.135 106.224 13.1798 106.32 13.1926C106.371 13.2022 106.412 13.2278 106.444 13.2693C106.466 13.2957 106.495 13.3148 106.527 13.3241C106.56 13.3334 106.595 13.3326 106.627 13.3217C106.659 13.3107 106.687 13.2902 106.707 13.2629C106.728 13.2355 106.739 13.2027 106.74 13.1686C106.794 10.3254 106.812 7.49499 106.793 4.67738C106.788 3.4013 107.763 4.17366 108.045 3.58359C108.134 3.3981 108.077 3.29735 107.873 3.28136C107.447 3.24298 104.624 3.07988 104.514 3.47325C104.463 3.65875 104.533 3.76589 104.724 3.79467L105.532 3.90501C105.729 3.9338 105.828 4.04893 105.828 4.25042V9.69535C105.828 10.0088 105.729 10.0456 105.532 9.80569L100.314 3.45886C100.203 3.32134 100.058 3.25098 99.8794 3.24778C99.5354 3.23339 97.4571 3.12785 97.3711 3.41569C97.3393 3.51483 97.3711 3.58519 97.4667 3.62677L99.0051 4.32238C99.1739 4.39913 99.2583 4.53186 99.2583 4.72055V12.0796C99.2583 12.2747 99.1644 12.3946 98.9764 12.4394L98.0687 12.6649C98.0209 12.6745 97.989 12.7017 97.9731 12.7464C97.9604 12.7848 97.9444 12.8248 97.9253 12.8664C97.8362 13.0966 97.9142 13.2086 98.1594 13.2022L101.346 13.135C101.435 13.1318 101.491 13.0886 101.513 13.0055C101.638 12.5785 100.744 12.5354 100.462 12.4106C100.262 12.3211 100.16 12.1644 100.157 11.9405L100.071 6.16454C100.064 5.83832 100.165 5.80154 100.372 6.0542Z" fill="#231F20"/>
<path d="M38.2891 14.9724C38.1458 15.0363 37.9801 14.9851 37.7922 14.8188C37.7488 14.7811 37.7139 14.7346 37.69 14.6825C37.6661 14.6303 37.6537 14.5738 37.6537 14.5166L37.6107 1.61668C37.6107 1.57091 37.6197 1.5256 37.6373 1.48338C37.6549 1.44116 37.6807 1.40287 37.7131 1.37073C37.7456 1.33859 37.784 1.31325 37.8263 1.29618C37.8686 1.2791 37.9139 1.27064 37.9594 1.27127L51.0267 1.34323C51.0741 1.34323 51.1211 1.35269 51.1649 1.37107C51.2087 1.38945 51.2484 1.41639 51.2818 1.45031C51.3151 1.48423 51.3414 1.52446 51.3591 1.56867C51.3768 1.61287 51.3856 1.66018 51.385 1.70783L51.2034 13.5092C51.2003 13.6723 51.2353 13.8258 51.3086 13.9697C51.4678 14.2863 51.4519 14.547 51.2608 14.7517C50.7878 15.2602 39.8992 14.9772 38.4563 14.9388C38.399 14.9356 38.3433 14.9468 38.2891 14.9724ZM42.3951 2.2269C42.395 2.17398 42.3845 2.1216 42.3642 2.07276C42.3439 2.02391 42.3143 1.97956 42.2769 1.94223C42.2396 1.9049 42.1952 1.87532 42.1465 1.85519C42.0978 1.83505 42.0455 1.82476 41.9928 1.82488L38.6293 1.83064C38.5766 1.83076 38.5244 1.84131 38.4758 1.86168C38.4271 1.88205 38.383 1.91184 38.3458 1.94934C38.3086 1.98685 38.2792 2.03135 38.2591 2.08029C38.239 2.12923 38.2288 2.18165 38.2289 2.23457L38.2346 5.63106C38.2348 5.68398 38.2453 5.73635 38.2656 5.7852C38.2858 5.83404 38.3155 5.87839 38.3529 5.91572C38.3902 5.95305 38.4345 5.98263 38.4833 6.00276C38.532 6.0229 38.5842 6.0332 38.6369 6.03307L42.0005 6.02731C42.0532 6.02719 42.1054 6.01664 42.154 5.99627C42.2026 5.9759 42.2468 5.94612 42.284 5.90861C42.3212 5.8711 42.3506 5.8266 42.3707 5.77767C42.3907 5.72873 42.401 5.6763 42.4009 5.62338L42.3951 2.2269ZM50.7008 2.16933C50.7004 2.12649 50.6917 2.08414 50.675 2.04471C50.6583 2.00527 50.6341 1.96952 50.6036 1.9395C50.5732 1.90947 50.5372 1.88576 50.4976 1.86972C50.4581 1.85367 50.4157 1.84561 50.3731 1.84599L46.8948 1.87669C46.8522 1.87707 46.81 1.88588 46.7707 1.90262C46.7315 1.91936 46.6959 1.94371 46.666 1.97427C46.636 2.00483 46.6124 2.041 46.5965 2.08073C46.5805 2.12045 46.5724 2.16295 46.5728 2.20579L46.6034 5.7366C46.6038 5.77944 46.6126 5.82178 46.6292 5.86122C46.6459 5.90065 46.6701 5.9364 46.7006 5.96643C46.731 5.99645 46.767 6.02016 46.8066 6.03621C46.8462 6.05225 46.8885 6.06032 46.9312 6.05994L50.4094 6.02923C50.452 6.02886 50.4942 6.02005 50.5335 6.0033C50.5728 5.98656 50.6084 5.96221 50.6383 5.93165C50.6682 5.90109 50.6918 5.86492 50.7078 5.8252C50.7237 5.78547 50.7318 5.74298 50.7314 5.70014L50.7008 2.16933ZM46.5743 6.43652C46.574 6.39242 46.5651 6.34881 46.5481 6.30816C46.531 6.26751 46.5062 6.23063 46.4749 6.19963C46.4437 6.16862 46.4067 6.1441 46.366 6.12746C46.3254 6.11081 46.2818 6.10238 46.2379 6.10263L42.731 6.12086C42.6871 6.12111 42.6437 6.13005 42.6032 6.14716C42.5627 6.16426 42.526 6.18921 42.4951 6.22057C42.4642 6.25193 42.4398 6.2891 42.4232 6.32993C42.4066 6.37077 42.3982 6.41449 42.3985 6.45859L42.4166 9.9894C42.4169 10.0335 42.4258 10.0771 42.4428 10.1178C42.4599 10.1584 42.4847 10.1953 42.5159 10.2263C42.5472 10.2573 42.5842 10.2818 42.6249 10.2985C42.6655 10.3151 42.7091 10.3235 42.753 10.3233L46.2599 10.3051C46.3038 10.3048 46.3472 10.2959 46.3877 10.2788C46.4282 10.2617 46.4649 10.2367 46.4958 10.2054C46.5267 10.174 46.5511 10.1368 46.5677 10.096C46.5843 10.0552 46.5927 10.0114 46.5924 9.96733L46.5743 6.43652ZM42.409 10.4989C42.4091 10.4417 42.3867 10.3868 42.3465 10.3463C42.3064 10.3057 42.2519 10.2828 42.1949 10.2825L38.4492 10.2691C38.4209 10.269 38.3929 10.2744 38.3667 10.2852C38.3405 10.296 38.3167 10.3118 38.2967 10.3318C38.2766 10.3518 38.2607 10.3756 38.2498 10.4018C38.2389 10.428 38.2333 10.4561 38.2332 10.4845L38.2208 14.1688C38.2207 14.226 38.2431 14.2809 38.2833 14.3214C38.3234 14.362 38.3779 14.3849 38.4348 14.3852L42.1806 14.3986C42.2089 14.3987 42.2369 14.3932 42.2631 14.3825C42.2892 14.3717 42.313 14.3559 42.3331 14.3359C42.3531 14.3159 42.3691 14.2921 42.38 14.2659C42.3909 14.2397 42.3965 14.2116 42.3966 14.1832L42.409 10.4989ZM50.7319 10.5694C50.7318 10.4931 50.7015 10.42 50.6477 10.3662C50.594 10.3123 50.5212 10.282 50.4452 10.282L46.8714 10.2888C46.7954 10.2888 46.7225 10.3191 46.6687 10.3731C46.615 10.427 46.5848 10.5003 46.5848 10.5766L46.591 14.1074C46.591 14.1453 46.5984 14.1828 46.6129 14.2178C46.6274 14.2528 46.6486 14.2845 46.6753 14.3113C46.702 14.338 46.7337 14.3592 46.7686 14.3736C46.8035 14.388 46.8409 14.3954 46.8786 14.3952L50.4524 14.3885C50.5282 14.3883 50.6009 14.3578 50.6545 14.3039C50.708 14.2499 50.7381 14.1769 50.7381 14.1007L50.7324 10.5699L50.7319 10.5694Z" fill="white"/>
<path d="M41.993 1.82482L38.6295 1.83072C38.4078 1.83111 38.2284 2.01184 38.2288 2.23439L38.2347 5.63087C38.2351 5.85343 38.4151 6.03353 38.6368 6.03314L42.0003 6.02725C42.222 6.02686 42.4013 5.84613 42.4009 5.62357L42.395 2.22709C42.3947 2.00454 42.2147 1.82443 41.993 1.82482Z" fill="#ED1D25"/>
<path d="M50.373 1.84619L46.8949 1.87667C46.7155 1.87824 46.5713 2.02556 46.5728 2.20572L46.6035 5.7364C46.6051 5.91655 46.7518 6.06133 46.9312 6.05975L50.4093 6.02928C50.5888 6.0277 50.7329 5.88038 50.7314 5.70023L50.7007 2.16955C50.6991 1.98939 50.5524 1.84462 50.373 1.84619Z" fill="#ED1D25"/>
<path d="M116.21 9.95439H113.09C112.912 9.95439 112.791 10.0391 112.727 10.2086L112.044 11.9693C112.023 12.0234 112.016 12.0815 112.021 12.139C112.027 12.1965 112.046 12.2518 112.077 12.3004C112.108 12.3489 112.149 12.3894 112.198 12.4185C112.247 12.4477 112.302 12.4647 112.359 12.4682C112.652 12.4938 112.908 12.5961 113.128 12.7752C113.421 13.0183 113.378 13.143 112.999 13.1494L110.07 13.207C109.666 13.2134 109.607 13.0742 109.894 12.7896C110.098 12.5849 110.344 12.441 110.634 12.3578C110.771 12.3227 110.868 12.2395 110.926 12.1084L114.901 3.10385C114.922 3.05692 114.956 3.01727 115 2.98979C115.043 2.96232 115.094 2.94822 115.145 2.94924C115.197 2.95026 115.246 2.96636 115.289 2.99554C115.331 3.02472 115.364 3.06571 115.383 3.11344C116.511 5.91826 117.664 8.69749 118.842 11.4511C119.129 12.126 119.589 12.5513 120.223 12.7272C120.274 12.7426 120.318 12.7757 120.347 12.8206C120.376 12.8655 120.388 12.9193 120.381 12.9724C120.375 13.0254 120.349 13.0743 120.31 13.1103C120.27 13.1462 120.219 13.1669 120.166 13.1686L116.473 13.2022C116.301 13.2054 116.216 13.1206 116.219 12.9479V12.804C116.219 12.7496 116.243 12.7128 116.291 12.6936L116.984 12.3866C117.172 12.3035 117.229 12.1643 117.156 11.9693L116.497 10.1559C116.449 10.0215 116.353 9.95439 116.21 9.95439ZM113.338 8.84621C113.326 8.87487 113.32 8.9063 113.323 8.93763C113.325 8.96895 113.335 8.99915 113.352 9.02544C113.37 9.05173 113.393 9.07327 113.421 9.08805C113.448 9.10284 113.479 9.11041 113.51 9.11006L115.789 9.11486C115.82 9.11486 115.85 9.10726 115.877 9.09272C115.904 9.07819 115.927 9.05717 115.944 9.03155C115.962 9.00592 115.972 8.97647 115.975 8.94581C115.978 8.91515 115.973 8.88424 115.961 8.8558L114.829 6.16932C114.815 6.13522 114.791 6.1061 114.76 6.08561C114.73 6.06512 114.694 6.05418 114.657 6.05418C114.62 6.05418 114.584 6.06512 114.554 6.08561C114.523 6.1061 114.499 6.13522 114.485 6.16932L113.338 8.84621ZM56.33 3.95776L55.5034 3.76587C55.3569 3.73389 55.2916 3.64274 55.3076 3.49243C55.3203 3.3549 55.4079 3.28135 55.5703 3.27175C57.7824 3.14222 60.9071 2.94074 62.0777 4.33675C64.457 7.17675 61.1078 9.02371 58.5708 8.75026C58.3828 8.72788 58.2889 8.81103 58.2889 8.99972V11.8685C58.2892 12.0263 58.3451 12.1787 58.4468 12.2984C58.5484 12.418 58.6889 12.4969 58.8431 12.5209C59.117 12.5625 59.3703 12.6473 59.6028 12.7752C60.0646 13.0311 60.0328 13.1606 59.5072 13.1638L55.4031 13.1974C55.0527 13.1974 55.0018 13.0742 55.2502 12.828C55.2884 12.7864 55.3251 12.7496 55.3601 12.7176C55.4525 12.6217 55.5656 12.5801 55.6993 12.5929C55.9701 12.6217 56.2042 12.5513 56.4017 12.3818C56.545 12.2571 56.6167 12.0988 56.6167 11.9069V4.31756C56.6166 4.2332 56.5881 4.15149 56.5359 4.08603C56.4838 4.02057 56.4111 3.97531 56.33 3.95776ZM58.523 7.96351C61.791 8.84141 61.3658 3.3581 58.566 4.17844C58.3813 4.23281 58.2889 4.35754 58.2889 4.55263V7.65648C58.2889 7.81959 58.3669 7.92193 58.523 7.96351ZM67.9018 4.23121C67.6406 6.15653 67.6517 8.23535 67.9352 10.4677C68.2267 12.7848 71.1984 12.8711 72.2973 11.4847C73.3293 10.1799 73.0092 6.27006 72.9614 4.53344C72.9519 4.13686 72.7512 3.90499 72.3594 3.83783C72.111 3.79626 71.888 3.70831 71.6906 3.57398C71.3529 3.35011 71.3864 3.23817 71.7909 3.23817H75.1449C75.1918 3.23308 75.2388 3.2469 75.2755 3.27659C75.3122 3.30628 75.3357 3.3494 75.3408 3.39648C75.3458 3.44356 75.3321 3.49073 75.3025 3.52761C75.2729 3.5645 75.23 3.58808 75.1831 3.59317C71.9103 4.31756 75.7564 11.2784 72.0489 12.8376C70.4053 13.5284 67.7919 13.4996 66.7503 11.7486C65.8043 10.1559 66.1913 6.9177 66.1436 4.82608C66.1244 4.04891 65.7199 3.67313 64.93 3.69871C64.7898 3.70511 64.7246 3.63794 64.7341 3.49722C64.7373 3.44925 64.7389 3.40288 64.7389 3.3581C64.7389 3.27815 64.7787 3.23817 64.8583 3.23817H69.0198C69.9021 3.23817 69.9212 3.3629 69.0771 3.61236C68.7904 3.69871 68.5006 3.78506 68.2076 3.87141C68.0292 3.92258 67.9273 4.04252 67.9018 4.23121ZM83.3006 8.52479C84.1478 10.4213 85.4617 11.8509 87.2422 12.8136C87.5289 12.9703 87.5098 13.0582 87.1849 13.0774L84.9967 13.2261C84.7896 13.2389 84.6256 13.1606 84.5046 12.9911L81.4324 8.75506C81.376 8.67899 81.297 8.62246 81.2068 8.59356C81.1167 8.56465 81.0199 8.56485 80.9303 8.59411C80.8408 8.62338 80.763 8.68022 80.7082 8.75651C80.6534 8.8328 80.6242 8.92464 80.625 9.01891V12.07C80.625 12.2587 80.7158 12.3786 80.8973 12.4298L81.7669 12.6745C81.9261 12.7192 81.9803 12.8216 81.9293 12.9815C81.9166 13.0263 81.9023 13.0678 81.8863 13.1062C81.8609 13.167 81.8163 13.1958 81.7526 13.1926L77.7153 13.183C77.0879 13.1798 77.0576 13.0454 77.6246 12.78C77.9463 12.6297 78.2807 12.5225 78.6279 12.4586C78.8445 12.4234 78.9528 12.2939 78.9528 12.07V4.34635C78.953 4.27174 78.9371 4.19798 78.906 4.13012C78.8749 4.06225 78.8295 4.00189 78.7728 3.95315C78.7161 3.90441 78.6494 3.86845 78.5774 3.84771C78.5054 3.82698 78.4297 3.82198 78.3556 3.83303C78.0753 3.87461 77.8316 3.81065 77.6246 3.64114C77.3984 3.45565 77.4303 3.34691 77.7201 3.31493C79.4544 3.12783 83.2241 2.85918 84.5762 4.17364C85.8997 5.45932 85.2499 7.71405 83.4343 8.23695C83.2783 8.28173 83.2337 8.37768 83.3006 8.52479ZM80.9069 7.85797C84.1988 8.07864 84.1749 3.59317 80.8639 4.15445C80.7046 4.18324 80.625 4.27758 80.625 4.43749V7.55574C80.625 7.74443 80.719 7.84517 80.9069 7.85797ZM93.1714 12.425L94.1031 12.6984C94.1434 12.7078 94.1789 12.7315 94.2032 12.765C94.2276 12.7986 94.239 12.8398 94.2355 12.8812C94.2321 12.9226 94.2139 12.9613 94.1843 12.9903C94.1547 13.0192 94.1157 13.0366 94.0744 13.039C93.4438 13.1158 90.0181 13.4468 89.8366 12.9527C89.7697 12.7768 89.8286 12.6729 90.0133 12.6409L90.8351 12.4874C91.0836 12.4394 91.2078 12.2891 91.2078 12.0364L91.1791 4.35594C91.1791 4.11608 91.0613 3.97376 90.8256 3.92898L89.9512 3.77547C89.7633 3.74029 89.7187 3.63954 89.8174 3.47324L89.9034 3.32452C89.9385 3.26695 89.991 3.23817 90.0611 3.23817H93.8833C94.0458 3.23817 94.1254 3.31813 94.1222 3.47803V3.61236C94.1222 3.80105 94.0314 3.87781 93.8499 3.84263C93.1046 3.70831 92.8752 4.10168 92.8466 4.7877C92.7319 7.21513 92.7383 9.63457 92.8657 12.046C92.8784 12.2443 92.9803 12.3706 93.1714 12.425ZM100.071 6.16452L100.157 11.9405C100.16 12.1643 100.262 12.3211 100.462 12.4106C100.744 12.5353 101.638 12.5785 101.513 13.0055C101.491 13.0886 101.435 13.1318 101.346 13.135L98.1594 13.2022C97.9142 13.2086 97.8362 13.0966 97.9253 12.8663C97.9445 12.8248 97.9604 12.7848 97.9731 12.7464C97.989 12.7016 98.0209 12.6745 98.0687 12.6649L98.9764 12.4394C99.1644 12.3946 99.2583 12.2747 99.2583 12.0796V4.72054C99.2583 4.53184 99.1739 4.39912 99.0051 4.32236L97.4667 3.62675C97.3711 3.58517 97.3393 3.51481 97.3711 3.41567C97.4571 3.12783 99.5354 3.23337 99.8794 3.24776C100.058 3.25096 100.203 3.32132 100.314 3.45885L105.532 9.80567C105.729 10.0455 105.828 10.0088 105.828 9.69533V4.2504C105.828 4.04891 105.729 3.93378 105.532 3.90499L104.724 3.79466C104.533 3.76587 104.463 3.65873 104.514 3.47324C104.624 3.07986 107.447 3.24297 107.873 3.28135C108.077 3.29734 108.134 3.39808 108.045 3.58358C107.763 4.17364 106.788 3.40128 106.793 4.67736C106.812 7.49497 106.794 10.3254 106.74 13.1686C106.739 13.2026 106.728 13.2355 106.707 13.2629C106.687 13.2902 106.659 13.3107 106.627 13.3216C106.595 13.3326 106.56 13.3334 106.527 13.3241C106.495 13.3147 106.466 13.2956 106.444 13.2693C106.412 13.2277 106.371 13.2022 106.32 13.1926C106.224 13.1798 106.146 13.135 106.086 13.0582L100.372 6.05418C100.165 5.80153 100.064 5.83831 100.071 6.16452Z" fill="white"/>
<path d="M58.566 4.17843C61.3658 3.3581 61.791 8.84141 58.523 7.9635C58.3669 7.92193 58.2889 7.81958 58.2889 7.65647V4.55262C58.2889 4.35753 58.3813 4.2328 58.566 4.17843ZM80.8639 4.15445C84.1749 3.59316 84.1988 8.07864 80.9069 7.85796C80.719 7.84517 80.625 7.74442 80.625 7.55573V4.43749C80.625 4.27758 80.7046 4.18323 80.8639 4.15445ZM113.338 8.8462L114.485 6.16931C114.499 6.13522 114.523 6.10609 114.554 6.0856C114.584 6.06511 114.62 6.05418 114.657 6.05418C114.694 6.05418 114.73 6.06511 114.76 6.0856C114.791 6.10609 114.815 6.13522 114.829 6.16931L115.961 8.8558C115.973 8.88423 115.978 8.91515 115.975 8.9458C115.972 8.97646 115.961 9.00591 115.944 9.03154C115.927 9.05717 115.904 9.07818 115.877 9.09272C115.85 9.10725 115.82 9.11485 115.789 9.11485L113.51 9.11006C113.479 9.11041 113.448 9.10284 113.421 9.08805C113.393 9.07326 113.37 9.05173 113.352 9.02544C113.335 8.99915 113.325 8.96895 113.323 8.93762C113.32 8.9063 113.326 8.87486 113.338 8.8462Z" fill="#231F20"/>
<path d="M46.2379 6.10258L42.7311 6.12101C42.5464 6.12199 42.3974 6.27312 42.3984 6.45858L42.4168 9.98934C42.4178 10.1748 42.5683 10.3244 42.753 10.3234L46.2598 10.305C46.4445 10.304 46.5935 10.1528 46.5925 9.96739L46.5741 6.43662C46.5731 6.25116 46.4226 6.10161 46.2379 6.10258Z" fill="#ED1D25"/>
<path d="M42.1949 10.2824L38.4492 10.2692C38.3304 10.2688 38.2338 10.3651 38.2334 10.4844L38.2206 14.1687C38.2202 14.2879 38.3161 14.3849 38.4349 14.3853L42.1806 14.3984C42.2993 14.3988 42.3959 14.3025 42.3964 14.1833L42.4092 10.499C42.4096 10.3798 42.3137 10.2828 42.1949 10.2824Z" fill="#ED1D25"/>
<path d="M50.445 10.2823L46.8712 10.2885C46.7129 10.2888 46.5848 10.4179 46.585 10.5769L46.5912 14.1077C46.5915 14.2666 46.72 14.3953 46.8784 14.395L50.4521 14.3887C50.6104 14.3885 50.7386 14.2594 50.7383 14.1004L50.7322 10.5696C50.7319 10.4106 50.6033 10.282 50.445 10.2823Z" fill="#ED1D25"/>
<path d="M0 46.0253V43.027C0.35037 37.9162 1.71522 33.3796 4.09456 29.417C13.1437 14.3487 35.0163 12.3818 45.3698 27.052C55.3601 41.204 49.8036 63.2476 33.1673 69.1434C16.1871 75.1641 0.984222 63.3099 0 46.0253ZM45.6278 39.1028C43.6068 27.8243 34.1133 18.8006 22.3457 20.1774C-1.22311 22.9407 -1.47156 58.2296 18.3419 66.2651C22.3234 67.8834 26.4753 68.1728 30.7976 67.1334C43.6832 64.0439 47.7634 51.0289 45.6278 39.1028ZM59.6458 32.6408C59.7509 43.601 59.7827 54.5884 59.7413 65.603C59.735 67.0774 60.2382 68.3071 61.2511 69.2922C61.2729 69.3134 61.288 69.3406 61.2943 69.3704C61.3007 69.4002 61.298 69.4312 61.2868 69.4595C61.2755 69.4878 61.2561 69.5121 61.231 69.5293C61.2059 69.5465 61.1764 69.5558 61.146 69.556L55.9287 69.5608C55.7376 69.5608 55.7009 69.4857 55.8188 69.3353C56.7807 68.0912 57.2696 66.4586 57.2856 64.4373C57.3779 52.8854 57.3636 41.3367 57.2425 29.7912C57.2425 29.6153 57.19 29.4554 57.0849 29.3115C55.1069 26.5834 52.5476 24.5894 49.407 23.3293C49.3748 23.3146 49.3485 23.2895 49.3322 23.258C49.316 23.2265 49.3108 23.1904 49.3174 23.1555C49.324 23.1207 49.3421 23.089 49.3687 23.0657C49.3954 23.0424 49.429 23.0288 49.4643 23.027H56.9798C57.1773 23.027 57.3413 23.1022 57.4719 23.2525L89.9894 61.3718C90.0021 61.3885 90.0197 61.4005 90.0396 61.4062C90.0596 61.4119 90.081 61.4111 90.1009 61.4037C90.1208 61.3963 90.1382 61.3829 90.1507 61.3651C90.1633 61.3474 90.1704 61.3263 90.171 61.3047C90.1869 50.0886 90.2172 38.8789 90.2618 27.6756C90.2681 25.9454 89.6932 24.4758 88.537 23.2669C88.5188 23.2473 88.5068 23.2228 88.5026 23.1964C88.4983 23.17 88.502 23.1427 88.513 23.118C88.5241 23.0932 88.5422 23.0719 88.5651 23.0566C88.588 23.0413 88.6147 23.0327 88.6421 23.0318L93.8881 23.027C94.1843 23.027 94.2353 23.139 94.041 23.3628C93.0663 24.4822 92.579 25.6192 92.579 26.7737C92.5663 41.2392 92.5647 55.719 92.5742 70.2132C92.5743 70.2467 92.5641 70.2794 92.5451 70.3069C92.526 70.3344 92.499 70.3553 92.4677 70.3668C92.4364 70.3783 92.4023 70.3799 92.3701 70.3713C92.3379 70.3627 92.309 70.3444 92.2876 70.3188L59.9086 32.5401C59.8889 32.5158 59.8621 32.4984 59.832 32.4903C59.8019 32.4823 59.77 32.4839 59.7409 32.4951C59.7118 32.5062 59.6869 32.5263 59.6699 32.5525C59.6528 32.5787 59.6443 32.6096 59.6458 32.6408ZM106.138 45.9965C105.976 51.4846 105.973 56.6721 106.129 61.5589C106.205 63.9528 106.621 66.2507 109.296 67.0518C111.958 67.8482 115.785 67.5411 118.503 66.9415C122.236 66.1132 125.356 64.0599 127.863 60.7818C127.884 60.7485 127.918 60.7245 127.956 60.7146C127.994 60.7047 128.035 60.7096 128.069 60.7283C128.104 60.747 128.131 60.7781 128.144 60.8156C128.157 60.853 128.156 60.894 128.14 60.9305L125.163 69.3162C125.106 69.4793 124.991 69.5608 124.819 69.5608H98.9382C98.9172 69.5613 98.8967 69.5549 98.8797 69.5425C98.8628 69.5301 98.8503 69.5124 98.8444 69.4922C98.8384 69.472 98.8392 69.4504 98.8466 69.4308C98.8541 69.4111 98.8678 69.3944 98.8857 69.3833C100.934 68.0529 101.963 66.1419 101.972 63.6505C102.02 52.0187 102.004 40.3868 101.924 28.755C101.908 26.3628 100.954 24.567 99.0624 23.3676C99.0293 23.3454 99.0038 23.313 98.9898 23.2753C98.9758 23.2376 98.974 23.1966 98.9848 23.1583C98.9955 23.12 99.0182 23.0866 99.0494 23.063C99.0806 23.0393 99.1187 23.0267 99.158 23.027H123.071C123.123 23.027 123.173 23.0472 123.209 23.0832C123.246 23.1192 123.267 23.168 123.267 23.2189V29.11C123.266 29.1517 123.251 29.1919 123.224 29.2238C123.197 29.2557 123.16 29.2774 123.119 29.2853C123.078 29.2932 123.036 29.2867 123 29.267C122.963 29.2473 122.934 29.2156 122.918 29.1772C121.824 26.3084 119.951 25.4593 116.864 25.2482C113.329 25.0083 109.797 24.9667 106.267 25.1234C106.213 25.1259 106.162 25.1487 106.125 25.1872C106.088 25.2256 106.067 25.2766 106.067 25.3297V43.4155C106.067 43.4881 106.095 43.5576 106.146 43.6089C106.197 43.6602 106.267 43.689 106.339 43.689C110.477 43.6666 114.452 43.6554 118.264 43.6554C120.109 43.6506 121.298 43.1565 122.478 41.8756C122.503 41.8494 122.535 41.8313 122.569 41.8236C122.604 41.8159 122.641 41.819 122.674 41.8325C122.707 41.846 122.735 41.8693 122.755 41.8992C122.775 41.9292 122.785 41.9645 122.784 42.0003L122.789 47.5028C122.788 47.5419 122.775 47.5797 122.751 47.6111C122.728 47.6425 122.696 47.6661 122.659 47.6786C122.622 47.6911 122.582 47.692 122.545 47.6812C122.507 47.6704 122.474 47.6483 122.45 47.618C121.43 46.2907 120.031 45.6831 118.25 45.795C116.352 45.9165 112.408 45.8957 106.42 45.7326C106.239 45.7262 106.145 45.8142 106.138 45.9965ZM126.864 24.3703C126.864 24.7163 126.727 25.0482 126.484 25.293C126.24 25.5377 125.909 25.6751 125.565 25.6751C125.22 25.6751 124.89 25.5377 124.646 25.293C124.402 25.0482 124.265 24.7163 124.265 24.3703C124.265 24.0242 124.402 23.6923 124.646 23.4476C124.89 23.2029 125.22 23.0654 125.565 23.0654C125.909 23.0654 126.24 23.2029 126.484 23.4476C126.727 23.6923 126.864 24.0242 126.864 24.3703ZM126.014 24.826C126.157 24.8836 126.286 24.898 126.401 24.8692C126.563 24.8276 126.645 24.7237 126.645 24.5574C126.645 24.1096 126.463 23.809 126.1 23.6555C125.836 23.5435 125.735 23.6299 125.799 23.9145L126.014 24.826C125.6 24.7844 125.394 24.5957 125.398 24.2599C125.398 24.1416 125.393 24.0249 125.383 23.9097C125.358 23.6379 125.213 23.5611 124.948 23.6795C124.738 23.7754 124.654 23.9369 124.695 24.164L124.8 24.7541C124.864 25.1155 125.077 25.3217 125.441 25.3729C125.922 25.4401 126.113 25.2578 126.014 24.826Z" fill="#231F20"/>
</g>
<defs>
<clipPath id="clip0_85_366">
<rect width="129" height="71" fill="white"/>
</clipPath>
</defs>
</svg>
