<svg width="130" height="39" viewBox="0 0 130 39" fill="none" xmlns="http://www.w3.org/2000/svg">
<path d="M74.7753 14.948C75.9774 14.948 76.9518 13.9827 76.9518 12.792C76.9518 11.6012 75.9774 10.636 74.7753 10.636C73.5732 10.636 72.5987 11.6012 72.5987 12.792C72.5987 13.9827 73.5732 14.948 74.7753 14.948Z" fill="#EF3E33"/>
<path d="M76.8434 10.3953C78.0455 10.3953 79.02 9.43004 79.02 8.23929C79.02 7.04854 78.0455 6.08325 76.8434 6.08325C75.6413 6.08325 74.6668 7.04854 74.6668 8.23929C74.6668 9.43004 75.6413 10.3953 76.8434 10.3953Z" fill="#EF3E33"/>
<path d="M29.169 29.4354C29.169 33.8248 25.5766 37.3819 21.1447 37.3819C16.7136 37.3819 13.1233 33.8248 13.1233 29.4354C13.1233 25.0453 16.7136 21.4875 21.1447 21.4875C25.5758 21.4875 29.169 25.0453 29.169 29.4354ZM21.1737 25.1697C18.7958 25.1697 16.8681 27.08 16.8681 29.4354C16.8681 31.7909 18.7958 33.7011 21.1737 33.7011C23.5515 33.7011 25.48 31.7909 25.48 29.4354C25.48 27.08 23.5515 25.1697 21.1737 25.1697Z" fill="#EF3E33"/>
<path d="M94.9059 35.7505C94.9059 35.7505 94.6987 37.1434 96.6517 37.3127C96.6517 37.3127 98.1923 37.3701 98.3929 35.749V28.3375C98.3951 28.2559 98.5363 28.1602 98.5831 28.2367L103.259 36.5452C103.259 36.5452 103.805 37.3274 104.926 37.2855C104.926 37.2855 106.735 37.4415 107.266 35.749L107.3 35.2089V22.7546C106.643 21.0011 104.424 20.9916 103.865 22.7458V30.0432C103.865 30.0432 103.876 30.3 103.718 30.2721C102.197 27.7275 100.86 25.0498 99.2554 22.4404C98.7681 21.6487 97.4005 21.1836 96.4593 21.5721C95.475 21.9783 95.2142 22.6045 95.0605 22.8871C95.0605 22.8871 94.8695 23.1719 94.8695 23.5413V35.6629" fill="#EF3E33"/>
<path d="M81.5404 35.5246V22.6936C81.669 21.2778 83.2282 21.3109 83.1888 21.3094C83.7549 21.3212 84.2905 21.3477 84.9071 22.124C86.1098 23.6421 87.1512 25.0373 88.3257 26.6098C90.448 29.4582 92.3 31.9116 94.3584 34.8454C94.6571 35.2722 94.5026 35.7615 94.3458 36.1795C94.088 36.8734 93.34 37.2281 92.6566 37.2685C92.381 37.2869 92.0021 37.2229 91.7495 36.9823C91.0475 36.3112 90.2943 35.1169 89.5291 34.1301C89.5269 34.1301 85.1537 34.1022 85.1492 34.1412C85.1307 34.2928 85.1039 35.3038 84.9739 35.9676C84.7682 37.0051 83.876 37.1744 83.4102 37.2575C83.3419 37.27 83.506 37.2479 83.4132 37.2546C82.7587 37.3002 81.6875 36.9889 81.5397 35.5305M86.811 30.6717C86.9871 30.6614 86.9507 30.4847 86.8905 30.406C86.288 29.6054 85.7747 28.8813 85.1478 28.0623C85.1322 28.8666 85.1054 29.8541 85.1359 30.6856C85.1374 30.7129 85.8832 30.6864 85.9018 30.6827C86.0696 30.6584 86.4908 30.6908 86.811 30.6717Z" fill="#EF3E33"/>
<path d="M115.953 35.6526C115.953 35.6526 115.744 37.0456 117.698 37.2156C117.698 37.2156 119.237 37.2722 119.44 35.6497V28.2382C119.442 28.158 119.581 28.0616 119.63 28.1389L124.306 36.4459C124.306 36.4459 124.851 37.2295 125.971 37.1876C125.971 37.1876 127.781 37.3436 128.311 35.6497L128.346 35.1096V22.6561C127.689 20.9033 125.472 20.893 124.909 22.6465V29.9446C124.909 29.9446 124.923 30.2 124.764 30.1728C123.242 27.6289 121.906 24.9512 120.301 22.3433C119.815 21.5508 118.446 21.0858 117.504 21.4743C116.522 21.8797 116.26 22.5067 116.106 22.7878C116.106 22.7878 115.916 23.0725 115.916 23.4427V35.5643" fill="#EF3E33"/>
<path d="M109.635 23.2565V35.4355C109.635 35.4355 109.55 37.2288 111.445 37.2288C113.341 37.2288 113.37 35.4929 113.37 35.4929" fill="#EF3E33"/>
<path d="M113.384 35.5069V23.3286C113.384 23.3286 113.47 21.5346 111.573 21.5346C109.678 21.5346 109.649 23.2705 109.649 23.2705" fill="#EF3E33"/>
<path d="M3.66823 23.6782C4.40366 22.7223 5.93543 21.8297 7.34983 21.6443C8.70034 21.4684 9.55389 21.9151 9.72549 21.9725C11.8478 22.6789 13.2845 25.1013 13.0015 27.498C12.8329 28.924 11.9801 30.2125 10.9185 31.1426C11.9407 33.3877 13.8573 34.8564 13.5534 35.9691C13.3439 36.741 13.1293 36.9396 12.4429 37.2354C12.0061 37.4238 11.3731 37.3738 11.0069 37.0647C9.22703 35.5643 8.2888 33.3958 6.79046 31.8439C6.41829 31.4605 6.25114 31.632 6.25189 31.8402C6.25857 33.6585 6.27269 35.011 6.17909 35.8991C6.12114 36.4312 5.61303 37.0463 5.26834 37.2163C4.3108 37.6917 3.01154 37.1184 2.84291 36.05C2.81246 35.8616 2.56657 35.036 2.55097 31.2817C2.54354 29.4222 2.39571 29.0138 2.51086 26.066C2.53909 25.4148 2.99966 24.5472 3.66823 23.6782ZM7.74503 28.4781C8.76571 28.4781 9.59251 27.7224 9.59251 26.7879C9.59251 25.8548 8.76571 25.0991 7.74503 25.0991C6.7236 25.0991 5.89531 25.8548 5.89531 26.7879C5.89531 27.7224 6.7236 28.4781 7.74503 28.4781Z" fill="#EF3E33"/>
<path d="M55.4001 18.6861C55.0933 18.8524 54.7419 19.0452 54.3905 18.915C53.9485 18.7509 53.9507 18.1092 54.239 17.951C61.2203 14.1342 68.8844 15.2549 73.2858 18.0209C73.3869 18.0835 73.8029 18.5059 73.4782 18.8642C73.3111 19.0526 72.9092 19.0651 72.5638 18.887C66.3223 15.6684 60.6439 15.8583 55.4001 18.6861Z" fill="#EF3E33"/>
<path d="M55.5264 14.8509C57.596 13.9598 59.7421 13.4815 61.9677 13.3086C63.8151 13.1651 65.5995 13.274 67.4834 13.5728C69.3836 13.8744 71.0461 14.4734 72.7443 15.2431C73.3163 15.5007 73.8749 15.7597 74.4075 16.1777C74.7953 16.483 74.7641 16.8171 74.675 17.1203C74.4982 17.7222 73.7902 17.6678 73.3661 17.4249C67.369 13.9841 60.1603 14.3424 54.1149 17.4065C53.7457 17.5942 53.1083 17.6221 52.9122 17.1225C52.6299 16.4043 53.2398 15.926 53.8155 15.5566C53.901 15.5029 53.7353 15.6052 53.817 15.561C54.7151 15.0834 55.045 15.0577 55.5264 14.8509Z" fill="#EF3E33"/>
<path d="M50.3939 10.3954C51.5956 10.3954 52.5698 9.43039 52.5698 8.24005C52.5698 7.04971 51.5956 6.08475 50.3939 6.08475C49.1923 6.08475 48.2181 7.04971 48.2181 8.24005C48.2181 9.43039 49.1923 10.3954 50.3939 10.3954Z" fill="#EF3E33"/>
<path d="M52.6567 14.948C53.8588 14.948 54.8332 13.9827 54.8332 12.792C54.8332 11.6012 53.8588 10.636 52.6567 10.636C51.4546 10.636 50.4801 11.6012 50.4801 12.792C50.4801 13.9827 51.4546 14.948 52.6567 14.948Z" fill="#EF3E33"/>
<path d="M57.9421 13.1268C59.1442 13.1268 60.1187 12.1615 60.1187 10.9708C60.1187 9.78002 59.1442 8.81473 57.9421 8.81473C56.74 8.81473 55.7655 9.78002 55.7655 10.9708C55.7655 12.1615 56.74 13.1268 57.9421 13.1268Z" fill="#EF3E33"/>
<path d="M56.7937 8.11936C57.9958 8.11936 58.9702 7.15407 58.9702 5.96332C58.9702 4.77257 57.9958 3.80728 56.7937 3.80728C55.5916 3.80728 54.6171 4.77257 54.6171 5.96332C54.6171 7.15407 55.5916 8.11936 56.7937 8.11936Z" fill="#EF3E33"/>
<path d="M63.573 12.2173C64.7755 12.2173 65.7503 11.2517 65.7503 10.0605C65.7503 8.86937 64.7755 7.90375 63.573 7.90375C62.3705 7.90375 61.3957 8.86937 61.3957 10.0605C61.3957 11.2517 62.3705 12.2173 63.573 12.2173Z" fill="#EF3E33"/>
<path d="M63.573 7.32316C64.7755 7.32316 65.7503 6.35754 65.7503 5.16639C65.7503 3.97523 64.7755 3.00961 63.573 3.00961C62.3705 3.00961 61.3957 3.97523 61.3957 5.16639C61.3957 6.35754 62.3705 7.32316 63.573 7.32316Z" fill="#EF3E33"/>
<path d="M69.3182 12.9002C70.5203 12.9002 71.4948 11.9349 71.4948 10.7441C71.4948 9.5534 70.5203 8.5881 69.3182 8.5881C68.1161 8.5881 67.1417 9.5534 67.1417 10.7441C67.1417 11.9349 68.1161 12.9002 69.3182 12.9002Z" fill="#EF3E33"/>
<path d="M70.3516 8.11936C71.5536 8.11936 72.5281 7.15407 72.5281 5.96332C72.5281 4.77257 71.5536 3.80728 70.3516 3.80728C69.1495 3.80728 68.175 4.77257 68.175 5.96332C68.175 7.15407 69.1495 8.11936 70.3516 8.11936Z" fill="#EF3E33"/>
<path d="M29.9215 21.6509C30.7624 21.9732 31.1628 22.6347 31.7133 23.2065C32.6664 24.1976 33.4858 25.1999 34.5198 26.1145C34.5852 26.1727 34.7746 26.1727 34.8244 26.1145C36.1378 24.5693 37.1896 23.0034 38.8002 21.7546C39.6782 21.0732 41.1104 21.5692 41.3831 22.723C41.5153 23.2852 41.3259 23.804 41.0168 24.2079C39.4843 26.2102 37.9971 27.8636 36.4564 29.7482C36.4134 31.8255 36.7046 33.9278 36.4096 36.0257C36.3012 36.8035 35.4506 37.2472 34.7352 37.2222C34.2375 37.2053 33.7086 36.9573 33.3721 36.4775C33.202 36.2332 33.0712 35.9433 33.0601 35.6923C32.9828 33.7188 32.89 31.7511 32.8952 29.7761C30.6889 26.988 27.7672 24.5332 27.6469 23.5074C27.5065 22.333 28.389 21.0637 29.9215 21.6509Z" fill="#EF3E33"/>
<path d="M55.9676 33.4745V23.1049C55.9565 20.4595 52.2875 20.8893 52.413 23.0438V35.9499C52.413 35.9499 52.413 37.0257 53.7205 36.9256H59.5214C59.5214 36.9256 61.1884 36.961 61.2887 35.3244C61.2887 35.3244 61.2746 33.9013 59.9107 33.6025L56.1474 33.5878C56.1474 33.5878 55.903 33.5312 55.9609 33.2758" fill="#EF3E33"/>
<path d="M50.2194 35.4885C50.073 36.9462 48.9996 37.2568 48.3466 37.2126C48.253 37.206 48.4179 37.2288 48.3481 37.2163C47.8816 37.1324 46.9902 36.9624 46.7851 35.9264C46.6537 35.2619 46.6284 34.2508 46.6091 34.0992C46.6046 34.0617 42.2322 34.0882 42.2285 34.0882C41.4641 35.0757 40.7115 36.2693 40.0103 36.9396C39.7577 37.181 39.3796 37.2457 39.1025 37.2288C38.4206 37.1847 37.671 36.8307 37.4125 36.1375C37.2565 35.7203 37.1027 35.2302 37.4014 34.8035C39.4598 31.8704 41.311 29.4178 43.4349 26.5686C44.6078 24.9946 45.6508 23.6009 46.8535 22.0821C47.4693 21.305 48.0057 21.2785 48.5702 21.269C48.5316 21.269 50.0901 21.2366 50.2201 22.6524V35.4841M45.8551 30.6415C45.8737 30.6444 46.6195 30.6695 46.621 30.643C46.6514 29.8107 46.6247 28.8217 46.6091 28.0204C45.9821 28.8379 45.4688 29.5627 44.8663 30.3633C44.8062 30.4421 44.7705 30.6194 44.9458 30.629C45.2675 30.6481 45.6879 30.615 45.8551 30.6415Z" fill="#EF3E33"/>
<path d="M66.719 28.4295C67.0748 25.6267 68.972 23.258 71.4955 22.1932C74.536 20.9099 78.1768 21.631 80.2991 24.2529C80.759 24.8195 80.62 25.5708 80.1929 26.1396C79.7479 26.7305 79.0392 27.0351 78.4026 26.7893C77.3247 26.3743 76.5826 25.4192 75.3851 25.1727C72.9218 24.6642 70.5996 26.2912 70.2446 28.6665C69.8917 31.0308 71.2548 33.2957 73.6773 33.7519C75.3777 34.072 76.7148 33.1603 78.1122 32.1846C78.7733 31.7232 79.8831 31.9543 80.2947 32.7799C80.5413 33.2751 80.7307 33.8086 80.4262 34.3421C79.2814 36.3429 76.9585 37.0603 74.8139 37.2656C73.1692 37.4238 71.6656 36.8565 70.2579 36.0066C67.6758 34.4458 66.3319 31.4723 66.719 28.4295Z" fill="#EF3E33"/>
</svg>
