<svg width="132" height="105" viewBox="0 0 132 105" fill="none" xmlns="http://www.w3.org/2000/svg">
<path d="M130.377 92.4693C130.296 92.241 122.771 71.1499 122.234 69.5726C121.228 66.6231 119.158 64.9979 116.407 64.9979C113.655 64.9979 111.586 66.6231 110.58 69.5726C110.213 70.6495 106.958 79.8144 104.905 85.59C104.473 84.7344 103.918 83.9282 103.243 83.167C104.804 81.2655 105.597 78.9983 105.597 76.4047C105.597 69.414 98.9363 65.1219 94.1608 65.1219H90.5375C90.6066 64.7195 90.6446 64.2995 90.6446 63.8738C90.6446 62.5382 90.3846 60.9102 88.4598 58.9552C87.18 57.6548 87.18 53.4283 87.18 51.8369C87.18 44.9118 88.2787 43.6559 90.0984 41.5747C90.7729 40.8037 91.5369 39.9297 92.3488 38.6929C94.3567 35.6341 94.6562 31.4605 94.6562 29.2454C94.6562 26.7765 93.6618 23.5317 93 21.4978C93.9071 19.5166 94.8388 17.2318 94.8388 13.8756C94.8388 12.1144 94.609 10.8035 94.3694 9.91407C94.7267 8.8703 95.3251 6.74893 95.3251 5.10962C95.3251 2.05371 93.6843 0 91.243 0C88.8827 0 86.9453 1.63367 85.3335 3.40618C84.3263 3.25254 82.5658 3.0249 80.9709 3.0249C79.9758 3.0249 78.6388 3.0693 77.3998 3.25536C76.1284 1.61534 74.6801 0.123336 72.0971 0.123336C69.4267 0.123336 67.8325 1.94166 67.8325 4.98628C67.8325 6.65237 68.063 7.67923 68.2483 8.50452C68.3597 9.00209 68.44 9.36082 68.44 9.73929C68.44 10.11 68.3322 10.5625 68.206 11.0868C68.0122 11.8931 67.7719 12.8967 67.7719 14.1836C67.7719 15.8969 68.0397 17.5038 68.7064 19.7006C67.3462 21.0608 65.6103 23.4993 65.1226 24.8617C64.8365 25.6616 64.4735 25.9223 64.3735 25.9266L64.0422 25.9385C61.6601 26.0189 55.3319 26.2317 49.5224 32.0334C43.3303 38.2164 44.226 45.5003 44.761 49.8516C44.878 50.8002 44.9787 51.6191 44.9787 52.2076C44.9787 54.9316 44.6778 55.3685 40.5506 55.3685C36.3149 55.3685 33.4916 54.2649 30.502 53.0964C27.2283 51.8165 23.8425 50.4922 18.5476 50.4922C13.9482 50.4922 9.99723 52.1336 7.12246 55.2382C4.48871 58.0812 3.03899 61.8934 3.03899 65.9726C3.03899 72.3233 5.24353 75.3144 9.87742 79.2513C11.0932 80.2845 12.287 81.1838 13.4415 82.0527C16.1112 84.0621 18.4165 85.7979 18.4165 87.4534C18.4165 87.9094 18.291 90.183 15.8123 90.183C14.2914 90.183 13.5373 88.9673 12.8135 87.0066C11.8649 84.4391 9.4306 82.7138 6.75597 82.7138C3.63946 82.7138 0 84.6181 0 89.9843C0 98.2344 8.14086 103.983 15.448 103.983C20.1939 103.983 24.6798 101.906 27.6991 98.536C28.351 101.814 30.9037 103.983 34.3507 103.983C38.4553 103.983 41.1067 101.371 41.1067 97.3302V89.7242H42.851V97.1448C42.851 101.594 46.2192 103.921 49.5464 103.921C52.7418 103.921 55.0704 102.279 55.9902 99.5657C56.7703 102.08 58.9615 103.613 62.0068 103.613H74.4066C77.1045 103.613 79.0899 102.613 80.1379 100.828C81.3614 102.623 83.4447 103.736 85.9551 103.736H92.5201C96.7388 103.736 99.8638 102.358 101.855 100.698C103.124 102.954 105.705 104.168 107.654 104.168C110.744 104.168 113.252 102.544 114.201 99.9294C114.502 99.0999 114.746 98.3838 115.004 97.6262L115.026 97.5634H117.733C117.985 98.1935 118.313 99.0456 118.531 99.744C119.218 101.934 121.509 104.292 124.916 104.292C128.922 104.292 131.612 100.852 131.612 97.6389C131.612 96.4675 131.289 95.1143 130.377 92.4693Z" fill="black"/>
<path d="M92.241 11.3011C92.0211 10.1326 91.8766 9.36085 92.3544 8.33329C93.2361 6.43744 93.3869 4.44575 92.7392 3.2582C92.42 2.67324 91.909 2.30534 91.3015 2.22148L91.2846 2.21936L91.2684 2.21795C88.9969 2.0037 87.3357 4.09477 86.5055 5.45357C84.8944 5.10189 81.4487 5.04974 76.2285 5.29782C76.0029 5.03564 75.7936 4.75444 75.5892 4.48098C74.7379 3.33854 73.7723 2.04387 71.6707 2.23909C71.0498 2.29618 70.5402 2.60346 70.1984 3.12641C69.0341 4.90878 70.2294 8.80901 70.4986 9.62232C70.5318 9.83375 70.3774 10.5569 70.2534 11.139C70.0159 12.2568 69.7199 13.6473 69.7643 15.0343C69.8136 16.6059 70.4289 18.7773 70.8785 20.3631L70.8968 20.4293C68.3653 22.7755 67.4026 24.9364 66.7584 26.3882C66.1988 27.6526 66.043 27.8732 65.7174 27.8647H65.6759C60.469 28.0021 55.9119 29.5837 52.498 32.4373C49.2666 35.1387 47.2636 38.8677 46.8577 42.9384C46.7245 44.2677 46.871 45.8992 47.0261 47.6266C47.511 53.0322 47.5512 56.8923 43.6213 57.3243C37.6068 57.9854 33.3732 56.4123 29.2785 54.8907C26.0816 53.7032 23.0616 52.5812 19.3327 52.4642C15.4437 52.3416 11.8416 53.675 9.19024 56.2192C6.52267 58.779 4.97146 62.3952 4.93411 66.1418C4.86927 72.749 9.94647 76.6788 14.426 80.1463C19.0775 83.7463 21.8367 86.1355 20.048 89.7306C19.1847 91.465 17.3959 92.5011 15.4909 92.37C13.3801 92.2241 11.6809 90.6848 10.8288 88.1469C9.78367 85.0368 7.4121 84.5674 5.69808 85.1108C3.36951 85.848 1.42856 88.5642 2.35252 91.6666C3.37796 95.1059 7.37051 101.601 15.1456 101.568C19.6738 101.549 23.8475 99.6721 26.5975 96.4203C28.1261 94.6118 29.122 92.4545 29.554 90.0985V96.8974C29.554 99.5432 31.6789 101.696 34.2901 101.696C36.9013 101.696 39.0262 99.5432 39.0262 96.8974C39.0262 96.8988 39.041 90.0992 39.0459 87.7558H44.8786L44.8716 96.8974C44.8716 99.5432 46.9958 101.696 49.607 101.696C52.2189 101.696 54.3431 99.5432 54.3431 96.8974V71.5897C54.3431 69.4866 52.9998 67.6972 51.1371 67.0509H61.4796C59.4083 67.1693 57.757 68.908 57.757 71.0343V97.5768C57.757 99.78 59.5274 101.572 61.703 101.572H75.0754C77.2511 101.572 79.0208 99.78 79.0208 97.5768C79.0208 95.3737 77.2511 93.5822 75.0754 93.5822H67.1066L67.0988 87.3625C68.9615 87.3661 73.4932 87.3745 73.4946 87.3745C75.6703 87.3745 77.4407 85.5823 77.4407 83.3799C77.4407 81.1767 75.6703 79.3845 73.4946 79.3845C73.4946 79.3845 68.3463 79.3845 67.0988 79.3845L67.1059 75.029H75.0754C77.2511 75.029 79.0208 73.2367 79.0208 71.0343C79.0208 68.908 77.3702 67.1693 75.2989 67.0509H84.8098C86.4061 67.0509 87.6472 66.325 88.2153 65.0606C88.7347 63.9013 88.5768 62.4593 87.8403 61.6312L87.7367 61.5149C86.2743 59.8735 85.0114 58.4555 85.0114 54.6293C85.0114 54.0675 84.9909 53.4396 84.9691 52.775C84.8521 49.1299 84.6907 44.1366 87.4837 40.9341C92.6088 35.0584 94.1826 31.0045 90.5551 21.378C93.1212 16.0041 92.6145 13.2907 92.241 11.3011Z" fill="#9F8859"/>
<path d="M29.554 71.5897V84.5308C28.0282 78.507 24.4515 75.8691 20.3116 72.8167C18.9888 71.8413 17.6215 70.8327 16.2253 69.6473C15.3345 68.889 14.4782 67.9573 14.2541 66.2785C14.1152 65.2404 14.5134 64.1635 15.3458 63.3262C16.4967 62.1682 18.2537 61.6439 20.1678 61.8877C22.2695 62.1548 24.3126 62.8709 26.6779 63.7004C30.9361 65.1931 36.236 67.0509 44.4389 67.0509H48.0776C46.2149 67.6972 44.8716 69.4866 44.8716 71.5897C44.8716 71.5904 44.8766 77.0658 44.8787 79.142H39.046L39.0262 71.5876C39.0262 68.9447 36.9013 66.793 34.2901 66.793C31.6789 66.793 29.554 68.9447 29.554 71.5897Z" fill="black"/>
<path d="M100.043 83.1846C102.284 81.6087 103.334 79.3055 103.334 75.9727C103.334 71.2796 98.7066 67.163 93.4313 67.163H85.5294C83.0859 67.163 81.0978 69.1765 81.0978 71.6517V96.9594C81.0978 99.4346 83.0859 101.448 85.5294 101.448H93.4313C99.7179 101.448 103.942 97.1638 103.942 90.787C103.942 87.5796 102.491 84.7739 100.043 83.1846Z" fill="#9F8859"/>
<path d="M93.4313 99.8786H85.5294C83.9514 99.8786 82.6673 98.5692 82.6673 96.9595V71.6517C82.6673 70.042 83.9514 68.7332 85.5294 68.7332H93.4313C97.87 68.7332 101.764 72.1161 101.764 75.9727C101.764 78.9292 100.864 80.8187 98.8461 82.0993C98.4092 82.377 97.9581 82.6631 97.9708 83.2326C97.9842 83.7964 98.4381 84.0564 98.8764 84.308C99.6961 84.7774 102.371 86.6331 102.371 90.787C102.371 96.3097 98.8623 99.8786 93.4313 99.8786Z" fill="black"/>
<path d="M92.2762 81.2014C93.9353 81.2014 95.614 79.9144 95.614 77.4541C95.614 75.3538 94.2362 73.8294 92.3375 73.8294H88.9997V81.2014H92.2762Z" fill="#9F8859"/>
<path d="M94.0445 77.4541C94.0445 79.173 92.9331 79.6318 92.2762 79.6318H90.5693V75.3997H92.3376C93.597 75.3997 94.0445 76.5062 94.0445 77.4541Z" fill="black"/>
<path d="M92.3375 86.237H88.9997V94.9628H92.2762C94.4913 94.9628 96.1616 93.0543 96.1616 90.5234C96.1616 88.4592 94.9649 86.237 92.3375 86.237Z" fill="#9F8859"/>
<path d="M92.2762 93.3926H90.5693V87.8065H92.3376C94.528 87.8065 94.5914 90.245 94.5914 90.5234C94.5914 92.186 93.6174 93.3926 92.2762 93.3926Z" fill="black"/>
<path d="M128.411 93.6082C128.239 93.1614 128.062 92.6991 127.91 92.2586L126.937 89.4726C125.22 84.5589 121.646 74.3355 120.86 71.9047C119.993 69.2181 119.115 67.163 116.407 67.163C113.699 67.163 112.82 69.2181 111.954 71.9047C111.17 74.3319 107.6 84.5441 105.885 89.4515L104.904 92.2586C104.752 92.6991 104.575 93.1614 104.403 93.6075C103.87 94.9952 103.367 96.3061 103.367 97.4535C103.367 100.04 105.366 102.066 107.918 102.066C110.943 102.066 111.784 99.892 112.237 98.7242C112.591 97.8108 113.192 96.1292 113.495 95.2757H119.319C119.622 96.1292 120.223 97.8108 120.577 98.7242C121.03 99.892 121.872 102.066 124.896 102.066C127.448 102.066 129.447 100.04 129.447 97.4535C129.447 96.3061 128.944 94.9959 128.411 93.6082Z" fill="#9F8859"/>
<path d="M124.896 100.495C123.087 100.495 122.572 99.5263 122.041 98.1576C121.596 97.0081 120.717 94.5202 120.624 94.2545L120.471 93.7055H112.383L112.2 94.2299C112.19 94.2566 111.242 96.9482 110.773 98.1576C110.242 99.5263 109.728 100.495 107.918 100.495C106.219 100.495 104.938 99.1873 104.938 97.4535C104.938 96.5972 105.411 95.3631 105.869 94.1707C106.045 93.7119 106.227 93.2375 106.389 92.7717L107.367 89.9695C109.216 84.6795 112.658 74.8323 113.448 72.3868C114.318 69.6903 114.896 68.7332 116.407 68.7332C117.918 68.7332 118.496 69.6903 119.366 72.3868C120.157 74.8359 123.735 85.072 125.455 89.9906L126.425 92.7717C126.587 93.2375 126.769 93.7126 126.946 94.1707C127.404 95.3638 127.877 96.5972 127.877 97.4535C127.877 99.1873 126.595 100.495 124.896 100.495Z" fill="black"/>
<path d="M114.983 88.2435L116.58 83.7844L118.322 88.2435H114.983Z" fill="#9F8859"/>
<path d="M77.4506 71.0343C77.4506 72.3712 76.3849 73.4594 75.0755 73.4594H65.5385L65.5265 80.9547H73.4947C74.8048 80.9547 75.8705 82.0429 75.8705 83.3798C75.8705 84.7168 74.8048 85.8043 73.4947 85.8043L65.5265 85.7895L65.5385 95.1517H75.0755C76.3849 95.1517 77.4506 96.2399 77.4506 97.5768C77.4506 98.9138 76.3849 100.002 75.0755 100.002H61.7031C60.3929 100.002 59.3273 98.9138 59.3273 97.5768V71.0343C59.3273 69.6973 60.3929 68.6099 61.7031 68.6099H75.0755C76.3849 68.6099 77.4506 69.6973 77.4506 71.0343Z" fill="black"/>
<path d="M52.7729 71.5897V96.8974C52.7729 98.677 51.3528 100.125 49.607 100.125C47.8613 100.125 46.4412 98.677 46.4412 96.8974L46.4496 86.1848H37.4793L37.456 96.896C37.456 98.677 36.0359 100.125 34.2901 100.125C32.5444 100.125 31.1243 98.677 31.1243 96.8974V71.5897C31.1243 69.8101 32.5444 68.3625 34.2901 68.3625C36.0359 68.3625 37.456 69.8101 37.456 71.5897L37.48 80.7123H46.4496L46.4412 71.5889C46.4412 69.8101 47.8613 68.3625 49.607 68.3625C51.3528 68.3625 52.7729 69.8101 52.7729 71.5897Z" fill="black"/>
<path d="M90.6975 11.5907C91.057 13.5028 91.5038 15.8828 88.9976 20.9938L88.8468 21.3011L88.9701 21.6211C92.4404 30.6619 91.3473 34.1153 86.3004 39.9023C83.1022 43.5699 83.2741 48.9199 83.4003 52.8264C83.4214 53.4776 83.4412 54.0929 83.4412 54.6292C83.4412 59.0531 85.029 60.8355 86.5647 62.5594L86.6669 62.6742C86.9538 62.997 87.0792 63.7547 86.7825 64.4179C86.4703 65.1135 85.7881 65.4807 84.8098 65.4807H44.4389C36.5031 65.4807 31.3435 63.6722 27.1973 62.219C24.7482 61.3598 22.6324 60.6184 20.3659 60.3302C17.9647 60.0243 15.7292 60.7129 14.2322 62.2197C13.0531 63.4058 12.4943 64.9605 12.6979 66.4864C12.9946 68.7092 14.1956 69.9821 15.209 70.8433C16.6461 72.064 18.0359 73.0894 19.3799 74.0803C23.4366 77.0714 26.6419 79.4359 28.031 84.9113C28.6893 88.961 27.7794 92.5898 25.398 95.4061C22.9461 98.307 19.2065 99.9808 15.1386 99.9977C8.29309 100.027 4.7664 94.2679 3.85724 91.219C3.20532 89.03 4.55144 87.1208 6.17242 86.607C7.59818 86.1552 8.75331 86.8988 9.34039 88.6473C10.3891 91.7702 12.6486 93.7478 15.3824 93.936C17.9238 94.1107 20.3067 92.735 21.4541 90.4304C23.9074 85.4991 19.7689 82.2959 15.3874 78.9052C11.1968 75.6611 6.44658 71.985 6.50437 66.1565C6.5375 62.83 7.91251 59.6212 10.277 57.3518C12.6556 55.0704 15.7701 53.9223 19.2834 54.033C22.7558 54.1422 25.658 55.2205 28.7316 56.363C32.9976 57.9473 37.4088 59.5866 43.7933 58.8847C46.3601 58.6028 47.9621 57.1439 48.5541 54.5496C49.0347 52.443 48.8085 49.9235 48.59 47.4863C48.442 45.8351 48.3018 44.2761 48.4195 43.0949C48.7852 39.435 50.5909 36.0781 53.5051 33.6424C56.6449 31.0172 60.8679 29.5625 65.7175 29.4342H65.6759C67.1087 29.4723 67.6119 28.3376 68.194 27.0253C68.8502 25.546 69.7488 23.5198 72.3029 21.2722L72.6743 20.9452L72.3889 19.9353C71.9618 18.4278 71.3768 16.3635 71.3331 14.9842C71.2951 13.7882 71.5692 12.5006 71.7891 11.466C72.0189 10.3877 72.1704 9.67515 71.9949 9.14657C71.3557 7.22465 71.0012 4.76921 71.5128 3.9855C71.5918 3.86499 71.6735 3.81565 71.8159 3.80226C72.9858 3.69373 73.4834 4.28221 74.3312 5.41972C74.6322 5.82426 74.9444 6.2429 75.3285 6.64321L75.5766 6.90116L75.9339 6.88354C82.365 6.56569 85.8811 6.75527 86.5119 7.0844L87.1997 7.44243L87.5662 6.75879C87.8474 6.23303 89.3394 3.62607 91.1084 3.78041C91.1627 3.79028 91.2599 3.82552 91.3607 4.01017C91.6941 4.62051 91.656 6.11111 90.9308 7.67077C90.2401 9.15503 90.4621 10.3383 90.6975 11.5907Z" fill="black"/>
<path d="M76.7881 11.6711C76.2715 12.1024 76.3948 14.0638 76.4406 14.2266C76.4878 14.3936 76.2757 14.2026 76.2757 14.2026C75.5167 12.9819 75.936 11.6908 76.0319 11.435C75.3715 11.3173 74.6463 11.4004 73.9126 11.7183C74.5046 13.97 76.5174 15.0096 78.6607 14.0807C78.352 12.9058 77.6648 12.0791 76.7881 11.6711Z" fill="#9F8859"/>
<path d="M85.54 11.4343C85.6562 11.7507 86.0481 13.0207 85.313 14.2026C85.313 14.2026 85.1016 14.3936 85.1481 14.2266C85.1946 14.0624 85.3328 12.0728 84.8035 11.6612C83.9155 12.065 83.2184 12.8953 82.9069 14.0807C85.0501 15.0096 87.063 13.9701 87.655 11.7183C86.9227 11.4004 86.1989 11.3173 85.54 11.4343Z" fill="#9F8859"/>
</svg>
