<svg width="130" height="95" viewBox="0 0 130 95" fill="none" xmlns="http://www.w3.org/2000/svg">
<g clip-path="url(#clip0_85_384)">
<path d="M24.731 39.7262C24.6923 39.7803 24.611 39.7957 24.4872 39.7726" stroke="#CD7998" stroke-width="2"/>
<path d="M24.4872 39.7726C24.4305 39.5589 24.2938 39.3709 24.0771 39.2087" stroke="#D191C7" stroke-width="2"/>
<path d="M24.0771 39.2087L24.2125 39.1469C24.2919 39.1106 24.3565 39.0483 24.3955 38.9704C24.4346 38.8924 24.4458 38.8035 24.4273 38.7183C24.4087 38.6331 24.3616 38.5568 24.2937 38.502C24.2258 38.4473 24.1412 38.4173 24.0539 38.4171L18.1149 38.5059C17.9756 38.5084 17.9034 38.5792 17.8982 38.7183C17.7899 41.6455 17.1321 44.5689 16.6524 47.4807C16.6454 47.516 16.6266 47.5479 16.599 47.5711C16.5714 47.5943 16.5368 47.6074 16.5007 47.6083C16.4647 47.6092 16.4294 47.5978 16.4007 47.576C16.372 47.5542 16.3516 47.5233 16.3429 47.4884L14.6173 39.3941C14.5668 39.1556 14.436 38.9415 14.2466 38.7876C14.0572 38.6337 13.8207 38.5493 13.5765 38.5484L7.27768 38.5097C7.20544 38.5097 7.13476 38.5291 7.07335 38.5659C7.01194 38.6027 6.96216 38.6554 6.92946 38.7183C5.88869 40.738 10.2065 54.0264 10.8449 56.0925C11.4201 57.9513 11.9979 59.4496 12.5783 60.5876C12.6402 60.7086 12.7395 60.7729 12.8762 60.7807L15.2595 60.8811" stroke="#791767" stroke-width="2"/>
<path d="M15.2595 60.8811C15.3343 60.9789 15.4517 61.0266 15.6116 61.024C15.7535 61.024 15.8063 61.0909 15.7702 61.2248C15.5716 61.9791 15.7573 62.6356 16.3274 63.1943C16.3877 63.252 16.4283 63.3276 16.4435 63.4106C16.7762 65.0943 17.9021 65.7856 18.6798 66.9905C19.874 68.8467 21.2785 70.5317 22.8932 72.0455C23.2027 72.3365 23.6953 72.9106 24.3711 73.7679C25.0134 74.5789 26.1199 75.4491 27.6908 76.3785C28.4723 76.8457 28.8708 77.6451 29.8265 78.0159C30.2676 78.1858 30.4223 78.6608 30.8634 78.8732C32.5374 79.6842 34.1637 80.5788 35.7423 81.5571C36.0802 81.7657 36.5199 81.9832 37.0616 82.2098C38.2262 82.6925 39.2167 83.4571 40.3271 83.8858C41.894 84.4959 43.1824 85.3069 44.8307 85.7008C46.8271 86.1797 48.839 86.9134 50.7348 87.2803C54.168 87.9471 57.6191 88.5109 61.0884 88.9718C61.2225 88.9898 61.3476 88.964 61.4637 88.8945C62.342 88.3616 64.1565 88.6821 65.1857 88.6937C66.3967 88.7053 68.5982 88.3886 70.3277 88.574C71.0138 88.6487 71.6483 88.6242 72.2312 88.5006C73.7118 88.1891 75.2065 87.969 76.7155 87.8403C79.6792 87.5892 82.1515 86.6238 84.6083 85.8978C88.2375 84.8203 91.4217 83.4146 94.7143 81.7463C95.7551 81.2173 96.8268 80.2982 98.0262 79.7537C99.1366 79.2516 99.6164 78.6144 100.533 77.9309C101.065 77.5344 101.67 77.0491 102.348 76.475C103.273 75.6988 104.364 75.1388 105.18 74.3935C106.94 72.7909 108.179 71.2539 110.117 69.1878C111.213 68.0164 112.098 66.6918 112.771 65.214C113.572 63.4608 113.901 63.4415 113.615 61.2055" stroke="#B43F9A" stroke-width="2"/>
<path d="M113.615 61.2055C117.435 61.5814 120.089 60.2272 121.577 57.1429C123.427 53.312 122.107 49.7205 118.486 47.7858C117.217 47.1087 116.025 46.3016 114.911 45.3644C114.86 45.3224 114.82 45.269 114.793 45.2081C114.766 45.1471 114.754 45.0804 114.756 45.013C114.853 43.0628 118.687 44.9705 119.608 45.2911C119.825 45.3666 120.064 45.3572 120.274 45.2647C120.484 45.1722 120.651 45.0036 120.741 44.7929L122.463 40.7959C122.501 40.709 122.51 40.6122 122.489 40.5202C122.467 40.4282 122.416 40.3461 122.343 40.2862C118.671 37.1967 111.939 37.9884 108.515 41.0624C108.415 41.1525 108.345 41.2594 108.306 41.3829C108.017 42.2814 107.594 43.1079 107.037 43.8622C106.957 43.9703 106.902 43.96 106.871 43.8313C106.585 42.7165 106.1 41.688 105.416 40.7457C105.359 40.6685 105.283 40.635 105.188 40.6453C105.139 40.6479 105.086 40.6556 105.029 40.6685" stroke="#791767" stroke-width="2"/>
<path d="M105.029 40.6685C103.741 38.027 103.799 36.6213 104.518 33.8215C105.545 29.8387 106.612 25.8675 107.718 21.9079C109.428 15.7986 106.403 12.0217 100.119 14.3658C94.5685 16.4409 89.0216 18.552 83.4786 20.6992C83.3535 20.7467 83.2167 20.7494 83.0917 20.7069C70.7442 16.3251 58.402 16.3263 46.0649 20.7108C45.9488 20.752 45.8327 20.7507 45.7167 20.7069C40.3671 18.637 35.0097 16.5954 29.6446 14.5821C27.7617 13.8767 26.3405 13.5471 25.381 13.5935C20.5601 13.8329 20.4634 18.5597 21.4732 22.1087C22.5952 26.0529 23.6566 30.0112 24.6574 33.9837C25.212 36.1901 25.2365 38.1043 24.731 39.7262" stroke="#D08BBD" stroke-width="2"/>
<path d="M105.029 40.6685L105.099 41.4486" stroke="#A67F96" stroke-width="2"/>
<path d="M105.099 41.4486L103.973 40.5488" stroke="#FEF9F5" stroke-width="2"/>
<path d="M103.973 40.5488C104.135 40.5488 104.228 40.5024 104.251 40.4098C104.267 40.3454 104.237 40.272 104.162 40.1896C103.719 39.7005 103.293 39.2976 102.886 38.9809" stroke="#A67F96" stroke-width="2"/>
<path d="M102.886 38.9809C102.811 36.6844 102.949 34.9543 103.3 33.7906C104.592 29.4937 105.811 25.1763 106.956 20.8382C107.826 17.5364 106.913 14.165 102.696 14.7713C101.592 14.9284 100.9 15.0661 100.618 15.1845C96.6075 16.8811 92.5566 18.4709 88.4658 19.9538C86.9917 20.4906 85.061 21.599 83.7571 21.904C82.9679 22.0894 82.0161 21.4561 81.4164 21.29C79.2961 20.6927 77.163 20.1392 75.017 19.6295C73.717 19.3205 72.2467 19.3321 70.8616 19.0888C67.3756 18.4864 64.0598 18.5018 60.5506 18.9227C59.711 19.0232 58.7128 18.803 57.761 18.9768C55.4344 19.4016 53.1207 19.8843 50.8199 20.425C49.4696 20.7416 46.6491 22.2014 45.3839 21.7148C40.0343 19.65 34.6834 17.5956 29.3313 15.5514C24.8199 13.829 20.8929 14.8795 22.2741 20.6567C23.1356 24.2662 24.1235 27.8396 25.2378 31.377C25.675 32.7673 26.8473 38.0116 25.4893 39.7301C25.2004 40.0956 24.9476 40.0944 24.731 39.7262" stroke="#FAE1C6" stroke-width="2"/>
<path d="M113.615 61.2055C111.298 61.0948 109.026 60.5297 106.797 59.5102" stroke="#8A3373" stroke-width="2"/>
<path d="M106.805 56.4477C107.365 55.9766 107.772 55.378 108.028 54.652C108.067 54.5404 108.149 54.4479 108.256 54.3933C108.862 54.0766 109.439 54.0264 109.985 54.2427C110.837 54.5786 115.282 56.1349 115.004 54.2813C114.994 54.2178 114.971 54.1568 114.938 54.1017C114.904 54.0467 114.859 53.9988 114.806 53.9608C112.918 52.6246 110.562 51.6128 109.038 50.1453C108.269 49.4064 107.53 48.571 106.821 47.639" stroke="#791767" stroke-width="2"/>
<path d="M102.886 38.9809L101.756 38.475C101.672 38.4369 101.58 38.4197 101.489 38.4248C100.847 38.4711 100.502 38.2124 100.456 37.6486" stroke="#A36D71" stroke-width="2"/>
<path d="M100.456 37.6486C100.824 32.0953 102.468 27.9091 104.429 21.0197C104.809 19.6913 105.524 15.7986 102.522 16.9803C96.1794 19.4698 89.8212 21.9427 83.4476 24.3988C83.3341 24.4425 83.2193 24.4425 83.1033 24.3988C70.7533 19.7466 58.4084 19.7402 46.0687 24.3795C45.9578 24.4232 45.8456 24.4232 45.7321 24.3795C39.9311 22.1679 34.1443 19.9178 28.3717 17.6291C26.3095 16.8104 23.458 16.0612 24.4253 19.8148C25.2094 22.8631 26.294 26.7802 27.6792 31.5663C28.1705 33.2654 29.1417 36.8646 28.4491 38.6604C27.2935 41.6545 26.4424 44.7311 25.8955 47.89" stroke="#AB7073" stroke-width="2"/>
<path d="M25.8955 47.89C24.9863 45.3451 24.8316 42.4488 24.4872 39.7726" stroke="#FBE7D0" stroke-width="2"/>
<path d="M103.973 40.5488C100.731 37.7799 96.5753 38.0154 92.5941 38.4248C92.5036 38.4333 92.4194 38.4749 92.3574 38.5418C92.2953 38.6087 92.2598 38.6962 92.2574 38.7878L92.1762 43.5957" stroke="#A785A0" stroke-width="2"/>
<path d="M92.1762 43.5957C90.4119 45.2293 88.1098 46.4264 86.0167 48.3921C85.9753 48.4316 85.9486 48.4837 85.9409 48.5399C85.9331 48.5961 85.9449 48.6529 85.9741 48.701L89.197 54.011C89.3028 54.1835 89.4189 54.1912 89.5453 54.0341C89.8161 53.702 89.8973 53.3081 89.789 52.8524C89.7606 52.7366 89.7619 52.622 89.7929 52.5087C90.9587 48.096 93.8567 45.7056 98.4866 45.3374C98.5393 45.3328 98.5902 45.3155 98.6346 45.2869C98.6791 45.2582 98.7159 45.2192 98.7419 45.1731C98.7678 45.1271 98.7821 45.0754 98.7834 45.0226C98.7848 44.9698 98.7732 44.9175 98.7497 44.8701C98.4866 44.3526 98.0688 44.0373 97.4961 43.924C97.3775 43.9008 97.3117 43.83 97.2988 43.7116C97.2782 43.5391 97.3091 43.3344 97.3917 43.0976" stroke="#680D58" stroke-width="2"/>
<path d="M97.3917 43.0976C98.7484 43.4554 99.726 44.2394 100.324 45.4494C100.337 45.4754 100.344 45.504 100.345 45.5331C100.345 45.5621 100.338 45.5908 100.326 45.617C100.313 45.6431 100.294 45.666 100.271 45.6838C100.248 45.7016 100.221 45.7139 100.193 45.7197C96.3548 46.4921 92.9229 47.3571 91.3057 51.1648C89.0655 56.4555 92.8958 62.1014 98.9277 60.4177C99.2965 60.3147 99.9891 59.9427 101.005 59.3016C101.142 59.2167 101.223 59.2527 101.249 59.4098L101.35 60.0083" stroke="#A785A0" stroke-width="2"/>
<path d="M101.35 60.0083C100.05 60.1705 98.9315 60.549 98.0146 61.6264C90.6866 70.2305 80.0119 74.7874 68.7762 75.0963C63.789 75.2354 58.3723 75.3628 53.5012 74.324C43.5229 72.1961 35.6804 67.925 29.7646 59.5256C29.713 59.4535 29.6795 59.3711 29.664 59.2784" stroke="#A36D71" stroke-width="2"/>
<path d="M29.664 59.2784C29.7311 59.0854 29.7246 58.9785 29.6446 58.9579" stroke="#A785A0" stroke-width="2"/>
<path d="M30.2946 58.8382C30.3385 59.1523 30.4933 59.4947 30.7589 59.8655C33.2738 63.3565 35.9667 65.0248 39.2631 67.4655C43.5732 70.6553 49.3071 71.8756 54.4452 73.2041C55.3313 73.4319 56.3101 73.3431 57.2619 73.5516C59.1152 73.961 60.8214 73.8181 62.6476 73.9378C65.8396 74.1464 69.4417 74.1386 72.5563 73.4049C74.5256 72.9453 76.5065 72.8642 78.4333 72.2579C80.097 71.7405 81.7414 71.4894 83.3393 70.7171C86.0631 69.4041 88.7753 68.3073 91.5958 65.9207C92.6753 65.0094 94.1649 64.4494 94.8961 63.3835C94.9684 63.2754 95.0573 63.1814 95.1631 63.1016L95.6545 62.727C95.7435 62.6589 95.8125 62.5678 95.854 62.4637C95.8955 62.3596 95.908 62.2463 95.8901 62.136C95.8722 62.0257 95.8247 61.9225 95.7525 61.8375C95.6803 61.7525 95.5862 61.6889 95.4804 61.6535L93.3756 60.939C93.2673 60.9004 93.1628 60.9094 93.0622 60.9661C91.6771 61.7191 86.9994 61.3522 85.3512 61.1514C85.2313 61.1366 85.1202 61.079 85.0378 60.9892C83.9957 59.8487 83.1471 58.5821 82.492 57.1892C82.4786 57.1616 82.4567 57.1389 82.4295 57.1246C82.4022 57.1104 82.3711 57.1052 82.3407 57.11C82.3103 57.1148 82.2823 57.1292 82.2608 57.1511C82.2392 57.173 82.2253 57.2013 82.2211 57.2317L81.8652 60.4177C81.8468 60.5796 81.7723 60.7302 81.6544 60.8436C81.5366 60.957 81.3827 61.0262 81.219 61.0394C78.9905 61.2222 76.7671 61.1746 74.5488 60.8966C74.4293 60.8822 74.3178 60.8282 74.2317 60.7429C74.1456 60.6577 74.0898 60.5461 74.0729 60.4254L73.775 58.2165C73.7675 58.16 73.7421 58.1075 73.7025 58.0665C73.6629 58.0256 73.6111 57.9983 73.5549 57.9888C73.4987 57.9793 73.4409 57.9881 73.39 58.0137C73.3391 58.0394 73.2977 58.0807 73.272 58.1315C72.9212 58.8241 72.3899 59.4033 71.678 59.8693C67.1512 62.8236 63.642 60.8579 58.9643 60.1898" stroke="#680D58" stroke-width="2"/>
<path d="M58.9643 60.1898L58.9527 39.5563M105.099 41.4486C106.198 43.4953 106.772 45.5588 106.821 47.639" stroke="#A785A0" stroke-width="2"/>
<path d="M106.821 47.639L106.805 56.4477" stroke="#D191C7" stroke-width="2"/>
<path d="M106.805 56.4478L106.797 59.5102" stroke="#A785A0" stroke-width="2"/>
<path d="M106.797 59.5102L106.871 59.877C106.904 60.0367 106.84 60.1216 106.677 60.1319L102.518 60.4215" stroke="#E2ADD3" stroke-width="2"/>
<path d="M102.518 60.4215C102.201 60.4782 101.918 60.4537 101.671 60.3482" stroke="#F9DBEA" stroke-width="2"/>
<path d="M101.671 60.3482C101.617 60.2349 101.51 60.1216 101.35 60.0083" stroke="#FBE7D0" stroke-width="2"/>
<path d="M97.3917 43.0975C95.7125 42.8658 93.974 43.0319 92.1762 43.5957" stroke="#C087B8" stroke-width="2"/>
<path d="M24.2473 60.827C24.0926 61.3368 23.8308 61.8517 23.4619 62.3717C21.5583 65.0518 25.7563 69.8443 27.6443 71.2616C30.2134 73.1963 31.8345 74.6599 34.7092 76.139C35.2818 76.4325 35.7384 76.9925 36.4426 77.3555C40.0756 79.2323 43.3604 80.3136 46.8658 81.8313C47.3688 82.0501 47.922 82.2123 48.5256 82.3179C49.9726 82.5805 51.5048 83.0516 52.7854 83.2563C55.5479 83.6965 58.442 84.2603 61.0652 84.438C66.1104 84.7727 71.3233 84.4972 76.7039 83.6116C78.9892 83.2357 80.9508 82.7826 82.5887 82.2522C83.289 82.0244 84.2292 81.9317 85.003 81.5725C86.3842 80.9353 87.8119 80.1475 89.2241 79.6996C94.7027 77.954 98.7652 74.5209 103.234 70.7325C104.766 69.4311 105.757 67.8323 106.863 66.1988C108.101 64.3605 108.511 62.7618 107.289 60.9042C107.263 60.8639 107.228 60.8291 107.189 60.8021C107.149 60.7751 107.104 60.7563 107.057 60.747C107.009 60.7376 106.961 60.7378 106.913 60.7476C106.866 60.7573 106.821 60.7765 106.782 60.8038C105.668 61.5608 104.31 61.1746 102.87 61.2016C102.721 61.2042 102.641 61.1321 102.63 60.9853L102.615 60.8116" stroke="#D371B1" stroke-width="2"/>
<path d="M102.615 60.8116L102.518 60.4215" stroke="#DC89BD" stroke-width="2"/>
<path d="M100.456 37.6486C100.322 37.543 100.124 37.5173 99.864 37.5713" stroke="#570E42" stroke-width="2"/>
<path d="M99.864 37.5713C99.9001 35.5992 100.127 33.6735 100.545 31.7941C100.673 31.211 100.514 30.7205 100.731 30.0988C101.222 28.7047 101.152 27.3299 101.644 25.9821C102.188 24.4863 102.7 22.6777 103.18 20.5563C103.385 19.6642 104.631 18.2392 102.766 17.8569C102.634 17.8286 102.518 17.8569 102.418 17.9419C101.657 18.5675 100.693 19.085 99.5274 19.4943C97.3014 20.2795 94.3222 21.4291 90.5899 22.9429C89.2202 23.499 87.2509 23.8736 85.6568 24.839C85.5811 24.8843 85.4951 24.9071 85.4092 24.9047C84.6767 24.8686 84.0306 25.0862 83.4708 25.5573C83.4245 25.5955 83.3683 25.6197 83.3087 25.6272C83.2491 25.6348 83.1886 25.6252 83.1342 25.5998C79.9178 24.0963 76.5465 23.0986 73.0205 22.6069C72.4982 22.5297 72.1074 22.3095 71.6045 22.2516C66.9977 21.7058 63.5401 21.5307 61.2315 21.7264C59.1926 21.9002 55.9812 23.2711 53.0369 23.4719C50.9979 23.611 49.4851 24.5262 47.6821 25.0669C47.5609 25.1029 47.4539 25.1647 47.361 25.2522C46.7652 25.8135 46.1281 25.9551 45.4497 25.677C39.3289 23.1488 34.1663 21.1742 29.9619 19.753C28.6735 19.3205 27.4315 18.4091 25.9342 18.0152C25.8882 18.0029 25.8399 18.0012 25.7931 18.0103C25.7463 18.0194 25.7022 18.039 25.6641 18.0677C25.6261 18.0964 25.5951 18.1333 25.5735 18.1758C25.5519 18.2182 25.5403 18.265 25.5396 18.3126C25.5164 20.0697 26.1277 22.5297 26.5881 24.2095C27.594 27.8808 28.4336 31.2058 29.1068 34.1845C29.3906 35.4383 29.4486 36.799 29.281 38.2665C29.2778 38.2962 29.2818 38.3262 29.2926 38.3541C29.3033 38.382 29.3205 38.4069 29.3428 38.4269C29.3651 38.4468 29.3918 38.4613 29.4207 38.4689C29.4496 38.4766 29.48 38.4774 29.5092 38.4711C31.0852 38.1313 32.6625 38.1055 34.2411 38.3939C34.2989 38.4042 34.3584 38.401 34.4149 38.3847C34.4713 38.3684 34.5233 38.3393 34.5667 38.2997C34.61 38.2602 34.6437 38.2111 34.6651 38.1565C34.6865 38.1018 34.6949 38.043 34.6899 37.9845C34.5532 36.4321 34.6293 34.8771 34.9182 33.3195C35.1116 32.2807 36.1833 32.3695 36.756 32.0992C37.9476 31.5276 42.2036 29.5774 42.5402 31.852C42.8574 34.0095 42.8342 36.4347 42.4705 39.1276C42.4422 39.331 42.5311 39.425 42.7375 39.4095C43.2121 39.3735 43.6429 39.21 44.0298 38.9191C44.1079 38.8613 44.2025 38.829 44.3006 38.8264C45.6702 38.7917 47.1946 38.5059 48.4366 39.0118C49.8785 39.5988 51.0134 40.581 51.8414 41.9583C51.8711 42.0053 51.9165 42.0407 51.9696 42.0585C52.0226 42.0762 52.0801 42.0751 52.132 42.0554C52.1839 42.0357 52.227 41.9986 52.2537 41.9505C52.2805 41.9025 52.2893 41.8465 52.2786 41.7923C52.0464 40.6157 52.3302 39.6374 53.1298 38.8573C53.2252 38.7646 53.2239 38.6719 53.1259 38.5793C47.303 33.223 56.9562 28.0327 59.6607 32.8484C60.8034 34.8874 60.5351 36.7282 58.8559 38.3707C58.8143 38.4123 58.7837 38.4637 58.7668 38.5203C58.7499 38.5769 58.7473 38.637 58.7592 38.6951C58.8056 38.8959 58.9475 39.0581 59.1848 39.1817" stroke="#70105A" stroke-width="2"/>
<path d="M59.1848 39.1817C58.8959 39.4134 58.8186 39.5383 58.9527 39.5563" stroke="#570E42" stroke-width="2"/>
<path d="M58.9527 39.5563C57.111 39.8318 55.357 39.8434 53.6908 39.5911C53.6517 39.5856 53.612 39.5885 53.5741 39.5995C53.5362 39.6105 53.5012 39.6294 53.4712 39.6549C53.4412 39.6805 53.417 39.7121 53.4001 39.7477C53.3833 39.7833 53.3742 39.822 53.3735 39.8614L53.2807 60.1551C53.2807 60.1879 53.2871 60.2203 53.2996 60.2506C53.3121 60.2808 53.3304 60.3082 53.3534 60.3312C53.3765 60.3542 53.4038 60.3724 53.4338 60.3845C53.4638 60.3967 53.4959 60.4028 53.5283 60.4022L58.3182 60.3559" stroke="#AF88A2" stroke-width="2"/>
<path d="M58.3182 60.3559C58.344 60.4614 58.3465 60.5683 58.3259 60.6764C58.3027 60.8051 58.2253 60.8772 58.0938 60.8927C56.4881 61.0742 53.1607 61.2866 51.8607 60.2091" stroke="#70105A" stroke-width="2"/>
<path d="M51.8607 60.2091C51.7859 55.6677 51.7292 51.1095 51.6905 46.5345C51.6557 42.2982 49.4077 38.448 44.5289 39.8498C43.639 40.1008 42.9232 40.7612 42.0527 41.2246C41.8799 41.3198 41.7935 41.2684 41.7935 41.0701L41.8283 31.8752C41.8283 31.7413 41.7625 31.6898 41.631 31.7207C39.7351 32.1532 38.0366 32.9526 36.1872 33.4508C35.8596 33.5383 35.6958 33.7495 35.6958 34.0841C35.6829 42.7474 35.6842 51.4249 35.6997 60.1165C35.6997 60.2684 35.7758 60.3456 35.928 60.3482L41.7973 60.5104" stroke="#AF88A2" stroke-width="2"/>
<path d="M41.7973 60.5104C40.1156 61.033 38.3281 61.2081 36.4348 61.0356C35.5333 60.9545 35.0071 60.6108 35.0071 59.6646C35.0175 55.8234 34.9375 51.9771 34.7673 48.1256C34.763 48.0407 34.734 47.9589 34.6838 47.8902C34.6335 47.8215 34.5643 47.7689 34.4846 47.739C34.4048 47.709 34.3181 47.703 34.235 47.7216C34.1518 47.7402 34.076 47.7826 34.0167 47.8437C32.9488 48.9482 32.4691 51.327 32.1286 52.7829C31.5946 55.0537 30.9408 56.8108 30.2946 58.8382" stroke="#70105A" stroke-width="2"/>
<path d="M30.2946 58.8382L30.2985 58.9888C30.3011 59.1253 30.2379 59.1703 30.1089 59.124L29.6446 58.9579" stroke="#570E42" stroke-width="2"/>
<path d="M29.6446 58.9579C31.7855 52.7662 33.5305 46.4058 34.8795 39.8768C34.9723 39.4314 34.7918 39.2074 34.3378 39.2049L29.0952 39.1778C28.9637 39.1778 28.8889 39.2435 28.8708 39.3748C28.4942 42.2763 27.9706 45.4365 27.3 48.8555C27.1685 49.5171 26.9802 50.1131 26.7351 50.6435C26.6474 50.834 26.5791 50.8276 26.5301 50.6242L25.8955 47.89" stroke="#AF88A2" stroke-width="2"/>
<path d="M29.664 59.2784C29.4512 60.4331 27.7991 60.1242 26.8628 60.5219" stroke="#FBE7D0" stroke-width="2"/>
<path d="M58.9643 60.1898C58.9256 60.3211 58.7102 60.3765 58.3182 60.3559" stroke="#C087B8" stroke-width="2"/>
<path d="M99.864 37.5713C96.516 37.0925 93.2196 37.2881 89.9747 38.1583C89.3015 38.3398 88.7753 38.336 88.1408 38.5909C85.9303 39.4791 83.9377 40.7432 82.1631 42.3831C82.0341 42.5016 81.9671 42.4732 81.9619 42.2982C81.8562 38.7196 81.9129 35.1449 82.1322 31.574C82.1579 31.1827 81.9954 30.8287 81.6447 30.512C81.5518 30.427 81.4435 30.3987 81.3196 30.427C78.9673 30.9677 77.0108 31.5135 75.4503 32.0644C73.0902 32.8947 73.9414 37.1581 73.8717 39.1663C73.8666 39.3156 73.7918 39.3671 73.6473 39.3207C69.0586 37.7953 63.6226 37.5443 60.2875 41.715C60.2444 41.7681 60.1858 41.8064 60.1198 41.8246C60.0539 41.8428 59.9839 41.8401 59.9196 41.8167C59.8552 41.7933 59.7999 41.7505 59.7611 41.6942C59.7223 41.6379 59.7021 41.5709 59.7033 41.5026C59.7239 40.6633 59.5511 39.8897 59.1848 39.1817" stroke="#680D58" stroke-width="2"/>
<path d="M101.671 60.3482C101.686 60.5876 101.655 60.7665 101.578 60.885" stroke="#F5C3BB" stroke-width="2"/>
<path d="M101.578 60.8849C98.5988 64.6618 95.906 67.7821 91.8705 70.3618C85.9122 74.1669 79.4677 76.4377 72.5369 77.174C56.1979 78.9079 37.7348 75.7644 27.8765 61.0008C27.6108 60.5992 27.2884 60.54 26.9092 60.8232" stroke="#FAE1C6" stroke-width="2"/>
<path d="M102.615 60.8116C102.501 60.9326 102.487 61.0562 102.572 61.1823C102.597 61.2204 102.631 61.2516 102.671 61.2732C102.711 61.2948 102.756 61.306 102.801 61.3059H103.601C103.664 61.3059 103.724 61.3258 103.774 61.3627C103.823 61.3997 103.859 61.4516 103.876 61.5106C104.004 61.9585 103.876 62.5648 104.124 62.9124C104.258 63.0978 104.445 63.202 104.685 63.2252C104.793 63.2355 104.858 63.2934 104.878 63.399C105.548 66.7394 100.913 70.9295 98.6723 72.5939C97.3801 73.5542 96.1071 74.5415 94.8536 75.5559C94.5183 75.8288 93.956 76.1197 93.1667 76.4287C91.8357 76.9539 90.7679 77.8614 89.2473 78.1935C89.1279 78.2182 89.0219 78.2856 88.9494 78.3827C88.6515 78.7766 88.2801 78.6646 87.9473 78.7998C85.6839 79.6957 83.5946 80.5453 81.1223 81.0589C79.5205 81.3911 77.9278 81.7592 76.3441 82.1634C74.9744 82.5135 73.8679 82.6719 73.0244 82.6384C72.15 82.6075 71.5116 82.8856 70.7958 82.8663C68.5015 82.8083 66.1104 83.0825 63.9747 82.9474C61.6765 82.8032 59.3847 82.6075 57.0994 82.3604C54.7741 82.1055 52.4488 81.4992 50.1235 80.9933C49.7366 80.9083 49.2182 80.7255 48.5682 80.4449C47.3997 79.939 46.0842 79.912 45.0048 79.4602C43.7628 78.9427 42.3158 78.1858 41.008 77.9386C39.3908 77.6374 35.6378 75.6717 33.947 73.8451C33.2196 73.0612 32.1789 72.4974 31.5327 71.8486C30.0741 70.3888 27.5708 68.5043 26.7506 66.6506C26.236 65.4882 26.4836 64.6657 26.6655 63.4685C26.797 62.6189 27.2342 62.3833 26.9015 61.2866" stroke="#E99FC8" stroke-width="2"/>
<path d="M26.9015 61.2866C31.4644 67.8825 37.4511 72.6029 44.8616 75.4477C47.392 76.4209 50.7696 77.34 53.3155 77.7725C63.9089 79.5683 74.9318 79.1087 85.0185 75.2006C86.2256 74.7333 87.4018 73.8683 88.6863 73.3122C90.0792 72.7123 90.9987 72.2631 91.4449 71.9644C92.7682 71.0801 93.8979 69.991 95.225 69.0681C97.8559 67.2453 99.5622 64.6695 101.446 62.476C101.679 62.2083 101.838 61.9753 101.926 61.777C102.187 61.1952 102.071 60.8978 101.578 60.8849" stroke="#F8D5E0" stroke-width="2"/>
<path d="M24.0771 39.2087L19.0125 39.2049C18.8887 39.2049 18.8178 39.2667 18.7997 39.3902C18.2503 42.9585 17.8054 47.4421 16.4938 50.7864C16.4851 50.8109 16.4684 50.8317 16.4464 50.8456C16.4243 50.8595 16.3983 50.8655 16.3724 50.8629C16.3465 50.8602 16.3223 50.8489 16.3036 50.8308C16.2849 50.8128 16.2728 50.789 16.2693 50.7632L14.242 39.8266C14.1543 39.3555 13.8705 39.1173 13.3908 39.1122L7.42858 39.0813C7.24802 39.0813 7.17709 39.1688 7.21578 39.3439C8.7131 46.3608 10.3961 53.7561 12.9574 60.1551C13.0168 60.3044 13.1264 60.3804 13.2863 60.3829L18.8074 60.4602C19.0009 60.4627 19.1221 60.3713 19.1711 60.186L21.4616 51.775C21.4683 51.7544 21.4813 51.7364 21.4987 51.7235C21.5162 51.7106 21.5372 51.7035 21.5589 51.703C21.5806 51.7026 21.6019 51.7089 21.6198 51.7211C21.6377 51.7333 21.6514 51.7508 21.6589 51.7711C22.4921 54.4744 23.302 57.1313 24.0887 59.7419C24.2938 60.4177 24.6807 60.6146 25.35 60.4022C25.4366 60.3742 25.529 60.365 25.6208 60.3752L26.8628 60.522" stroke="#A785A0" stroke-width="2"/>
<path d="M26.8628 60.5219L26.9092 60.8232" stroke="#A36D71" stroke-width="2"/>
<path d="M26.9092 60.8232C26.8963 60.8566 26.8847 60.8914 26.8744 60.9274" stroke="#A67F96" stroke-width="2"/>
<path d="M26.8744 60.9274L24.2473 60.827" stroke="#98497E" stroke-width="2"/>
<path d="M24.2473 60.827C22.7229 58.6683 22.4211 56.8069 21.8176 54.5902C21.8109 54.5618 21.7953 54.5363 21.773 54.5175C21.7507 54.4987 21.7229 54.4876 21.6937 54.4859C21.6646 54.4842 21.6356 54.4919 21.6112 54.5079C21.5868 54.5239 21.5683 54.5474 21.5583 54.5748C21.3958 54.9867 21.2127 55.6252 21.0089 56.4902C20.8645 57.1158 20.3022 58.4598 19.322 60.5219C19.2962 60.5755 19.2562 60.621 19.2065 60.6536C19.1567 60.6863 19.0991 60.7048 19.0396 60.7073L15.2595 60.8811" stroke="#8A3373" stroke-width="2"/>
<path d="M51.8607 60.2091C51.7189 60.2375 51.6428 60.2799 51.6324 60.3366" stroke="#C087B8" stroke-width="2"/>
<path d="M51.6324 60.3366H45.9836C45.8263 60.3366 45.7476 60.2581 45.7476 60.101C45.7683 55.557 45.7476 51.0271 45.6857 46.5114C45.6586 44.4801 43.6274 43.1169 42.2074 44.9242" stroke="#A785A0" stroke-width="2"/>
<path d="M42.2074 44.9242C41.9263 45.2409 41.7857 45.5524 41.7857 45.8587C41.7806 50.6139 41.7844 55.4978 41.7973 60.5104" stroke="#C087B8" stroke-width="2"/>
<path d="M26.9015 61.2866L26.8744 60.9274" stroke="#EFBDD3" stroke-width="2"/>
<path d="M51.6324 60.3366L51.6518 60.6494C51.6621 60.7987 51.5925 60.8798 51.4429 60.8927C49.4516 61.0935 47.4603 61.0832 45.4691 60.8618C45.3635 60.8508 45.2645 60.8047 45.1875 60.7307C45.1105 60.6566 45.0598 60.5588 45.0435 60.4524C44.5405 57.1545 44.7997 53.4124 44.7455 50.6976C44.7185 49.3807 44.9738 46.1329 44.1845 45.1482C44.1455 45.0988 44.0927 45.0622 44.0327 45.043C43.9728 45.0237 43.9084 45.0227 43.8479 45.04C43.2057 45.2228 42.6588 45.1842 42.2074 44.9242" stroke="#680D58" stroke-width="2"/>
<path d="M59.7137 35.3778C59.7361 34.4605 59.3733 33.5713 58.7052 32.906C58.0371 32.2407 57.1184 31.8536 56.1511 31.83C55.1837 31.8064 54.2471 32.1482 53.5472 32.7803C52.8473 33.4123 52.4415 34.2828 52.419 35.2002C52.3966 36.1175 52.7594 37.0067 53.4275 37.672C54.0956 38.3373 55.0144 38.7244 55.9816 38.748C56.949 38.7716 57.8857 38.4298 58.5856 37.7977C59.2855 37.1657 59.6913 36.2952 59.7137 35.3778Z" stroke="#AF88A2" stroke-width="2"/>
<path d="M81.1417 44.4144L81.0527 31.6589C81.0527 31.5173 80.983 31.462 80.8438 31.4929C78.8061 31.9383 76.8303 32.5845 74.9164 33.4315C74.8521 33.4588 74.7972 33.5049 74.7587 33.564C74.7202 33.623 74.6997 33.6925 74.6997 33.7636L74.719 60.1242C74.719 60.2684 74.7926 60.3404 74.9396 60.3404H80.8786C81.0849 60.3404 81.1855 60.2375 81.1804 60.0315L81.0411 53.003C81.0398 52.9674 81.0507 52.9324 81.0719 52.9036C81.0931 52.8749 81.1234 52.8542 81.1579 52.8448C81.1924 52.8354 81.229 52.8379 81.2619 52.8519C81.2948 52.8659 81.3219 52.8906 81.339 52.9219L85.2235 60.0161C85.2771 60.1142 85.3568 60.1961 85.4542 60.2532C85.5515 60.3103 85.663 60.3404 85.7768 60.3404H92.2768C92.4522 60.3404 92.4831 60.2735 92.3696 60.1396C89.5066 56.7876 87.3708 52.2848 85.1268 48.4732C85.0546 48.3522 85.0688 48.244 85.1693 48.1488C86.8021 46.5989 88.6128 45.3001 90.6015 44.2522C90.6388 44.2326 90.6701 44.2031 90.6919 44.1671C90.7137 44.131 90.7253 44.0897 90.7253 44.0476L90.7795 38.8689C90.7795 38.7685 90.7305 38.7299 90.6324 38.753C86.9156 39.6979 83.8126 41.6069 81.3235 44.4801C81.2023 44.6191 81.1417 44.5972 81.1417 44.4144Z" stroke="#A785A0" stroke-width="2"/>
<path d="M71.3917 44.4183L71.1402 44.7581C71.0705 44.8508 70.9816 44.8791 70.8732 44.8431C69.6119 44.4337 67.9366 43.2366 66.8804 44.5573C66.8423 44.6061 66.8168 44.6633 66.806 44.7239C66.7952 44.7844 66.7995 44.8466 66.8185 44.9049C67.0609 45.6669 67.4839 46.1831 68.0875 46.4535C70.4425 47.5193 72.3628 48.9096 73.8485 50.6242C73.9388 50.7297 73.9852 50.713 73.9878 50.574L74.1 44.9705C74.1077 44.5663 73.9091 44.3501 73.5042 44.3217L72.4943 44.2484" stroke="#680D58" stroke-width="2"/>
<path d="M72.4943 44.2484L73.8717 40.8886C73.9142 40.7843 73.915 40.6677 73.8739 40.5634C73.8328 40.459 73.753 40.3749 73.6512 40.3287C70.8113 39.0337 67.8321 38.8148 64.7137 39.6721C60.303 40.8848 58.5271 46.465 61.8119 49.8673C63.1351 51.2382 65.7622 52.1728 67.3408 53.173C69.2173 54.3624 67.6967 56.1697 65.9634 55.9032C64.359 55.6587 62.8398 55.2455 61.4057 54.6636C61.3616 54.6453 61.3143 54.6363 61.2666 54.6372C61.219 54.6381 61.172 54.6489 61.1287 54.6689C61.0854 54.6888 61.0468 54.7176 61.0152 54.7532C60.9836 54.7889 60.9598 54.8307 60.9452 54.876L59.7342 58.7417C59.693 58.8781 59.7381 58.9734 59.8696 59.0274C62.8295 60.24 65.267 61.1244 68.3699 60.5104C71.5542 59.877 73.5003 57.6063 73.7634 54.4126C74.2432 48.562 68.4241 48.7474 66.2884 45.1984C66.2285 45.0985 66.2052 44.9823 66.2226 44.8701C66.6057 42.1746 69.6699 43.4992 71.3917 44.4183" stroke="#A785A0" stroke-width="2"/>
<path d="M72.4943 44.2484C72.4505 44.3797 72.3796 44.4981 72.2815 44.6036C72.1809 44.7118 72.0649 44.7349 71.9333 44.6731L71.3917 44.4183" stroke="#C087B8" stroke-width="2"/>
<path d="M67.0506 53.9569C64.6518 52.3813 61.8816 51.5433 60.2952 49.1374C60.2654 49.0937 60.2231 49.0597 60.1738 49.0401C60.1245 49.0204 60.0706 49.0159 60.0191 49.0272C59.9676 49.0385 59.9209 49.065 59.8853 49.1033C59.8496 49.1416 59.8267 49.1898 59.8194 49.2417C59.5511 51.1108 59.5124 52.9825 59.7033 54.8567C59.7097 54.9148 59.7346 54.9693 59.7742 55.0122C59.8138 55.0552 59.8662 55.0844 59.9236 55.0956C59.981 55.1068 60.0406 55.0994 60.0935 55.0745C60.1464 55.0496 60.19 55.0085 60.2179 54.9571C61.3399 52.8602 64.9923 55.8762 67.0119 54.7872C67.0858 54.7469 67.1481 54.6884 67.1927 54.6172C67.2374 54.5461 67.2629 54.4647 67.2668 54.3811C67.2707 54.2975 67.2529 54.2145 67.215 54.1402C67.1771 54.0658 67.1204 54.0027 67.0506 53.9569Z" stroke="#680D58" stroke-width="2"/>
<path d="M97.2872 51.2073C95.9124 52.1805 95.4636 53.3763 95.9408 54.7949" stroke="#C087B8" stroke-width="2"/>
<path d="M95.9408 54.7949C97.0551 57.2703 99.5893 55.8839 100.854 54.4937C100.937 54.4045 100.982 54.2873 100.982 54.1654V50.3925C100.982 50.2457 100.909 50.1736 100.762 50.1762C99.4797 50.1839 98.3215 50.5276 97.2872 51.2073" stroke="#A785A0" stroke-width="2"/>
<path d="M95.9408 54.7949C98.742 55.5943 100.684 54.1461 100.1 51.4197C100.072 51.2936 99.9968 51.2073 99.8756 51.161C99.1946 50.9087 98.5382 50.9717 97.9062 51.3502C97.785 51.4197 97.6638 51.421 97.5426 51.3541L97.2872 51.2073" stroke="#680D58" stroke-width="2"/>
<path d="M112.771 39.5447C110.813 40.1163 108.554 41.8734 108.113 44.0167C106.987 49.485 110.906 50.8906 114.829 53.088C115.735 53.5952 116.008 54.2491 115.65 55.0498C114.864 56.803 110.701 55.2429 109.432 54.7486C109.357 54.719 109.276 54.7053 109.196 54.7083C109.115 54.7114 109.036 54.7312 108.963 54.7664C108.89 54.8016 108.826 54.8515 108.773 54.9129C108.721 54.9743 108.682 55.0459 108.658 55.1232L107.668 58.4211C107.572 58.7378 107.67 58.9772 107.962 59.1394C111.224 60.9352 115.936 61.499 118.996 59.2862C121.809 57.2471 122.672 52.9606 120.324 50.153C119.174 48.7821 112.79 46.2179 114.207 44.0591C115.363 42.302 118.54 44.0282 119.882 44.7813C119.91 44.7967 119.94 44.8061 119.971 44.8089C120.002 44.8117 120.034 44.8079 120.064 44.7978C120.094 44.7876 120.121 44.7712 120.145 44.7498C120.168 44.7283 120.187 44.7022 120.2 44.6732L121.867 40.85C121.902 40.7692 121.905 40.6782 121.875 40.5961C121.844 40.514 121.783 40.4472 121.705 40.4097C119.02 39.116 115.495 38.7492 112.771 39.5447Z" stroke="#A785A0" stroke-width="2"/>
<path d="M0 0H130V95H0V0ZM24.731 39.7262C24.6923 39.7803 24.611 39.7957 24.4872 39.7726C24.4305 39.5589 24.2938 39.3709 24.0771 39.2087L24.2125 39.1469C24.2919 39.1106 24.3565 39.0483 24.3955 38.9704C24.4346 38.8924 24.4458 38.8035 24.4273 38.7183C24.4087 38.6332 24.3616 38.5569 24.2937 38.5021C24.2258 38.4473 24.1412 38.4173 24.0539 38.4171L18.1149 38.5059C17.9756 38.5085 17.9034 38.5793 17.8982 38.7183C17.7899 41.6455 17.1321 44.5689 16.6524 47.4807C16.6454 47.516 16.6266 47.5479 16.599 47.5711C16.5714 47.5943 16.5368 47.6074 16.5007 47.6083C16.4647 47.6092 16.4294 47.5978 16.4007 47.576C16.372 47.5542 16.3516 47.5233 16.3429 47.4884L14.6173 39.3941C14.5668 39.1556 14.436 38.9416 14.2466 38.7877C14.0572 38.6338 13.8207 38.5493 13.5765 38.5484L7.27768 38.5098C7.20544 38.5097 7.13475 38.5292 7.07335 38.5659C7.01194 38.6027 6.96216 38.6554 6.92946 38.7183C5.88869 40.738 10.2065 54.0264 10.8449 56.0925C11.4201 57.9513 11.9979 59.4497 12.5783 60.5876C12.6402 60.7086 12.7395 60.773 12.8762 60.7807L15.2595 60.8811C15.3343 60.9789 15.4517 61.0266 15.6116 61.024C15.7535 61.024 15.8063 61.0909 15.7702 61.2248C15.5716 61.9791 15.7573 62.6356 16.3274 63.1943C16.3877 63.2519 16.4283 63.3276 16.4435 63.4106C16.7762 65.0943 17.9021 65.7856 18.6798 66.9904C19.874 68.8467 21.2785 70.5317 22.8932 72.0455C23.2027 72.3364 23.6953 72.9106 24.3711 73.7679C25.0134 74.5789 26.1199 75.4491 27.6908 76.3785C28.4723 76.8457 28.8708 77.6451 29.8265 78.0159C30.2676 78.1858 30.4223 78.6608 30.8634 78.8732C32.5374 79.6841 34.1637 80.5788 35.7423 81.5571C36.0802 81.7656 36.5199 81.9832 37.0616 82.2098C38.2262 82.6925 39.2167 83.4571 40.3271 83.8858C41.8941 84.4959 43.1824 85.3069 44.8307 85.7008C46.8271 86.1797 48.839 86.9134 50.7348 87.2803C54.168 87.9471 57.6191 88.5109 61.0884 88.9717C61.2225 88.9898 61.3476 88.964 61.4637 88.8945C62.342 88.3616 64.1565 88.6821 65.1857 88.6937C66.3967 88.7053 68.5982 88.3886 70.3277 88.574C71.0138 88.6486 71.6483 88.6242 72.2313 88.5006C73.7118 88.1891 75.2066 87.969 76.7155 87.8402C79.6792 87.5892 82.1515 86.6238 84.6083 85.8978C88.2375 84.8203 91.4217 83.4146 94.7143 81.7463C95.7551 81.2173 96.8268 80.2982 98.0262 79.7537C99.1366 79.2516 99.6164 78.6144 100.533 77.9309C101.065 77.5344 101.67 77.0491 102.348 76.475C103.273 75.6988 104.364 75.1388 105.18 74.3935C106.94 72.7908 108.179 71.2539 110.117 69.1878C111.213 68.0164 112.098 66.6918 112.771 65.214C113.572 63.4608 113.901 63.4415 113.615 61.2055C117.435 61.5814 120.089 60.2272 121.577 57.1429C123.426 53.312 122.107 49.7205 118.486 47.7858C117.217 47.1087 116.025 46.3016 114.911 45.3644C114.86 45.3224 114.82 45.269 114.793 45.208C114.766 45.1471 114.754 45.0804 114.756 45.013C114.853 43.0628 118.687 44.9705 119.608 45.2911C119.825 45.3666 120.063 45.3572 120.274 45.2647C120.484 45.1722 120.651 45.0036 120.741 44.7929L122.463 40.7959C122.501 40.709 122.51 40.6122 122.489 40.5202C122.467 40.4282 122.416 40.3461 122.343 40.2862C118.671 37.1967 111.939 37.9884 108.515 41.0624C108.415 41.1525 108.345 41.2593 108.306 41.3829C108.017 42.2814 107.594 43.1079 107.037 43.8622C106.957 43.9703 106.902 43.96 106.871 43.8313C106.585 42.7165 106.1 41.688 105.416 40.7457C105.359 40.6685 105.283 40.635 105.188 40.6453C105.139 40.6479 105.086 40.6556 105.029 40.6685C103.741 38.027 103.799 36.6213 104.518 33.8215C105.545 29.8388 106.612 25.8675 107.718 21.9079C109.428 15.7986 106.403 12.0217 100.119 14.3659C94.5686 16.4409 89.0216 18.552 83.4786 20.6992C83.3535 20.7467 83.2167 20.7494 83.0917 20.7069C70.7442 16.3251 58.402 16.3264 46.0649 20.7108C45.9488 20.752 45.8327 20.7507 45.7167 20.7069C40.3671 18.637 35.0097 16.5954 29.6446 14.5821C27.7617 13.8767 26.3405 13.5472 25.381 13.5935C20.5601 13.8329 20.4634 18.5598 21.4732 22.1087C22.5952 26.0529 23.6566 30.0112 24.6574 33.9837C25.212 36.1901 25.2365 38.1043 24.731 39.7262Z" fill="#A2238E"/>
<path d="M105.029 40.6685L105.099 41.4486L103.973 40.5488C104.135 40.5488 104.228 40.5024 104.251 40.4097C104.267 40.3454 104.237 40.272 104.163 40.1896C103.719 39.7005 103.293 39.2976 102.886 38.9809C102.811 36.6844 102.949 34.9543 103.3 33.7906C104.592 29.4938 105.811 25.1763 106.956 20.8382C107.826 17.5364 106.913 14.165 102.696 14.7713C101.592 14.9284 100.9 15.0661 100.618 15.1845C96.6075 16.8812 92.5566 18.4709 88.4658 19.9539C86.9917 20.4906 85.061 21.599 83.7571 21.9041C82.9679 22.0894 82.0161 21.4561 81.4164 21.29C79.2961 20.6927 77.163 20.1392 75.017 19.6295C73.717 19.3205 72.2467 19.3321 70.8616 19.0888C67.3756 18.4864 64.0598 18.5018 60.5506 18.9228C59.711 19.0232 58.7128 18.803 57.761 18.9768C55.4344 19.4016 53.1207 19.8843 50.8199 20.425C49.4696 20.7417 46.6491 22.2014 45.3839 21.7148C40.0343 19.6501 34.6834 17.5956 29.3313 15.5514C24.8199 13.8291 20.8929 14.8795 22.2741 20.6567C23.1356 24.2662 24.1235 27.8396 25.2378 31.377C25.675 32.7673 26.8473 38.0116 25.4893 39.7301C25.2004 40.0957 24.9476 40.0944 24.731 39.7262C25.2365 38.1043 25.212 36.1901 24.6574 33.9837C23.6566 30.0112 22.5952 26.0529 21.4732 22.1087C20.4634 18.5597 20.5601 13.8329 25.381 13.5935C26.3405 13.5471 27.7617 13.8767 29.6446 14.5821C35.0097 16.5954 40.3671 18.637 45.7167 20.7069C45.8327 20.7507 45.9488 20.752 46.0649 20.7108C58.402 16.3263 70.7442 16.3251 83.0917 20.7069C83.2167 20.7494 83.3535 20.7467 83.4786 20.6992C89.0216 18.552 94.5686 16.4409 100.119 14.3658C106.403 12.0217 109.428 15.7986 107.718 21.9079C106.612 25.8675 105.545 29.8387 104.518 33.8215C103.799 36.6213 103.741 38.027 105.029 40.6685Z" fill="#FDF2EB"/>
<path d="M102.886 38.9809L101.756 38.475C101.672 38.4369 101.58 38.4197 101.489 38.4248C100.847 38.4711 100.502 38.2124 100.456 37.6486C100.824 32.0953 102.468 27.9092 104.429 21.0197C104.809 19.6913 105.524 15.7986 102.522 16.9803C96.1794 19.4699 89.8212 21.9427 83.4476 24.3988C83.3341 24.4426 83.2193 24.4426 83.1033 24.3988C70.7533 19.7466 58.4084 19.7402 46.0688 24.3795C45.9578 24.4232 45.8456 24.4232 45.7321 24.3795C39.9312 22.168 34.1443 19.9178 28.3717 17.6291C26.3095 16.8104 23.458 16.0612 24.4253 19.8148C25.2094 22.8631 26.2941 26.7802 27.6792 31.5663C28.1705 33.2655 29.1417 36.8646 28.4491 38.6604C27.2936 41.6545 26.4424 44.7311 25.8955 47.8901C24.9863 45.3451 24.8316 42.4488 24.4872 39.7726C24.611 39.7957 24.6923 39.7803 24.731 39.7262C24.9476 40.0944 25.2004 40.0957 25.4893 39.7301C26.8473 38.0116 25.675 32.7673 25.2378 31.377C24.1235 27.8396 23.1356 24.2662 22.2741 20.6567C20.8929 14.8795 24.8199 13.8291 29.3313 15.5514C34.6834 17.5956 40.0343 19.6501 45.3839 21.7148C46.6491 22.2014 49.4696 20.7417 50.8199 20.425C53.1207 19.8844 55.4344 19.4016 57.761 18.9768C58.7128 18.8031 59.711 19.0232 60.5506 18.9228C64.0598 18.5018 67.3756 18.4864 70.8616 19.0888C72.2467 19.3321 73.717 19.3205 75.017 19.6295C77.163 20.1392 79.2961 20.6928 81.4164 21.2901C82.0161 21.4561 82.9679 22.0894 83.7571 21.9041C85.061 21.599 86.9917 20.4907 88.4658 19.9539C92.5566 18.4709 96.6075 16.8812 100.618 15.1846C100.9 15.0661 101.592 14.9284 102.696 14.7714C106.913 14.1651 107.826 17.5364 106.956 20.8382C105.811 25.1763 104.592 29.4938 103.3 33.7907C102.949 34.9543 102.811 36.6844 102.886 38.9809Z" fill="#F7CFA1"/>
<path d="M100.456 37.6486C100.322 37.543 100.124 37.5173 99.864 37.5713C99.9001 35.5992 100.127 33.6735 100.545 31.7941C100.673 31.211 100.514 30.7205 100.731 30.0988C101.222 28.7047 101.152 27.3299 101.644 25.9821C102.188 24.4863 102.7 22.6777 103.18 20.5563C103.385 19.6642 104.631 18.2392 102.766 17.8569C102.634 17.8286 102.518 17.8569 102.418 17.9419C101.657 18.5675 100.693 19.085 99.5274 19.4943C97.3014 20.2795 94.3222 21.4291 90.5899 22.9429C89.2202 23.499 87.2509 23.8736 85.6568 24.839C85.5811 24.8843 85.4951 24.9071 85.4092 24.9047C84.6767 24.8686 84.0306 25.0862 83.4708 25.5573C83.4245 25.5955 83.3683 25.6197 83.3087 25.6272C83.2491 25.6348 83.1886 25.6252 83.1342 25.5998C79.9178 24.0963 76.5465 23.0986 73.0205 22.6069C72.4982 22.5297 72.1074 22.3095 71.6045 22.2516C66.9977 21.7058 63.5401 21.5308 61.2315 21.7264C59.1926 21.9002 55.9812 23.2711 53.0369 23.4719C50.9979 23.611 49.4851 24.5262 47.6821 25.0669C47.5609 25.1029 47.4539 25.1647 47.361 25.2522C46.7652 25.8135 46.1281 25.9551 45.4497 25.677C39.3289 23.1488 34.1663 21.1742 29.9619 19.753C28.6735 19.3205 27.4315 18.4091 25.9342 18.0152C25.8882 18.0029 25.8399 18.0012 25.7931 18.0103C25.7463 18.0194 25.7022 18.039 25.6641 18.0677C25.6261 18.0964 25.5951 18.1333 25.5735 18.1758C25.5519 18.2182 25.5403 18.265 25.5396 18.3126C25.5164 20.0697 26.1277 22.5297 26.5881 24.2095C27.594 27.8808 28.4336 31.2058 29.1068 34.1845C29.3906 35.4383 29.4486 36.799 29.2809 38.2665C29.2778 38.2962 29.2818 38.3262 29.2926 38.3541C29.3033 38.382 29.3205 38.4069 29.3428 38.4269C29.3651 38.4468 29.3918 38.4613 29.4207 38.469C29.4496 38.4766 29.48 38.4774 29.5092 38.4711C31.0852 38.1313 32.6625 38.1055 34.2411 38.3939C34.2989 38.4042 34.3584 38.4011 34.4149 38.3847C34.4713 38.3684 34.5233 38.3393 34.5667 38.2997C34.61 38.2602 34.6437 38.2111 34.6651 38.1565C34.6865 38.1018 34.6949 38.043 34.6899 37.9845C34.5532 36.4321 34.6293 34.8771 34.9182 33.3195C35.1116 32.2807 36.1833 32.3695 36.7559 32.0992C37.9476 31.5276 42.2036 29.5774 42.5402 31.852C42.8574 34.0095 42.8342 36.4347 42.4705 39.1276C42.4422 39.331 42.5311 39.425 42.7375 39.4095C43.2121 39.3735 43.6429 39.21 44.0298 38.9191C44.1079 38.8614 44.2025 38.829 44.3006 38.8264C45.6702 38.7917 47.1946 38.5059 48.4366 39.0118C49.8785 39.5988 51.0134 40.581 51.8414 41.9583C51.8711 42.0053 51.9165 42.0407 51.9696 42.0585C52.0226 42.0762 52.0801 42.0751 52.132 42.0554C52.1839 42.0357 52.227 41.9986 52.2537 41.9505C52.2805 41.9025 52.2893 41.8465 52.2786 41.7923C52.0464 40.6157 52.3302 39.6374 53.1298 38.8573C53.2252 38.7646 53.2239 38.6719 53.1259 38.5793C47.303 33.223 56.9562 28.0327 59.6607 32.8484C60.8034 34.8874 60.5351 36.7282 58.8559 38.3707C58.8143 38.4123 58.7837 38.4637 58.7668 38.5203C58.7499 38.5769 58.7473 38.637 58.7592 38.6951C58.8056 38.8959 58.9475 39.0581 59.1848 39.1817C58.8959 39.4134 58.8185 39.5383 58.9527 39.5563C57.111 39.8318 55.357 39.8434 53.6908 39.591C53.6517 39.5856 53.612 39.5884 53.5741 39.5995C53.5362 39.6105 53.5012 39.6294 53.4712 39.6549C53.4412 39.6805 53.417 39.7121 53.4001 39.7477C53.3833 39.7833 53.3742 39.822 53.3735 39.8614L53.2807 60.1551C53.2807 60.1879 53.2871 60.2203 53.2996 60.2506C53.3121 60.2808 53.3304 60.3082 53.3534 60.3312C53.3765 60.3542 53.4038 60.3723 53.4338 60.3845C53.4638 60.3967 53.4959 60.4027 53.5283 60.4022L58.3181 60.3559C58.3439 60.4614 58.3465 60.5683 58.3259 60.6764C58.3027 60.8051 58.2253 60.8772 58.0937 60.8927C56.4881 61.0742 53.1607 61.2866 51.8607 60.2091C51.7859 55.6677 51.7292 51.1095 51.6905 46.5345C51.6557 42.2982 49.4077 38.448 44.5289 39.8498C43.639 40.1008 42.9232 40.7612 42.0527 41.2246C41.8799 41.3198 41.7934 41.2684 41.7934 41.0701L41.8283 31.8752C41.8283 31.7413 41.7625 31.6898 41.6309 31.7207C39.7351 32.1532 38.0366 32.9526 36.1872 33.4508C35.8596 33.5383 35.6958 33.7495 35.6958 34.0841C35.6829 42.7474 35.6842 51.4249 35.6997 60.1165C35.6997 60.2684 35.7758 60.3456 35.928 60.3482L41.7973 60.5104C40.1156 61.033 38.3281 61.2081 36.4348 61.0356C35.5333 60.9545 35.0071 60.6108 35.0071 59.6646C35.0175 55.8234 34.9375 51.9771 34.7673 48.1256C34.763 48.0407 34.734 47.9588 34.6838 47.8902C34.6335 47.8215 34.5643 47.7689 34.4846 47.739C34.4048 47.709 34.3181 47.703 34.235 47.7216C34.1518 47.7402 34.076 47.7826 34.0167 47.8437C32.9488 48.9482 32.469 51.327 32.1286 52.7829C31.5946 55.0536 30.9408 56.8108 30.2946 58.8382L30.2985 58.9888C30.3011 59.1253 30.2379 59.1703 30.1089 59.124L29.6446 58.9579C31.7855 52.7662 33.5305 46.4058 34.8795 39.8768C34.9723 39.4314 34.7918 39.2074 34.3378 39.2049L29.0952 39.1778C28.9637 39.1778 28.8889 39.2435 28.8708 39.3748C28.4942 42.2763 27.9706 45.4365 27.3 48.8555C27.1684 49.5171 26.9802 50.1131 26.7351 50.6435C26.6474 50.834 26.5791 50.8276 26.5301 50.6242L25.8955 47.89C26.4424 44.7311 27.2935 41.6545 28.4491 38.6604C29.1417 36.8646 28.1705 33.2654 27.6792 31.5663C26.294 26.7802 25.2094 22.8631 24.4253 19.8148C23.458 16.0612 26.3095 16.8104 28.3717 17.6291C34.1443 19.9178 39.9311 22.1679 45.7321 24.3795C45.8456 24.4232 45.9578 24.4232 46.0687 24.3795C58.4084 19.7402 70.7533 19.7466 83.1033 24.3988C83.2193 24.4425 83.3341 24.4425 83.4476 24.3988C89.8212 21.9427 96.1794 19.4698 102.522 16.9803C105.524 15.7986 104.809 19.6913 104.429 21.0197C102.468 27.9091 100.824 32.0953 100.456 37.6486ZM59.7137 35.3778C59.7361 34.4605 59.3733 33.5714 58.7052 32.906C58.0371 32.2407 57.1184 31.8536 56.1511 31.83C55.1837 31.8064 54.2471 32.1482 53.5472 32.7803C52.8473 33.4123 52.4415 34.2828 52.419 35.2002C52.3966 36.1176 52.7594 37.0067 53.4275 37.672C54.0956 38.3374 55.0143 38.7244 55.9816 38.748C56.949 38.7716 57.8856 38.4298 58.5855 37.7978C59.2854 37.1657 59.6913 36.2953 59.7137 35.3778Z" fill="#5F1144"/>
<path d="M99.864 37.5713C96.516 37.0925 93.2195 37.2881 89.9747 38.1583C89.3015 38.3398 88.7753 38.336 88.1408 38.5908C85.9303 39.4791 83.9377 40.7432 82.1631 42.3831C82.0341 42.5016 81.9671 42.4732 81.9619 42.2982C81.8561 38.7196 81.9129 35.1448 82.1321 31.574C82.1579 31.1826 81.9954 30.8287 81.6446 30.512C81.5518 30.427 81.4434 30.3987 81.3196 30.427C78.9673 30.9677 77.0108 31.5135 75.4503 32.0644C73.0902 32.8947 73.9414 37.1581 73.8717 39.1663C73.8666 39.3156 73.7918 39.3671 73.6473 39.3207C69.0586 37.7953 63.6226 37.5443 60.2875 41.715C60.2444 41.7681 60.1858 41.8064 60.1198 41.8246C60.0538 41.8428 59.9838 41.8401 59.9195 41.8167C59.8552 41.7933 59.7998 41.7505 59.7611 41.6942C59.7223 41.6379 59.7021 41.5709 59.7033 41.5026C59.7239 40.6633 59.5511 39.8897 59.1848 39.1817C58.9475 39.0581 58.8056 38.8959 58.7592 38.6951C58.7473 38.637 58.7499 38.5769 58.7668 38.5203C58.7837 38.4637 58.8143 38.4123 58.8559 38.3707C60.5351 36.7282 60.8034 34.8874 59.6607 32.8484C56.9562 28.0327 47.303 33.223 53.1259 38.5793C53.2239 38.6719 53.2252 38.7646 53.1298 38.8573C52.3302 39.6374 52.0464 40.6157 52.2786 41.7923C52.2893 41.8465 52.2805 41.9025 52.2537 41.9505C52.227 41.9986 52.1839 42.0357 52.132 42.0554C52.0801 42.0751 52.0226 42.0762 51.9696 42.0585C51.9165 42.0407 51.8711 42.0053 51.8414 41.9583C51.0134 40.581 49.8785 39.5988 48.4366 39.0118C47.1946 38.5059 45.6702 38.7917 44.3006 38.8264C44.2025 38.829 44.1079 38.8613 44.0298 38.9191C43.6429 39.21 43.2121 39.3735 42.7375 39.4095C42.5311 39.425 42.4422 39.331 42.4705 39.1276C42.8342 36.4347 42.8574 34.0095 42.5402 31.852C42.2036 29.5774 37.9476 31.5276 36.7559 32.0992C36.1833 32.3695 35.1116 32.2807 34.9182 33.3195C34.6293 34.8771 34.5532 36.4321 34.6899 37.9845C34.6949 38.043 34.6865 38.1018 34.6651 38.1565C34.6437 38.2111 34.61 38.2602 34.5667 38.2997C34.5233 38.3393 34.4713 38.3684 34.4149 38.3847C34.3584 38.4011 34.2989 38.4042 34.2411 38.3939C32.6625 38.1055 31.0852 38.1313 29.5092 38.4711C29.48 38.4774 29.4496 38.4766 29.4207 38.4689C29.3918 38.4613 29.3651 38.4468 29.3428 38.4269C29.3205 38.4069 29.3033 38.382 29.2926 38.3541C29.2818 38.3262 29.2778 38.2962 29.281 38.2665C29.4486 36.799 29.3906 35.4383 29.1068 34.1845C28.4336 31.2058 27.594 27.8808 26.5881 24.2095C26.1277 22.5297 25.5164 20.0697 25.5396 18.3126C25.5403 18.265 25.5519 18.2182 25.5735 18.1758C25.5951 18.1333 25.6261 18.0964 25.6641 18.0677C25.7022 18.039 25.7463 18.0194 25.7931 18.0103C25.8399 18.0012 25.8882 18.0029 25.9342 18.0152C27.4315 18.4091 28.6735 19.3205 29.9619 19.753C34.1663 21.1742 39.3289 23.1488 45.4497 25.677C46.1281 25.9551 46.7652 25.8135 47.361 25.2522C47.4539 25.1647 47.5609 25.1029 47.6821 25.0669C49.4851 24.5262 50.9979 23.611 53.0369 23.4719C55.9812 23.2711 59.1926 21.9002 61.2315 21.7264C63.5401 21.5308 66.9977 21.7058 71.6045 22.2516C72.1074 22.3095 72.4982 22.5297 73.0205 22.6069C76.5465 23.0986 79.9178 24.0963 83.1342 25.5998C83.1886 25.6252 83.2491 25.6348 83.3087 25.6272C83.3683 25.6197 83.4245 25.5955 83.4708 25.5573C84.0306 25.0862 84.6767 24.8686 85.4092 24.9047C85.4951 24.9071 85.5811 24.8843 85.6568 24.839C87.2509 23.8736 89.2202 23.499 90.5899 22.9429C94.3222 21.4291 97.3014 20.2795 99.5274 19.4943C100.693 19.085 101.657 18.5675 102.418 17.9419C102.518 17.8569 102.634 17.8286 102.766 17.8569C104.631 18.2392 103.385 19.6642 103.18 20.5563C102.7 22.6777 102.188 24.4863 101.644 25.9821C101.152 27.3299 101.222 28.7047 100.731 30.0988C100.514 30.7205 100.673 31.211 100.545 31.7941C100.127 33.6735 99.9001 35.5992 99.864 37.5713Z" fill="#800F70"/>
<path d="M99.864 37.5713C100.125 37.5173 100.322 37.543 100.456 37.6486C100.502 38.2124 100.847 38.4711 101.489 38.4248C101.58 38.4197 101.672 38.4369 101.756 38.475L102.886 38.9809C103.293 39.2976 103.719 39.7005 104.163 40.1896C104.237 40.272 104.267 40.3454 104.252 40.4098C104.228 40.5024 104.135 40.5488 103.973 40.5488C100.731 37.7799 96.5753 38.0154 92.5941 38.4248C92.5036 38.4333 92.4194 38.4749 92.3574 38.5418C92.2953 38.6087 92.2598 38.6962 92.2574 38.7878L92.1762 43.5957C90.4119 45.2293 88.1098 46.4264 86.0167 48.3921C85.9753 48.4316 85.9486 48.4837 85.9408 48.5399C85.9331 48.5961 85.9448 48.6529 85.9741 48.701L89.197 54.011C89.3028 54.1835 89.4189 54.1912 89.5452 54.0341C89.8161 53.702 89.8973 53.3081 89.789 52.8524C89.7606 52.7366 89.7619 52.622 89.7929 52.5087C90.9587 48.096 93.8567 45.7056 98.4866 45.3374C98.5393 45.3328 98.5902 45.3155 98.6346 45.2869C98.6791 45.2582 98.7159 45.2192 98.7419 45.1731C98.7678 45.1271 98.7821 45.0754 98.7834 45.0226C98.7848 44.9698 98.7732 44.9175 98.7497 44.8701C98.4866 44.3526 98.0688 44.0373 97.4961 43.924C97.3775 43.9008 97.3117 43.83 97.2988 43.7116C97.2782 43.5391 97.3091 43.3344 97.3917 43.0976C98.7484 43.4554 99.726 44.2394 100.324 45.4494C100.337 45.4754 100.344 45.504 100.345 45.5331C100.345 45.5621 100.338 45.5908 100.326 45.617C100.313 45.6431 100.294 45.666 100.271 45.6838C100.248 45.7016 100.221 45.7139 100.193 45.7197C96.3548 46.4921 92.9229 47.3571 91.3057 51.1648C89.0655 56.4555 92.8958 62.1014 98.9277 60.4177C99.2965 60.3147 99.9891 59.9427 101.005 59.3016C101.142 59.2167 101.223 59.2527 101.249 59.4098L101.35 60.0083C100.05 60.1705 98.9315 60.549 98.0146 61.6264C90.6866 70.2305 80.0119 74.7874 68.7762 75.0963C63.789 75.2354 58.3723 75.3628 53.5012 74.324C43.5229 72.1961 35.6804 67.925 29.7646 59.5256C29.713 59.4535 29.6795 59.3711 29.664 59.2785C29.7311 59.0854 29.7246 58.9785 29.6446 58.9579L30.1089 59.124C30.2379 59.1703 30.3011 59.1253 30.2985 58.9888L30.2946 58.8382C30.3385 59.1523 30.4933 59.4947 30.7589 59.8654C33.2738 63.3565 35.9667 65.0248 39.2631 67.4654C43.5732 70.6553 49.3071 71.8756 54.4452 73.2041C55.3313 73.4319 56.3101 73.3431 57.2619 73.5516C59.1152 73.961 60.8214 73.8181 62.6476 73.9378C65.8396 74.1463 69.4417 74.1386 72.5563 73.4049C74.5256 72.9453 76.5065 72.8642 78.4333 72.2579C80.097 71.7404 81.7414 71.4894 83.3393 70.7171C86.0631 69.4041 88.7753 68.3073 91.5958 65.9207C92.6753 65.0093 94.1649 64.4494 94.8961 63.3835C94.9684 63.2754 95.0573 63.1814 95.1631 63.1016L95.6545 62.727C95.7435 62.6588 95.8125 62.5678 95.854 62.4637C95.8955 62.3596 95.908 62.2463 95.8901 62.136C95.8722 62.0257 95.8247 61.9225 95.7525 61.8375C95.6803 61.7525 95.5862 61.6889 95.4804 61.6535L93.3756 60.939C93.2673 60.9004 93.1628 60.9094 93.0622 60.9661C91.6771 61.7191 86.9994 61.3522 85.3512 61.1514C85.2313 61.1365 85.1202 61.079 85.0378 60.9892C83.9957 59.8487 83.1471 58.582 82.492 57.1892C82.4786 57.1616 82.4567 57.1389 82.4295 57.1246C82.4022 57.1104 82.3711 57.1052 82.3407 57.11C82.3103 57.1148 82.2823 57.1292 82.2608 57.1511C82.2392 57.173 82.2253 57.2013 82.2211 57.2317L81.8652 60.4177C81.8468 60.5796 81.7723 60.7302 81.6544 60.8436C81.5366 60.957 81.3827 61.0262 81.219 61.0394C78.9905 61.2222 76.7671 61.1746 74.5488 60.8965C74.4293 60.8822 74.3178 60.8281 74.2317 60.7429C74.1456 60.6577 74.0898 60.5461 74.0729 60.4254L73.775 58.2165C73.7675 58.16 73.7421 58.1075 73.7025 58.0665C73.6629 58.0255 73.6111 57.9983 73.5549 57.9888C73.4987 57.9793 73.4409 57.988 73.39 58.0137C73.3391 58.0394 73.2977 58.0807 73.272 58.1315C72.9212 58.824 72.3899 59.4033 71.678 59.8693C67.1512 62.8236 63.642 60.8579 58.9643 60.1898L58.9527 39.5563C58.8186 39.5383 58.8959 39.4134 59.1848 39.1817C59.5511 39.8897 59.7239 40.6633 59.7033 41.5026C59.7021 41.5709 59.7223 41.6379 59.7611 41.6942C59.7998 41.7505 59.8552 41.7933 59.9195 41.8167C59.9838 41.8401 60.0539 41.8428 60.1198 41.8246C60.1858 41.8064 60.2444 41.7681 60.2875 41.715C63.6226 37.5443 69.0586 37.7953 73.6473 39.3207C73.7918 39.3671 73.8666 39.3156 73.8717 39.1663C73.9414 37.1581 73.0902 32.8947 75.4503 32.0644C77.0108 31.5135 78.9673 30.9677 81.3196 30.427C81.4435 30.3987 81.5518 30.427 81.6446 30.512C81.9954 30.8287 82.1579 31.1827 82.1321 31.574C81.9129 35.1449 81.8562 38.7196 81.9619 42.2982C81.9671 42.4732 82.0341 42.5016 82.1631 42.3831C83.9377 40.7432 85.9303 39.4791 88.1408 38.5909C88.7753 38.336 89.3015 38.3398 89.9747 38.1583C93.2195 37.2881 96.516 37.0925 99.864 37.5713ZM81.1417 44.4144L81.0527 31.6589C81.0527 31.5173 80.983 31.462 80.8438 31.4929C78.806 31.9383 76.8303 32.5845 74.9164 33.4315C74.8521 33.4588 74.7972 33.5049 74.7587 33.564C74.7202 33.623 74.6997 33.6925 74.6997 33.7636L74.719 60.1242C74.719 60.2684 74.7926 60.3404 74.9396 60.3404H80.8786C81.0849 60.3404 81.1855 60.2375 81.1804 60.0315L81.0411 53.003C81.0398 52.9674 81.0507 52.9324 81.0719 52.9036C81.0931 52.8749 81.1234 52.8542 81.1579 52.8448C81.1924 52.8354 81.229 52.8379 81.2619 52.8519C81.2948 52.8659 81.3219 52.8906 81.339 52.9219L85.2235 60.0161C85.2771 60.1142 85.3568 60.1961 85.4542 60.2532C85.5515 60.3103 85.663 60.3404 85.7768 60.3404H92.2768C92.4522 60.3404 92.4831 60.2735 92.3696 60.1396C89.5065 56.7876 87.3708 52.2848 85.1268 48.4732C85.0546 48.3522 85.0688 48.244 85.1694 48.1488C86.8021 46.5989 88.6128 45.3001 90.6015 44.2522C90.6388 44.2326 90.6701 44.2031 90.6919 44.1671C90.7137 44.131 90.7253 44.0897 90.7253 44.0476L90.7795 38.8689C90.7795 38.7685 90.7305 38.7299 90.6324 38.753C86.9156 39.6979 83.8126 41.6069 81.3235 44.4801C81.2023 44.6191 81.1417 44.5972 81.1417 44.4144ZM71.3917 44.4183L71.1402 44.7581C71.0705 44.8508 70.9815 44.8791 70.8732 44.8431C69.6119 44.4337 67.9366 43.2366 66.8804 44.5573C66.8423 44.6061 66.8168 44.6633 66.806 44.7238C66.7952 44.7844 66.7995 44.8466 66.8185 44.9049C67.0609 45.6669 67.4839 46.1831 68.0875 46.4535C70.4425 47.5193 72.3628 48.9095 73.8485 50.6242C73.9388 50.7297 73.9852 50.713 73.9878 50.574L74.1 44.9705C74.1077 44.5663 73.9091 44.3501 73.5042 44.3217L72.4943 44.2484L73.8717 40.8886C73.9142 40.7843 73.915 40.6677 73.8739 40.5634C73.8328 40.459 73.753 40.3749 73.6512 40.3287C70.8113 39.0337 67.8321 38.8148 64.7137 39.6722C60.303 40.8848 58.5271 46.465 61.8119 49.8673C63.1351 51.2382 65.7622 52.1728 67.3408 53.173C69.2173 54.3624 67.6967 56.1697 65.9634 55.9032C64.359 55.6587 62.8398 55.2455 61.4057 54.6636C61.3616 54.6453 61.3143 54.6363 61.2666 54.6372C61.219 54.6381 61.172 54.6489 61.1287 54.6689C61.0854 54.6888 61.0468 54.7176 61.0152 54.7532C60.9836 54.7889 60.9598 54.8307 60.9452 54.876L59.7342 58.7417C59.693 58.8781 59.7381 58.9734 59.8696 59.0274C62.8295 60.24 65.267 61.1244 68.3699 60.5104C71.5542 59.877 73.5003 57.6063 73.7634 54.4126C74.2432 48.562 68.4241 48.7474 66.2884 45.1984C66.2285 45.0985 66.2052 44.9823 66.2226 44.8701C66.6057 42.1746 69.6699 43.4992 71.3917 44.4183ZM67.0506 53.9569C64.6518 52.3813 61.8815 51.5433 60.2952 49.1374C60.2654 49.0937 60.2231 49.0597 60.1738 49.0401C60.1245 49.0204 60.0706 49.0159 60.0191 49.0272C59.9676 49.0385 59.9209 49.065 59.8853 49.1033C59.8496 49.1416 59.8266 49.1898 59.8193 49.2417C59.5511 51.1108 59.5124 52.9825 59.7033 54.8567C59.7097 54.9148 59.7346 54.9692 59.7742 55.0122C59.8138 55.0552 59.8662 55.0844 59.9236 55.0956C59.981 55.1068 60.0406 55.0994 60.0935 55.0745C60.1464 55.0496 60.19 55.0085 60.2179 54.9571C61.3399 52.8602 64.9923 55.8762 67.0119 54.7872C67.0858 54.7469 67.1481 54.6884 67.1927 54.6172C67.2374 54.5461 67.2629 54.4647 67.2668 54.3811C67.2707 54.2975 67.2529 54.2145 67.215 54.1402C67.1771 54.0658 67.1204 54.0027 67.0506 53.9569Z" fill="#4F0B40"/>
<path d="M81.1417 44.4144C81.1417 44.5972 81.2023 44.6191 81.3235 44.4801C83.8126 41.6069 86.9156 39.6979 90.6324 38.753C90.7305 38.7299 90.7795 38.7685 90.7795 38.8689L90.7253 44.0476C90.7253 44.0897 90.7137 44.131 90.6919 44.1671C90.6701 44.2031 90.6388 44.2326 90.6015 44.2522C88.6128 45.3001 86.8021 46.5989 85.1693 48.1488C85.0688 48.244 85.0546 48.3522 85.1268 48.4732C87.3708 52.2848 89.5065 56.7876 92.3696 60.1396C92.4831 60.2735 92.4522 60.3405 92.2768 60.3405H85.7768C85.663 60.3404 85.5515 60.3103 85.4542 60.2532C85.3568 60.1961 85.2771 60.1142 85.2235 60.0161L81.339 52.922C81.3219 52.8906 81.2948 52.8659 81.2619 52.8519C81.229 52.8379 81.1924 52.8354 81.1579 52.8448C81.1234 52.8542 81.0931 52.8749 81.0719 52.9036C81.0507 52.9324 81.0398 52.9674 81.0411 53.0031L81.1804 60.0315C81.1855 60.2375 81.0849 60.3405 80.8786 60.3405H74.9396C74.7926 60.3405 74.719 60.2684 74.719 60.1242L74.6997 33.7636C74.6997 33.6925 74.7202 33.623 74.7587 33.564C74.7972 33.5049 74.8521 33.4588 74.9164 33.4315C76.8303 32.5845 78.806 31.9383 80.8438 31.4929C80.983 31.462 81.0527 31.5173 81.0527 31.6589L81.1417 44.4144ZM51.8607 60.2092C51.7188 60.2375 51.6428 60.28 51.6324 60.3366H45.9836C45.8263 60.3366 45.7476 60.2581 45.7476 60.101C45.7683 55.557 45.7476 51.0271 45.6857 46.5114C45.6586 44.4801 43.6274 43.1169 42.2074 44.9242C41.9263 45.2409 41.7857 45.5524 41.7857 45.8587C41.7806 50.6139 41.7844 55.4978 41.7973 60.5104L35.928 60.3482C35.7758 60.3456 35.6997 60.2684 35.6997 60.1165C35.6842 51.4249 35.6829 42.7474 35.6958 34.0841C35.6958 33.7495 35.8596 33.5383 36.1872 33.4508C38.0366 32.9526 39.7351 32.1533 41.631 31.7207C41.7625 31.6898 41.8283 31.7413 41.8283 31.8752L41.7935 41.0701C41.7935 41.2684 41.8799 41.3199 42.0527 41.2246C42.9232 40.7612 43.639 40.1008 44.5289 39.8498C49.4077 38.448 51.6557 42.2982 51.6905 46.5346C51.7292 51.1095 51.7859 55.6677 51.8607 60.2092Z" fill="white"/>
<path d="M55.9817 38.7481C57.9961 38.7973 59.667 37.2884 59.7138 35.378C59.7606 33.4676 58.1655 31.879 56.1511 31.8299C54.1367 31.7807 52.4657 33.2896 52.4189 35.2C52.3722 37.1105 53.9673 38.699 55.9817 38.7481Z" fill="white"/>
<path d="M103.973 40.5488L105.099 41.4486C106.198 43.4953 106.772 45.5588 106.821 47.639L106.805 56.4478L106.797 59.5102L106.871 59.877C106.904 60.0367 106.84 60.1216 106.677 60.1319L102.518 60.4215C102.201 60.4782 101.918 60.4537 101.671 60.3482C101.617 60.2349 101.51 60.1216 101.35 60.0083L101.249 59.4098C101.223 59.2527 101.142 59.2167 101.005 59.3016C99.9891 59.9427 99.2965 60.3147 98.9277 60.4177C92.8958 62.1014 89.0655 56.4555 91.3057 51.1648C92.9229 47.3571 96.3548 46.4921 100.193 45.7197C100.221 45.7139 100.248 45.7016 100.271 45.6838C100.294 45.666 100.313 45.6431 100.326 45.617C100.338 45.5908 100.345 45.5621 100.345 45.5331C100.344 45.504 100.337 45.4754 100.324 45.4494C99.726 44.2394 98.7484 43.4554 97.3917 43.0976C95.7125 42.8659 93.974 43.0319 92.1762 43.5957L92.2574 38.7878C92.2598 38.6962 92.2953 38.6087 92.3574 38.5418C92.4194 38.4749 92.5036 38.4333 92.5941 38.4248C96.5753 38.0154 100.731 37.7799 103.973 40.5488ZM97.2872 51.2073C95.9124 52.1805 95.4636 53.3764 95.9408 54.7949C97.0551 57.2703 99.5893 55.8839 100.854 54.4937C100.937 54.4045 100.982 54.2873 100.982 54.1654V50.3925C100.982 50.2457 100.909 50.1736 100.762 50.1762C99.4797 50.1839 98.3215 50.5276 97.2872 51.2073Z" fill="white"/>
<path d="M24.0771 39.2087L19.0125 39.2049C18.8887 39.2049 18.8178 39.2667 18.7997 39.3902C18.2503 42.9585 17.8054 47.4421 16.4938 50.7864C16.485 50.8109 16.4684 50.8317 16.4463 50.8456C16.4243 50.8595 16.3983 50.8655 16.3724 50.8629C16.3465 50.8602 16.3223 50.8489 16.3036 50.8308C16.2849 50.8128 16.2728 50.789 16.2693 50.7632L14.242 39.8266C14.1543 39.3555 13.8705 39.1173 13.3908 39.1122L7.42857 39.0813C7.24802 39.0813 7.17708 39.1688 7.21577 39.3439C8.7131 46.3608 10.3961 53.7561 12.9574 60.1551C13.0168 60.3044 13.1264 60.3804 13.2863 60.3829L18.8074 60.4602C19.0009 60.4627 19.1221 60.3713 19.1711 60.186L21.4616 51.775C21.4683 51.7544 21.4813 51.7364 21.4987 51.7235C21.5162 51.7106 21.5372 51.7035 21.5589 51.703C21.5806 51.7026 21.6019 51.7089 21.6198 51.7211C21.6377 51.7333 21.6514 51.7508 21.6589 51.7711C22.4921 54.4744 23.302 57.1313 24.0887 59.7419C24.2937 60.4177 24.6807 60.6146 25.35 60.4022C25.4366 60.3742 25.529 60.365 25.6208 60.3752L26.8628 60.522L26.9092 60.8232C26.8963 60.8566 26.8847 60.8914 26.8744 60.9274L24.2473 60.827C22.7229 58.6683 22.4211 56.8069 21.8176 54.5902C21.811 54.5619 21.7953 54.5364 21.773 54.5175C21.7507 54.4987 21.7229 54.4876 21.6937 54.4859C21.6646 54.4842 21.6356 54.4919 21.6112 54.5079C21.5868 54.5239 21.5683 54.5474 21.5583 54.5748C21.3958 54.9867 21.2127 55.6252 21.0089 56.4902C20.8645 57.1159 20.3022 58.4598 19.322 60.522C19.2962 60.5755 19.2562 60.621 19.2065 60.6536C19.1567 60.6863 19.0991 60.7048 19.0396 60.7073L15.2595 60.8811L12.8762 60.7807C12.7395 60.773 12.6402 60.7086 12.5783 60.5876C11.9979 59.4497 11.4201 57.9513 10.8449 56.0925C10.2065 54.0264 5.88869 40.738 6.92946 38.7183C6.96216 38.6554 7.01194 38.6027 7.07335 38.5659C7.13476 38.5292 7.20544 38.5097 7.27768 38.5098L13.5765 38.5484C13.8207 38.5493 14.0572 38.6338 14.2466 38.7877C14.436 38.9416 14.5668 39.1556 14.6173 39.3941L16.3429 47.4884C16.3516 47.5233 16.372 47.5542 16.4007 47.576C16.4294 47.5978 16.4647 47.6092 16.5007 47.6083C16.5368 47.6074 16.5714 47.5943 16.599 47.5711C16.6266 47.5479 16.6454 47.516 16.6524 47.4807C17.1321 44.5689 17.7899 41.6455 17.8982 38.7183C17.9034 38.5793 17.9756 38.5085 18.1149 38.5059L24.0539 38.4171C24.1412 38.4173 24.2258 38.4473 24.2937 38.5021C24.3616 38.5569 24.4087 38.6332 24.4273 38.7183C24.4458 38.8035 24.4346 38.8924 24.3955 38.9704C24.3565 39.0484 24.2919 39.1106 24.2125 39.147L24.0771 39.2087ZM113.615 61.2055C111.298 61.0948 109.026 60.5297 106.797 59.5102L106.805 56.4478C107.365 55.9766 107.772 55.3781 108.028 54.652C108.067 54.5405 108.149 54.4479 108.256 54.3933C108.862 54.0766 109.439 54.0264 109.985 54.2427C110.837 54.5787 115.282 56.135 115.004 54.2813C114.994 54.2178 114.971 54.1568 114.938 54.1017C114.904 54.0467 114.859 53.9988 114.806 53.9608C112.918 52.6246 110.562 51.6128 109.037 50.1453C108.269 49.4064 107.53 48.571 106.821 47.639C106.772 45.5588 106.198 43.4953 105.099 41.4486L105.029 40.6685C105.086 40.6556 105.139 40.6479 105.188 40.6453C105.283 40.635 105.359 40.6685 105.416 40.7457C106.1 41.688 106.585 42.7165 106.871 43.8313C106.902 43.96 106.957 43.9703 107.037 43.8622C107.594 43.1079 108.017 42.2814 108.306 41.3829C108.345 41.2594 108.415 41.1525 108.515 41.0624C111.939 37.9884 118.671 37.1967 122.343 40.2862C122.416 40.3461 122.467 40.4282 122.489 40.5202C122.51 40.6122 122.501 40.709 122.463 40.7959L120.741 44.7929C120.651 45.0036 120.484 45.1722 120.274 45.2647C120.063 45.3572 119.825 45.3666 119.608 45.2911C118.687 44.9705 114.853 43.0628 114.756 45.013C114.754 45.0804 114.766 45.1471 114.793 45.2081C114.82 45.269 114.86 45.3224 114.911 45.3644C116.025 46.3016 117.217 47.1087 118.486 47.7858C122.107 49.7205 123.426 53.312 121.577 57.1429C120.089 60.2272 117.435 61.5814 113.615 61.2055ZM112.771 39.5447C110.813 40.1163 108.554 41.8734 108.113 44.0167C106.987 49.485 110.906 50.8907 114.829 53.088C115.735 53.5952 116.008 54.2491 115.65 55.0498C114.864 56.8031 110.701 55.2429 109.432 54.7486C109.357 54.719 109.276 54.7053 109.196 54.7083C109.115 54.7114 109.036 54.7312 108.963 54.7664C108.89 54.8016 108.826 54.8515 108.773 54.9129C108.721 54.9743 108.682 55.0459 108.658 55.1232L107.668 58.4211C107.572 58.7378 107.67 58.9772 107.962 59.1394C111.224 60.9352 115.936 61.499 118.996 59.2862C121.809 57.2472 122.672 52.9606 120.324 50.153C119.174 48.7821 112.79 46.2179 114.207 44.0591C115.363 42.302 118.54 44.0283 119.882 44.7813C119.91 44.7967 119.94 44.8061 119.971 44.8089C120.002 44.8118 120.034 44.808 120.064 44.7978C120.094 44.7876 120.121 44.7712 120.145 44.7498C120.168 44.7283 120.187 44.7022 120.2 44.6732L121.867 40.85C121.902 40.7692 121.905 40.6782 121.875 40.5961C121.844 40.514 121.783 40.4472 121.705 40.4098C119.02 39.1161 115.495 38.7492 112.771 39.5447Z" fill="#4F0B40"/>
<path d="M24.0771 39.2087C24.2938 39.3709 24.4305 39.5589 24.4872 39.7726C24.8316 42.4488 24.9863 45.3451 25.8955 47.89L26.5301 50.6242C26.5791 50.8276 26.6474 50.834 26.7351 50.6435C26.9802 50.1131 27.1685 49.5171 27.3 48.8555C27.9706 45.4365 28.4943 42.2763 28.8708 39.3748C28.8889 39.2435 28.9637 39.1778 29.0952 39.1778L34.3378 39.2049C34.7918 39.2075 34.9723 39.4314 34.8795 39.8768C33.5305 46.4058 31.7855 52.7662 29.6446 58.9579C29.7246 58.9785 29.7311 59.0854 29.664 59.2785C29.4512 60.4331 27.7991 60.1242 26.8628 60.5219L25.6208 60.3752C25.529 60.365 25.4366 60.3742 25.35 60.4022C24.6807 60.6146 24.2938 60.4177 24.0887 59.7419C23.302 57.1313 22.4921 54.4744 21.6589 51.7711C21.6514 51.7508 21.6377 51.7333 21.6198 51.7211C21.6019 51.7089 21.5806 51.7026 21.5589 51.703C21.5372 51.7035 21.5162 51.7106 21.4987 51.7235C21.4813 51.7364 21.4683 51.7544 21.4616 51.775L19.1711 60.186C19.1221 60.3713 19.0009 60.4627 18.8074 60.4602L13.2863 60.3829C13.1264 60.3804 13.0168 60.3044 12.9574 60.1551C10.3961 53.7561 8.7131 46.3608 7.21578 39.3439C7.17709 39.1688 7.24802 39.0813 7.42858 39.0813L13.3908 39.1122C13.8705 39.1173 14.1543 39.3555 14.242 39.8266L16.2693 50.7632C16.2728 50.7889 16.2849 50.8128 16.3036 50.8308C16.3223 50.8489 16.3465 50.8602 16.3724 50.8629C16.3983 50.8655 16.4243 50.8595 16.4464 50.8456C16.4684 50.8317 16.485 50.8109 16.4938 50.7864C17.8054 47.4421 18.2503 42.9585 18.7997 39.3902C18.8178 39.2667 18.8887 39.2049 19.0125 39.2049L24.0771 39.2087ZM72.4943 44.2484C72.4505 44.3797 72.3796 44.4981 72.2815 44.6037C72.181 44.7118 72.0649 44.735 71.9333 44.6732L71.3917 44.4183C69.6699 43.4992 66.6057 42.1746 66.2226 44.8701C66.2052 44.9823 66.2285 45.0985 66.2884 45.1984C68.4241 48.7474 74.2431 48.562 73.7634 54.4126C73.5003 57.6063 71.5542 59.877 68.3699 60.5104C65.267 61.1244 62.8295 60.24 59.8696 59.0274C59.7381 58.9734 59.693 58.8781 59.7342 58.7417L60.9452 54.876C60.9598 54.8307 60.9836 54.7889 61.0152 54.7532C61.0468 54.7176 61.0854 54.6888 61.1287 54.6689C61.172 54.6489 61.219 54.6381 61.2666 54.6372C61.3143 54.6363 61.3616 54.6453 61.4057 54.6636C62.8398 55.2455 64.359 55.6587 65.9634 55.9032C67.6967 56.1697 69.2173 54.3624 67.3408 53.173C65.7622 52.1728 63.1351 51.2382 61.8119 49.8673C58.5271 46.465 60.303 40.8848 64.7137 39.6722C67.8321 38.8148 70.8113 39.0337 73.6512 40.3287C73.753 40.3749 73.8328 40.459 73.8739 40.5634C73.915 40.6677 73.9142 40.7843 73.8717 40.8886L72.4943 44.2484ZM108.113 44.0167C108.554 41.8734 110.813 40.1163 112.771 39.5447C115.495 38.7492 119.02 39.1161 121.705 40.4098C121.783 40.4472 121.844 40.514 121.875 40.5961C121.905 40.6782 121.902 40.7692 121.867 40.85L120.2 44.6732C120.187 44.7022 120.168 44.7283 120.145 44.7498C120.121 44.7712 120.094 44.7876 120.064 44.7978C120.034 44.808 120.002 44.8118 119.971 44.8089C119.94 44.8061 119.91 44.7967 119.882 44.7813C118.54 44.0283 115.363 42.302 114.207 44.0591C112.79 46.2179 119.174 48.7821 120.324 50.153C122.672 52.9606 121.809 57.2472 118.996 59.2862C115.936 61.499 111.224 60.9352 107.962 59.1394C107.67 58.9772 107.572 58.7378 107.668 58.4211L108.658 55.1232C108.682 55.0459 108.721 54.9743 108.773 54.9129C108.826 54.8515 108.89 54.8016 108.963 54.7664C109.036 54.7312 109.115 54.7114 109.196 54.7083C109.276 54.7053 109.357 54.719 109.432 54.7486C110.701 55.2429 114.864 56.803 115.65 55.0498C116.008 54.2491 115.735 53.5952 114.829 53.088C110.906 50.8906 106.987 49.485 108.113 44.0167ZM58.9527 39.5563L58.9643 60.1898C58.9256 60.3211 58.7102 60.3765 58.3182 60.3559L53.5283 60.4022C53.4959 60.4027 53.4638 60.3967 53.4338 60.3845C53.4038 60.3723 53.3765 60.3542 53.3534 60.3312C53.3304 60.3082 53.3121 60.2808 53.2996 60.2506C53.2871 60.2203 53.2807 60.1879 53.2807 60.1551L53.3735 39.8614C53.3742 39.822 53.3833 39.7833 53.4001 39.7477C53.417 39.7121 53.4412 39.6805 53.4712 39.6549C53.5012 39.6294 53.5362 39.6105 53.5741 39.5995C53.612 39.5884 53.6517 39.5856 53.6908 39.5911C55.357 39.8434 57.111 39.8318 58.9527 39.5563Z" fill="white"/>
<path d="M97.3917 43.0976C97.3091 43.3344 97.2782 43.5391 97.2988 43.7116C97.3117 43.83 97.3775 43.9008 97.4961 43.924C98.0687 44.0373 98.4866 44.3527 98.7497 44.8701C98.7732 44.9175 98.7848 44.9698 98.7834 45.0226C98.782 45.0754 98.7678 45.1271 98.7418 45.1732C98.7159 45.2192 98.6791 45.2582 98.6346 45.2869C98.5901 45.3155 98.5393 45.3328 98.4866 45.3374C93.8566 45.7056 90.9587 48.096 89.7929 52.5087C89.7619 52.622 89.7606 52.7366 89.789 52.8524C89.8973 53.3081 89.8161 53.702 89.5452 54.0342C89.4188 54.1912 89.3028 54.1835 89.197 54.011L85.9741 48.701C85.9448 48.6529 85.9331 48.5961 85.9408 48.5399C85.9486 48.4838 85.9753 48.4316 86.0167 48.3921C88.1098 46.4264 90.4119 45.2293 92.1762 43.5957C93.974 43.0319 95.7125 42.8659 97.3917 43.0976ZM71.3917 44.4183L71.9333 44.6732C72.0649 44.735 72.1809 44.7118 72.2815 44.6037C72.3796 44.4981 72.4505 44.3797 72.4943 44.2484L73.5042 44.3218C73.9091 44.3501 74.1077 44.5663 74.1 44.9705L73.9878 50.574C73.9852 50.713 73.9388 50.7298 73.8485 50.6242C72.3628 48.9096 70.4425 47.5193 68.0875 46.4535C67.4839 46.1831 67.0609 45.6669 66.8184 44.9049C66.7995 44.8466 66.7952 44.7845 66.806 44.7239C66.8168 44.6633 66.8423 44.6061 66.8803 44.5573C67.9366 43.2366 69.6119 44.4337 70.8732 44.8431C70.9815 44.8791 71.0705 44.8508 71.1402 44.7581L71.3917 44.4183Z" fill="#800F70"/>
<path d="M51.6324 60.3366L51.6518 60.6494C51.6621 60.7987 51.5925 60.8798 51.4429 60.8927C49.4516 61.0935 47.4603 61.0832 45.4691 60.8618C45.3635 60.8508 45.2645 60.8047 45.1875 60.7307C45.1105 60.6566 45.0598 60.5588 45.0435 60.4524C44.5405 57.1545 44.7997 53.4124 44.7455 50.6976C44.7185 49.3807 44.9738 46.1329 44.1845 45.1482C44.1455 45.0988 44.0927 45.0622 44.0327 45.043C43.9728 45.0237 43.9084 45.0227 43.8479 45.04C43.2057 45.2228 42.6588 45.1842 42.2074 44.9242C43.6274 43.1169 45.6586 44.4801 45.6857 46.5114C45.7476 51.0271 45.7683 55.557 45.7476 60.101C45.7476 60.2581 45.8263 60.3366 45.9836 60.3366H51.6324Z" fill="#4F0B40"/>
<path d="M42.2074 44.9242C42.6588 45.1842 43.2057 45.2228 43.8479 45.04C43.9084 45.0227 43.9728 45.0237 44.0327 45.043C44.0927 45.0622 44.1455 45.0988 44.1845 45.1482C44.9738 46.1329 44.7185 49.3807 44.7455 50.6976C44.7997 53.4124 44.5405 57.1545 45.0435 60.4524C45.0598 60.5588 45.1105 60.6566 45.1875 60.7307C45.2645 60.8047 45.3635 60.8508 45.469 60.8618C47.4603 61.0832 49.4516 61.0935 51.4429 60.8927C51.5925 60.8798 51.6621 60.7987 51.6518 60.6494L51.6324 60.3366C51.6428 60.28 51.7188 60.2375 51.8607 60.2092C53.1607 61.2866 56.4881 61.0742 58.0938 60.8927C58.2253 60.8772 58.3027 60.8052 58.3259 60.6764C58.3465 60.5683 58.3439 60.4615 58.3182 60.3559C58.7102 60.3765 58.9256 60.3211 58.9643 60.1898C63.642 60.8579 67.1512 62.8236 71.678 59.8693C72.3899 59.4033 72.9212 58.8241 73.272 58.1315C73.2977 58.0807 73.3391 58.0394 73.39 58.0137C73.4409 57.9881 73.4987 57.9793 73.5549 57.9888C73.6111 57.9983 73.6629 58.0256 73.7025 58.0665C73.7421 58.1075 73.7675 58.16 73.775 58.2165L74.0729 60.4254C74.0898 60.5461 74.1456 60.6577 74.2317 60.7429C74.3178 60.8281 74.4293 60.8822 74.5488 60.8966C76.7671 61.1746 78.9905 61.2222 81.219 61.0394C81.3827 61.0262 81.5366 60.957 81.6544 60.8436C81.7723 60.7302 81.8468 60.5796 81.8652 60.4177L82.2211 57.2317C82.2253 57.2013 82.2392 57.173 82.2608 57.1511C82.2823 57.1292 82.3103 57.1148 82.3407 57.11C82.3711 57.1052 82.4022 57.1104 82.4295 57.1246C82.4567 57.1389 82.4786 57.1616 82.492 57.1892C83.1471 58.5821 83.9957 59.8487 85.0378 60.9892C85.1202 61.079 85.2313 61.1366 85.3512 61.1514C86.9994 61.3522 91.6771 61.7191 93.0622 60.9661C93.1628 60.9094 93.2673 60.9004 93.3756 60.939L95.4804 61.6535C95.5862 61.6889 95.6803 61.7525 95.7525 61.8375C95.8247 61.9225 95.8722 62.0257 95.8901 62.136C95.908 62.2463 95.8955 62.3596 95.854 62.4637C95.8125 62.5678 95.7435 62.6588 95.6545 62.727L95.1631 63.1016C95.0573 63.1814 94.9684 63.2754 94.8961 63.3835C94.1649 64.4494 92.6753 65.0094 91.5958 65.9207C88.7753 68.3073 86.0631 69.4041 83.3393 70.7171C81.7414 71.4894 80.097 71.7405 78.4333 72.2579C76.5065 72.8642 74.5256 72.9453 72.5563 73.4049C69.4417 74.1386 65.8396 74.1463 62.6476 73.9378C60.8214 73.8181 59.1152 73.961 57.2619 73.5516C56.3101 73.3431 55.3313 73.4319 54.4452 73.2041C49.3071 71.8756 43.5732 70.6553 39.2631 67.4655C35.9667 65.0248 33.2738 63.3565 30.7589 59.8655C30.4933 59.4947 30.3385 59.1523 30.2946 58.8382C30.9408 56.8108 31.5946 55.0537 32.1286 52.7829C32.4691 51.327 32.9488 48.9482 34.0167 47.8437C34.076 47.7826 34.1518 47.7402 34.235 47.7216C34.3181 47.703 34.4048 47.709 34.4846 47.739C34.5643 47.7689 34.6335 47.8215 34.6838 47.8902C34.734 47.9589 34.763 48.0407 34.7673 48.1256C34.9375 51.9771 35.0175 55.8234 35.0071 59.6646C35.0071 60.6108 35.5333 60.9545 36.4348 61.0356C38.3281 61.2081 40.1156 61.033 41.7973 60.5104C41.7844 55.4978 41.7806 50.6139 41.7857 45.8587C41.7857 45.5524 41.9263 45.2409 42.2074 44.9242Z" fill="#800F70"/>
<path d="M106.821 47.639C107.53 48.571 108.269 49.4065 109.038 50.1453C110.562 51.6128 112.918 52.6246 114.806 53.9608C114.859 53.9988 114.904 54.0467 114.938 54.1018C114.971 54.1568 114.994 54.2178 115.004 54.2813C115.282 56.135 110.837 54.5787 109.985 54.2427C109.439 54.0264 108.862 54.0766 108.256 54.3933C108.149 54.4479 108.067 54.5405 108.028 54.652C107.772 55.3781 107.365 55.9766 106.805 56.4478L106.821 47.639Z" fill="#A2238E"/>
<path d="M67.0506 53.9569C67.1204 54.0027 67.1771 54.0658 67.215 54.1402C67.2529 54.2145 67.2707 54.2975 67.2668 54.3811C67.2629 54.4647 67.2374 54.5461 67.1927 54.6172C67.1481 54.6884 67.0858 54.7469 67.0119 54.7872C64.9923 55.8762 61.3399 52.8602 60.2179 54.9571C60.19 55.0085 60.1464 55.0496 60.0935 55.0745C60.0406 55.0994 59.981 55.1068 59.9236 55.0956C59.8662 55.0844 59.8138 55.0552 59.7742 55.0122C59.7346 54.9693 59.7097 54.9148 59.7033 54.8567C59.5124 52.9825 59.5511 51.1108 59.8193 49.2417C59.8266 49.1898 59.8496 49.1416 59.8853 49.1033C59.9209 49.065 59.9676 49.0385 60.0191 49.0272C60.0706 49.0159 60.1245 49.0204 60.1738 49.0401C60.2231 49.0597 60.2654 49.0937 60.2952 49.1374C61.8815 51.5433 64.6518 52.3813 67.0506 53.9569Z" fill="#800F70"/>
<path d="M95.9408 54.7949C98.742 55.5943 100.684 54.1461 100.1 51.4197C100.072 51.2936 99.9968 51.2073 99.8756 51.161C99.1946 50.9087 98.5382 50.9717 97.9062 51.3502C97.785 51.4197 97.6638 51.421 97.5426 51.3541L97.2872 51.2073C98.3215 50.5276 99.4797 50.1839 100.762 50.1762C100.909 50.1736 100.982 50.2457 100.982 50.3925V54.1654C100.982 54.2873 100.937 54.4045 100.854 54.4937C99.5893 55.8839 97.0551 57.2703 95.9408 54.7949Z" fill="#4F0B40"/>
<path d="M95.9408 54.7949C95.4636 53.3763 95.9124 52.1805 97.2872 51.2073L97.5426 51.3541C97.6638 51.421 97.785 51.4197 97.9063 51.3502C98.5382 50.9717 99.1946 50.9087 99.8756 51.161C99.9968 51.2073 100.072 51.2936 100.1 51.4197C100.684 54.1461 98.742 55.5943 95.9408 54.7949Z" fill="#800F70"/>
<path d="M24.2473 60.827C24.0926 61.3368 23.8308 61.8517 23.4619 62.3717C21.5583 65.0518 25.7562 69.8443 27.6443 71.2616C30.2134 73.1963 31.8345 74.66 34.7092 76.139C35.2818 76.4325 35.7384 76.9925 36.4426 77.3555C40.0756 79.2323 43.3604 80.3136 46.8658 81.8313C47.3688 82.0501 47.922 82.2123 48.5256 82.3179C49.9726 82.5805 51.5048 83.0516 52.7854 83.2563C55.5479 83.6965 58.442 84.2604 61.0652 84.438C66.1104 84.7727 71.3233 84.4972 76.7039 83.6116C78.9892 83.2357 80.9508 82.7826 82.5887 82.2522C83.289 82.0244 84.2292 81.9317 85.003 81.5726C86.3842 80.9354 87.8119 80.1476 89.2241 79.6996C94.7027 77.9541 98.7652 74.5209 103.234 70.7325C104.766 69.4311 105.757 67.8323 106.863 66.1988C108.101 64.3606 108.511 62.7618 107.289 60.9043C107.263 60.8639 107.228 60.8291 107.189 60.8021C107.149 60.7751 107.104 60.7563 107.057 60.747C107.009 60.7376 106.961 60.7378 106.913 60.7476C106.866 60.7574 106.821 60.7765 106.782 60.8039C105.668 61.5608 104.31 61.1746 102.87 61.2016C102.721 61.2042 102.641 61.1321 102.63 60.9854L102.615 60.8116L102.518 60.4215L106.677 60.1319C106.84 60.1216 106.904 60.0366 106.871 59.877L106.797 59.5102C109.026 60.5297 111.298 61.0948 113.615 61.2055C113.901 63.4415 113.572 63.4608 112.771 65.214C112.098 66.6918 111.213 68.0164 110.117 69.1878C108.179 71.2539 106.94 72.7908 105.18 74.3935C104.364 75.1388 103.273 75.6988 102.348 76.475C101.67 77.0491 101.065 77.5344 100.533 77.9309C99.6164 78.6144 99.1366 79.2516 98.0262 79.7537C96.8268 80.2982 95.7551 81.2173 94.7143 81.7463C91.4217 83.4146 88.2375 84.8203 84.6083 85.8978C82.1515 86.6238 79.6792 87.5892 76.7155 87.8402C75.2065 87.969 73.7118 88.1891 72.2313 88.5006C71.6483 88.6242 71.0138 88.6486 70.3277 88.574C68.5982 88.3886 66.3967 88.7053 65.1857 88.6937C64.1565 88.6821 62.342 88.3616 61.4637 88.8945C61.3476 88.964 61.2225 88.9898 61.0884 88.9717C57.6191 88.5109 54.168 87.9471 50.7348 87.2803C48.839 86.9134 46.8271 86.1797 44.8307 85.7008C43.1824 85.3069 41.8941 84.4959 40.3271 83.8858C39.2167 83.4571 38.2262 82.6925 37.0616 82.2098C36.5199 81.9832 36.0802 81.7656 35.7423 81.5571C34.1637 80.5788 32.5374 79.6841 30.8634 78.8732C30.4223 78.6608 30.2676 78.1858 29.8265 78.0158C28.8708 77.6451 28.4723 76.8457 27.6908 76.3784C26.1199 75.449 25.0134 74.5789 24.3711 73.7679C23.6953 72.9106 23.2027 72.3364 22.8932 72.0455C21.2785 70.5317 19.874 68.8467 18.6798 66.9904C17.9021 65.7856 16.7762 65.0943 16.4435 63.4106C16.4283 63.3276 16.3877 63.2519 16.3274 63.1943C15.7573 62.6356 15.5716 61.9791 15.7702 61.2248C15.8063 61.0909 15.7535 61.024 15.6116 61.024C15.4517 61.0266 15.3343 60.9789 15.2595 60.8811L19.0396 60.7073C19.0991 60.7048 19.1567 60.6863 19.2065 60.6536C19.2562 60.621 19.2962 60.5755 19.322 60.5219C20.3022 58.4597 20.8645 57.1158 21.0089 56.4902C21.2127 55.6252 21.3958 54.9867 21.5583 54.5748C21.5683 54.5474 21.5868 54.5239 21.6112 54.5079C21.6356 54.4919 21.6646 54.4842 21.6937 54.4859C21.7229 54.4876 21.7507 54.4987 21.773 54.5175C21.7953 54.5363 21.8109 54.5618 21.8176 54.5902C22.4211 56.8069 22.7229 58.6683 24.2473 60.827Z" fill="#C55BA6"/>
<path d="M29.664 59.2784C29.6795 59.3711 29.713 59.4535 29.7646 59.5256C35.6804 67.925 43.5229 72.1961 53.5012 74.324C58.3723 75.3628 63.789 75.2354 68.7762 75.0963C80.0119 74.7874 90.6866 70.2305 98.0146 61.6264C98.9315 60.549 100.05 60.1705 101.35 60.0083C101.51 60.1216 101.617 60.2349 101.671 60.3482C101.686 60.5876 101.655 60.7665 101.578 60.8849C98.5988 64.6618 95.9059 67.7821 91.8705 70.3618C85.9122 74.1669 79.4677 76.4377 72.5369 77.174C56.1979 78.9079 37.7348 75.7644 27.8765 61.0008C27.6108 60.5992 27.2884 60.54 26.9092 60.8232L26.8628 60.5219C27.7991 60.1242 29.4512 60.4331 29.664 59.2784Z" fill="#F7CFA1"/>
<path d="M101.671 60.3482C101.918 60.4537 102.201 60.4782 102.518 60.4215L102.615 60.8116C102.501 60.9326 102.487 61.0562 102.572 61.1823C102.597 61.2204 102.631 61.2516 102.671 61.2732C102.711 61.2948 102.756 61.306 102.801 61.3059H103.601C103.664 61.3059 103.724 61.3258 103.774 61.3627C103.823 61.3997 103.859 61.4516 103.876 61.5106C104.004 61.9585 103.876 62.5648 104.124 62.9124C104.258 63.0978 104.445 63.202 104.685 63.2252C104.793 63.2355 104.858 63.2934 104.878 63.399C105.548 66.7394 100.912 70.9295 98.6723 72.5939C97.3801 73.5542 96.1071 74.5415 94.8536 75.5559C94.5183 75.8288 93.956 76.1197 93.1667 76.4287C91.8357 76.9539 90.7679 77.8614 89.2473 78.1935C89.1279 78.2182 89.0219 78.2856 88.9494 78.3827C88.6515 78.7766 88.2801 78.6646 87.9473 78.7998C85.6839 79.6957 83.5946 80.5453 81.1223 81.0589C79.5205 81.3911 77.9278 81.7592 76.3441 82.1634C74.9744 82.5135 73.8679 82.6719 73.0244 82.6384C72.15 82.6075 71.5116 82.8856 70.7958 82.8663C68.5015 82.8083 66.1104 83.0825 63.9747 82.9474C61.6765 82.8032 59.3847 82.6075 57.0994 82.3604C54.7741 82.1055 52.4488 81.4992 50.1235 80.9933C49.7366 80.9083 49.2182 80.7255 48.5682 80.4449C47.3997 79.939 46.0842 79.912 45.0048 79.4602C43.7628 78.9427 42.3158 78.1858 41.008 77.9386C39.3908 77.6374 35.6378 75.6718 33.947 73.8451C33.2196 73.0612 32.1789 72.4974 31.5327 71.8486C30.0741 70.3888 27.5708 68.5043 26.7506 66.6506C26.236 65.4882 26.4836 64.6657 26.6655 63.4685C26.797 62.6189 27.2342 62.3833 26.9015 61.2866C31.4644 67.8825 37.4511 72.6029 44.8616 75.4478C47.392 76.4209 50.7696 77.34 53.3155 77.7726C63.9089 79.5683 74.9319 79.1087 85.0185 75.2006C86.2256 74.7333 87.4018 73.8683 88.6863 73.3122C90.0792 72.7123 90.9987 72.2631 91.4449 71.9644C92.7682 71.0801 93.8979 69.9911 95.225 69.0681C97.8559 67.2453 99.5622 64.6695 101.446 62.476C101.679 62.2083 101.838 61.9753 101.926 61.777C102.187 61.1952 102.071 60.8978 101.578 60.885C101.655 60.7665 101.686 60.5876 101.671 60.3482Z" fill="#F2B7D4"/>
<path d="M101.578 60.885C102.071 60.8979 102.187 61.1952 101.926 61.7771C101.839 61.9753 101.679 62.2083 101.446 62.476C99.5622 64.6695 97.856 67.2453 95.225 69.0681C93.8979 69.9911 92.7682 71.0801 91.4449 71.9645C90.9987 72.2631 90.0792 72.7123 88.6863 73.3122C87.4018 73.8683 86.2256 74.7333 85.0185 75.2006C74.9318 79.1088 63.9089 79.5683 53.3155 77.7726C50.7696 77.3401 47.392 76.4209 44.8616 75.4478C37.4511 72.6029 31.4644 67.8825 26.9015 61.2866L26.8744 60.9275C26.8847 60.8914 26.8963 60.8567 26.9092 60.8232C27.2884 60.54 27.6108 60.5992 27.8765 61.0008C37.7348 75.7645 56.1979 78.9079 72.5369 77.174C79.4677 76.4377 85.9122 74.167 91.8705 70.3618C95.906 67.7821 98.5988 64.6618 101.578 60.885Z" fill="#FDF2EB"/>
<path d="M24.2473 60.827L26.8744 60.9275L26.9015 61.2866C27.2342 62.3833 26.797 62.6189 26.6655 63.4685C26.4836 64.6657 26.236 65.4882 26.7506 66.6506C27.5708 68.5043 30.0741 70.3888 31.5327 71.8486C32.1789 72.4974 33.2196 73.0612 33.947 73.8451C35.6378 75.6718 39.3908 77.6374 41.008 77.9386C42.3158 78.1858 43.7628 78.9427 45.0048 79.4602C46.0842 79.912 47.3997 79.939 48.5682 80.4449C49.2182 80.7256 49.7366 80.9083 50.1235 80.9933C52.4488 81.4992 54.7741 82.1055 57.0994 82.3604C59.3847 82.6075 61.6765 82.8032 63.9747 82.9474C66.1104 83.0825 68.5015 82.8083 70.7958 82.8663C71.5116 82.8856 72.15 82.6075 73.0244 82.6384C73.8679 82.6719 74.9744 82.5136 76.3441 82.1634C77.9278 81.7592 79.5205 81.3911 81.1223 81.059C83.5946 80.5453 85.6839 79.6957 87.9473 78.7998C88.2801 78.6646 88.6515 78.7766 88.9494 78.3827C89.0219 78.2856 89.1279 78.2183 89.2473 78.1935C90.7679 77.8614 91.8357 76.9539 93.1667 76.4287C93.956 76.1197 94.5183 75.8288 94.8536 75.5559C96.1071 74.5415 97.3801 73.5542 98.6723 72.5939C100.913 70.9295 105.548 66.7394 104.878 63.399C104.858 63.2934 104.793 63.2355 104.685 63.2252C104.445 63.202 104.258 63.0978 104.124 62.9124C103.876 62.5648 104.004 61.9585 103.876 61.5106C103.859 61.4516 103.823 61.3997 103.774 61.3628C103.724 61.3258 103.664 61.3059 103.601 61.3059H102.801C102.756 61.306 102.711 61.2948 102.671 61.2732C102.631 61.2516 102.597 61.2204 102.572 61.1823C102.487 61.0562 102.501 60.9326 102.615 60.8116L102.63 60.9854C102.641 61.1321 102.721 61.2042 102.87 61.2016C104.31 61.1746 105.668 61.5608 106.782 60.8039C106.821 60.7765 106.866 60.7574 106.913 60.7476C106.961 60.7378 107.009 60.7376 107.057 60.747C107.104 60.7563 107.149 60.7751 107.189 60.8021C107.229 60.8291 107.263 60.8639 107.289 60.9043C108.511 62.7618 108.101 64.3606 106.863 66.1988C105.757 67.8323 104.766 69.4311 103.234 70.7325C98.7652 74.5209 94.7027 77.9541 89.2241 79.6996C87.8119 80.1476 86.3842 80.9354 85.003 81.5726C84.2292 81.9317 83.289 82.0244 82.5887 82.2522C80.9508 82.7826 78.9892 83.2357 76.7039 83.6116C71.3233 84.4972 66.1104 84.7727 61.0652 84.438C58.442 84.2604 55.5479 83.6966 52.7854 83.2563C51.5048 83.0516 49.9726 82.5805 48.5256 82.3179C47.922 82.2123 47.3688 82.0501 46.8658 81.8313C43.3604 80.3136 40.0756 79.2323 36.4426 77.3555C35.7384 76.9925 35.2818 76.4325 34.7092 76.139C31.8345 74.66 30.2134 73.1964 27.6443 71.2616C25.7563 69.8443 21.5583 65.0518 23.4619 62.3718C23.8308 61.8517 24.0926 61.3368 24.2473 60.827Z" fill="#E087BB"/>
</g>
<defs>
<clipPath id="clip0_85_384">
<rect width="130" height="95" fill="white"/>
</clipPath>
</defs>
</svg>
