<svg width="47" height="54" viewBox="0 0 47 54" fill="none" xmlns="http://www.w3.org/2000/svg">
<g id="box img">
<path id="Vector" d="M46.6019 15.1427C46.5701 14.9875 46.5201 14.8372 46.4528 14.6954L46.4481 14.6826C46.3758 14.5368 46.2857 14.4018 46.1802 14.2813C46.1488 14.2452 46.1109 14.2173 46.0769 14.1838C46.0169 14.1182 45.9526 14.0574 45.8843 14.002C45.8641 13.987 45.8404 13.9799 45.8197 13.9659C45.8029 13.9546 45.7913 13.938 45.7741 13.9275L24.6035 0.734054C24.3865 0.599638 24.1454 0.515862 23.8959 0.488248C23.6465 0.460634 23.3944 0.489808 23.1562 0.573848L1.98565 8.11293C1.94216 8.12858 1.9064 8.15817 1.8642 8.17735C1.82458 8.19485 1.78236 8.20059 1.7436 8.22153C1.70999 8.23993 1.68501 8.26892 1.65271 8.28939C1.5153 8.37864 1.38872 8.48566 1.27584 8.60802C1.22102 8.67055 1.17023 8.73697 1.1238 8.80681C0.984698 9.01513 0.885595 9.25081 0.832206 9.50026C0.82402 9.53891 0.805919 9.57342 0.800327 9.613C0.793429 9.66201 0.801615 9.70986 0.798174 9.75887C0.794699 9.80704 0.779633 9.85237 0.779633 9.90115V36.2879C0.77972 36.5851 0.845547 36.8781 0.971745 37.1429C1.09794 37.4078 1.28094 37.637 1.50582 37.8119L20.9122 52.8901C20.9247 52.8998 20.9398 52.9028 20.9528 52.9122C20.9696 52.9246 20.9821 52.9417 20.9993 52.9537C21.0869 53.0065 21.1788 53.051 21.2737 53.0866C21.3284 53.111 21.3783 53.146 21.4347 53.1644C21.8483 53.3045 22.2961 53.2736 22.6894 53.0779L45.6242 41.7693C45.9303 41.6184 46.1896 41.377 46.3712 41.0736C46.5529 40.7702 46.6494 40.4176 46.6493 40.0575V15.5555C46.645 15.4716 46.6355 15.3881 46.6208 15.3056C46.614 15.2508 46.6131 15.1961 46.6019 15.1427ZM23.5155 4.41986L40.8217 15.2051L34.6254 17.7511L18.7022 6.1339L23.5155 4.41986ZM14.498 7.63077L30.6231 19.3959L22.2116 22.8521L15.4159 17.5718L6.35397 10.5307L14.498 7.63077ZM4.30807 13.6026L20.186 25.9392V47.6647L4.30807 35.3281V13.6026ZM23.7144 48.4202V26.2742L32.5355 22.6497V32.5184C32.5355 33.0183 32.7214 33.4977 33.0523 33.8511C33.3831 34.2046 33.8318 34.4032 34.2997 34.4032C34.7676 34.4032 35.2164 34.2046 35.5472 33.8511C35.8781 33.4977 36.064 33.0183 36.064 32.5184V21.2001L43.1208 18.3005V38.8519L23.7144 48.4202Z" fill="#4BE263"/>
<path id="Vector_2" d="M8.89514 30.0685C8.52092 29.7685 8.05047 29.6397 7.58731 29.7102C7.12415 29.7808 6.7062 30.0451 6.42541 30.4449C6.14463 30.8447 6.024 31.3473 6.09007 31.8421C6.15615 32.3369 6.4035 32.7834 6.77773 33.0834L10.3062 35.9105C10.4915 36.0591 10.7023 36.1672 10.9267 36.2286C11.1511 36.2901 11.3847 36.3037 11.614 36.2688C11.8433 36.2338 12.064 36.151 12.2633 36.0249C12.4627 35.8989 12.6369 35.7321 12.7759 35.5341C12.9149 35.3362 13.0161 35.1109 13.0736 34.8712C13.1312 34.6314 13.1439 34.382 13.1112 34.1369C13.0785 33.8919 13.0009 33.6562 12.883 33.4432C12.765 33.2303 12.6089 33.0442 12.4236 32.8957L8.89514 30.0685Z" fill="#4BE263"/>
</g>
</svg>
