<svg width="49" height="46" viewBox="0 0 49 46" fill="none" xmlns="http://www.w3.org/2000/svg">
<path d="M2.0327 0.531677C1.15983 0.531677 0.452271 1.28936 0.452271 2.224C0.452271 3.15864 1.15983 3.91633 2.0327 3.91633H8.33796C10.9537 10.8534 13.5301 17.8032 16.1248 24.7531L13.7378 30.9053C13.5378 31.4183 13.594 32.0368 13.8827 32.4988C14.1714 32.9607 14.6838 33.2523 15.2029 33.25H41.5433C42.3783 33.2624 43.1463 32.4518 43.1463 31.5576C43.1463 30.6635 42.3783 29.8527 41.5433 29.8653H17.5736L18.94 26.3749L44.3091 24.2066C44.9731 24.1507 45.5742 23.5968 45.7249 22.9021L48.8857 8.23528C49.0925 7.2474 48.2836 6.16946 47.3382 6.17276H12.5853L10.8732 1.58938C10.6387 0.968963 10.033 0.531694 9.40802 0.531677H2.0327ZM13.853 9.55741H23.6318V14.6344H15.7462L13.853 9.55741ZM26.7927 9.55741H33.1144V14.6344H26.7927V9.55741ZM36.2753 9.55741H45.3463L44.2597 14.6344H36.2753V9.55741ZM17.0138 18.019H23.6318V22.5847L18.8741 22.9902L17.0138 18.019ZM26.7927 18.019H33.1144V21.7738L26.7927 22.3204V18.019ZM36.2753 18.019H43.5189L42.8933 20.9453L36.2753 21.5095V18.019ZM20.471 34.3782C17.5802 34.3782 15.2029 36.9238 15.2029 40.0193C15.2029 43.1147 17.5802 45.6603 20.471 45.6603C23.3618 45.6603 25.7391 43.1147 25.7391 40.0193C25.7391 36.9238 23.3618 34.3782 20.471 34.3782ZM36.2753 34.3782C33.3845 34.3782 31.0072 36.9238 31.0072 40.0193C31.0072 43.1147 33.3845 45.6603 36.2753 45.6603C39.166 45.6603 41.5433 43.1147 41.5433 40.0193C41.5433 36.9238 39.166 34.3782 36.2753 34.3782ZM20.471 37.7628C21.6535 37.7628 22.5782 38.753 22.5782 40.0193C22.5782 41.2855 21.6535 42.2757 20.471 42.2757C19.2886 42.2757 18.3638 41.2855 18.3638 40.0193C18.3638 38.7531 19.2886 37.7628 20.471 37.7628ZM36.2753 37.7628C37.4577 37.7628 38.3825 38.7531 38.3825 40.0193C38.3825 41.2855 37.4577 42.2757 36.2753 42.2757C35.0927 42.2757 34.168 41.2855 34.168 40.0193C34.168 38.753 35.0927 37.7628 36.2753 37.7628Z" fill="#4BE263"/>
</svg>
