<svg width="133" height="94" viewBox="0 0 133 94" fill="none" xmlns="http://www.w3.org/2000/svg">
<path d="M23.9319 18.2735C23.9319 18.2735 25.7129 23.0988 23.9319 26.9043C22.155 30.7099 15.799 45.9403 21.6444 57.361C21.6444 57.361 17.58 76.3969 10.4643 78.9339C3.34864 81.4709 3.85513 78.6769 2.07828 80.9611C0.29313 83.2452 -0.466597 85.5294 0.29313 86.2921H10.9708C10.9708 86.2921 25.7129 78.1712 32.5712 70.0502C32.5712 70.0502 38.4165 69.7973 39.1804 73.0971C39.9442 76.3969 38.1674 81.4751 35.8758 81.9808C33.5883 82.4907 31.5582 85.7864 32.0647 87.3119H39.3589C39.3589 87.3119 45.0257 85.7864 46.3002 79.9496C46.3002 79.9496 48.0771 78.6811 49.8539 78.9339C49.8539 78.9339 50.6178 84.7707 51.3775 87.3119C51.3775 87.3119 47.3132 89.0861 46.0387 91.6273C44.7725 94.1643 50.871 93.1487 53.4118 92.6429C55.9525 92.1331 62.8149 91.6273 63.8321 89.596C63.8321 89.596 77.8144 92.6388 84.4236 85.5335C91.0286 78.4282 94.8439 83.3737 103.736 83.6307C112.629 83.8877 119.853 79.9703 124.498 80.5797C133.283 81.728 136.143 75.2569 128.135 73.1013C122.887 71.6918 119.749 74.1293 114.667 75.6507C109.582 77.1763 108.818 77.9224 99.4147 77.9224C90.0074 77.9224 91.9171 78.6852 90.5844 76.2104C89.2476 73.7355 93.2539 57.7465 81.2435 47.4699C69.2332 37.1933 58.3687 35.0957 52.4569 33.5744C46.5452 32.0488 48.2639 25.0099 49.0278 22.1536C49.7916 19.3016 49.9785 16.2547 49.2146 13.5891C49.2146 13.5891 52.2659 3.12186 50.5514 1.98186C48.8326 0.837713 44.2577 5.21531 43.307 6.74084C43.307 6.74084 38.1632 3.31255 32.8244 4.64739C32.8244 4.64739 31.3008 0.841858 29.2043 0.0790946C27.1078 -0.700251 26.73 4.44011 26.5432 8.44048C26.5432 8.44048 23.1514 14.0203 23.9319 18.2735Z" fill="#4BE263"/>
</svg>
