<svg width="131" height="93" viewBox="0 0 131 93" fill="none" xmlns="http://www.w3.org/2000/svg">
<path d="M129.479 11.5027C128.109 11.2302 123.862 10.0038 123.451 9.86753C123.04 9.595 122.218 9.32247 121.944 7.82355C121.67 6.32463 121.807 4.8257 119.615 3.32678C117.286 1.69159 116.327 1.82786 115.642 1.2828C113.724 0.601468 110.984 0.328938 108.244 0.874C105.367 1.41906 104.545 2.78172 103.038 3.59931C101.531 4.41691 99.339 7.55101 98.106 8.7774C96.873 10.0038 91.941 16.272 89.749 17.3621C87.694 18.4523 83.31 20.36 81.255 20.4963C79.2 20.7688 77.145 20.905 75.501 21.9952C73.857 22.949 72.624 23.7666 68.103 24.1754C63.582 24.5842 52.622 24.0392 50.567 23.7666C48.649 23.4941 44.128 22.6765 41.251 23.2216C38.237 23.9029 37.004 24.448 35.908 24.0392C34.812 23.6304 31.935 23.2216 30.017 23.3578C28.099 23.4941 24.126 25.1293 22.482 25.4018C20.838 25.6743 17.139 25.1293 14.947 24.0392C13.029 23.0853 6.86401 20.6325 5.22001 20.2237C3.57601 19.9512 2.06901 19.6787 1.24701 20.2237C0.562008 20.6325 0.0140079 22.6765 1.93201 24.5842C3.85001 26.3557 8.50801 30.7162 10.152 31.8063C11.796 32.8964 15.358 34.9404 18.509 34.9404C21.797 35.0767 24.263 34.3953 25.222 34.1228C26.181 33.8503 27.14 33.4415 27.003 33.714C26.866 33.9865 25.359 40.391 24.263 42.7075C23.167 44.8878 20.975 52.9275 20.153 56.1978C19.331 59.4682 18.098 64.3738 16.454 65.6002C14.81 66.8266 13.166 67.3716 11.933 70.9145C10.563 74.3212 9.74101 83.3147 9.19301 84.5411C8.50801 85.7675 8.37101 87.9477 9.05601 88.6291C9.74101 89.3104 10.563 89.7192 11.248 89.7192C12.07 89.8554 12.481 89.9917 13.166 89.9917C13.851 89.9917 14.673 90.128 15.495 89.7192C16.18 89.3104 16.865 88.6291 16.591 88.084C16.317 87.4027 14.536 86.7213 14.399 84.9499C14.125 83.1784 15.358 77.7278 15.769 76.9102C16.18 76.0926 17.687 73.0948 18.783 72.0047C19.879 70.9145 20.701 69.1431 21.523 68.7343C22.345 68.3255 29.058 62.6023 29.058 62.6023C29.058 62.6023 23.852 72.0047 24.263 74.8662C24.674 77.7278 25.907 81.1344 26.181 81.952C26.592 82.9059 26.866 85.0862 28.784 85.3587C30.702 85.6312 33.579 85.6312 34.538 85.3587C35.497 85.0862 36.182 83.0422 35.36 82.3608C34.538 81.5433 32.483 81.407 31.661 81.407C30.839 81.2707 30.428 81.1344 30.154 78.4091C29.88 75.8201 29.469 73.3673 30.017 72.4134C30.565 71.4596 32.483 68.3255 33.442 67.7804C34.401 67.2354 39.47 63.6925 42.21 60.6946C44.95 57.6968 46.868 55.244 47.142 54.9715C47.416 54.6989 48.923 51.8373 50.567 52.1099C52.211 52.5187 57.691 54.0176 57.691 54.0176C58.513 54.1539 62.212 54.9715 64.541 56.7429C66.87 58.6506 70.843 59.6045 74.679 60.0133C78.652 60.4221 81.392 60.5583 81.392 60.5583C81.392 60.5583 83.858 62.7386 84.132 65.3276C84.406 67.9167 84.954 70.2332 84.954 71.5959C84.954 72.686 85.228 75.4113 85.365 76.0926C85.502 76.774 85.639 81.6795 85.776 82.3608C85.913 82.9059 86.05 85.6312 86.324 86.4488C86.461 87.2664 87.694 90.2642 88.105 90.8093C88.516 91.3544 90.434 91.8994 91.804 92.0357C93.037 92.172 94.27 91.8994 94.818 91.6269C95.229 91.3544 95.503 90.2642 95.503 89.8554C95.366 89.4467 94.818 89.0379 94.818 89.0379C94.818 89.0379 96.599 89.5829 98.106 89.5829C99.476 89.5829 100.846 89.3104 101.12 89.0379C101.531 88.6291 102.49 87.2664 101.12 86.04C99.887 84.9499 98.654 84.8136 97.558 84.9499C96.462 85.0862 94.681 82.7696 94.681 81.1344C94.681 79.6355 95.092 75.1388 95.229 74.1849C95.366 73.231 96.188 67.0991 97.284 63.2837C98.38 59.4682 97.558 59.4682 99.75 57.1517C101.805 54.8352 107.148 48.0219 107.422 44.0702C107.696 40.2548 107.285 36.9844 108.929 33.8503C110.573 30.7162 112.902 24.993 113.176 24.5842C113.45 24.1754 114.135 20.6325 114.546 20.6325C114.957 20.6325 121.67 21.8589 123.588 21.4501C125.506 21.0413 127.013 19.8149 127.698 19.6787C128.657 19.5424 129.479 18.1797 129.753 16.6808C130.164 15.0456 130.164 14.9094 130.301 13.4104C130.575 12.8654 130.849 11.639 129.479 11.5027Z" fill="#4BE263"/>
</svg>
