<svg width="130" height="99" viewBox="0 0 130 99" fill="none" xmlns="http://www.w3.org/2000/svg">
<path d="M128.616 24.8628C114.094 17.5045 101.216 34.4014 97.106 40.9422C92.996 34.1289 82.858 25.9529 78.474 22.6826C76.556 21.0474 75.186 18.8671 75.46 16.4143C76.556 6.87575 97.106 7.42082 97.106 7.42082C68.61 -11.3838 48.608 11.7813 40.114 15.5968C35.456 17.777 28.606 21.3199 25.592 25.1353C20.112 32.4937 6.96 42.0323 6.96 42.0323C6.96 42.0323 9.426 48.028 7.508 47.7554C5.864 47.4829 0.658001 45.5752 0.658001 45.5752C0.110001 48.028 1.206 50.7533 2.85 52.9335C6.412 58.1116 30.798 75.0086 43.128 86.4549C60.938 102.807 76.008 98.9913 83.68 94.9034C88.338 92.4506 92.996 90.2703 98.202 89.1802C101.764 88.3626 102.312 87.8175 89.16 90.2703C76.282 92.7231 71.35 89.9978 69.98 86.7274C68.61 83.7296 69.98 80.1867 72.72 78.5515C74.638 77.4614 96.832 57.8391 97.38 57.294C101.49 63.5623 114.368 81.2768 129.164 73.9184C129.164 73.9184 115.19 70.6481 118.204 64.1073C122.588 55.1138 121.218 40.1246 118.478 35.219C114.094 28.1332 128.616 24.8628 128.616 24.8628ZM22.304 45.8477C20.112 45.8477 17.92 43.94 17.92 41.4872C17.92 39.0344 19.838 37.1267 22.304 37.1267C24.77 37.1267 26.688 39.0344 26.688 41.4872C26.688 43.94 24.77 45.8477 22.304 45.8477ZM75.46 64.3799C55.732 63.2897 45.868 70.6481 45.594 70.9206C44.224 71.4657 42.306 70.6481 41.758 69.2854C41.21 67.6502 42.032 66.015 43.402 65.47C44.224 65.1974 49.156 63.0172 55.458 62.4721C63.678 61.382 74.912 63.0172 80.94 64.9249C80.666 64.9249 78.474 64.3799 75.46 64.3799ZM75.46 46.1203C56.006 45.0301 45.868 52.3885 45.594 52.661C44.224 53.2061 42.306 52.3885 41.758 51.0258C41.21 49.3906 42.032 47.7554 43.402 47.2104C52.444 44.4851 60.664 42.3048 75.46 45.3027C78.474 45.8477 80.392 46.6653 80.94 46.6653C80.666 46.3928 78.474 46.1203 75.46 46.1203ZM75.46 27.5881C65.87 27.0431 53.814 28.6783 45.868 33.8563C45.868 33.8563 45.594 33.8563 45.594 34.1289C44.224 34.6739 42.306 33.8563 41.758 32.4937C41.21 31.131 42.032 29.2233 43.402 28.6783C51.074 25.4079 62.308 24.0452 75.46 26.7705C78.474 27.3156 80.392 28.1332 80.94 28.1332C80.666 28.1332 78.474 27.8607 75.46 27.5881Z" fill="#4AE163"/>
<path d="M22.304 43.3949C23.3633 43.3949 24.222 42.5408 24.222 41.4872C24.222 40.4336 23.3633 39.5795 22.304 39.5795C21.2447 39.5795 20.386 40.4336 20.386 41.4872C20.386 42.5408 21.2447 43.3949 22.304 43.3949Z" fill="#4AE163"/>
</svg>
