<svg width="87" height="74" viewBox="0 0 87 74" fill="none" xmlns="http://www.w3.org/2000/svg">
<path d="M84.5 14.983L79.75 14.8587L81.75 13.2426C82.5 12.621 82.625 11.5022 82 10.7563C81.375 10.0105 80.25 9.88616 79.5 10.5077L74.75 14.3614C74.75 14.2371 74.625 14.1128 74.625 13.9885C72.375 10.3834 66.75 1.80584 63.375 0.811344C62.875 0.687032 62.375 0.562718 61.625 0.562718C57 0.562718 46.625 3.29759 46.125 3.42191C46 3.42191 45.625 3.54622 45 3.54622C43.75 3.54622 42 3.29759 40.75 3.04897C40.25 2.92466 39.75 2.92466 39.25 2.80034C38.375 2.67603 37.25 2.42741 36 2.05447C32.875 1.30859 28.625 0.314095 23.875 0.314095C15.875 0.314095 8.99998 3.29759 3.62498 9.14028C3.49998 9.26459 -0.250022 13.1183 0.999978 16.599C1.74998 18.7123 4.24998 20.0798 8.12498 20.3284C8.99998 20.4527 9.74998 20.4527 10.625 20.4527C19.125 20.4527 24.125 16.7233 25.625 13.2426C29.75 13.9885 35.5 15.8532 36.875 18.588C36.25 20.4527 31.25 27.1656 28.625 30.1491C28.375 30.1491 28.125 30.1491 27.875 30.1491L24 25.5495C23.375 24.8037 22.25 24.6793 21.5 25.3009C20.75 25.9225 20.625 27.0413 21.25 27.7872L22.5 29.2789L18.5 28.6573C17.5 28.533 16.625 29.1546 16.5 30.1491C16.375 31.1436 17 32.0138 18 32.1381L20.875 32.6353C20.625 32.7597 20.25 33.0083 20 33.1326C19.25 33.6298 19 34.7487 19.5 35.6188C19.875 36.1161 20.375 36.3647 21 36.3647C21.375 36.3647 21.75 36.2404 22 36.1161C28.25 31.8895 31.875 34.3757 32 34.5C32.75 35.1216 33.875 34.9973 34.5 34.2514C35.125 33.5055 35 32.3867 34.25 31.7652C34.25 31.7652 34 31.5165 33.625 31.3922C37.875 28.906 42.625 26.1711 43.5 25.6738C43.75 25.5495 44.125 25.5495 44.375 25.5495C47.25 25.5495 50.875 28.7817 52.375 32.1381C50.125 31.5165 47.25 30.7707 46 30.7707C44.75 30.7707 44.25 31.3922 44 31.8895C43.75 32.3867 40.125 39.0996 39.875 45.4395C39.75 45.4395 39.625 45.4395 39.5 45.4395L35.375 41.0886C34.75 40.3427 33.625 40.2184 32.875 40.84C32.125 41.4615 32 42.5803 32.625 43.3262L33.875 44.818L29.875 44.1964C28.875 44.0721 28 44.6937 27.875 45.6882C27.75 46.6827 28.375 47.5528 29.375 47.6772L32.25 48.1744C32 48.2987 31.625 48.5473 31.375 48.6717C30.625 49.1689 30.375 50.2877 30.875 51.1579C31.25 51.6552 31.75 51.9038 32.375 51.9038C32.75 51.9038 33.125 51.7795 33.375 51.6552C39.625 47.4285 43.25 49.9148 43.375 50.0391C44.125 50.6607 45.25 50.5363 45.875 49.7905C46.5 49.0446 46.375 47.9258 45.625 47.3042C45.5 47.1799 44.75 46.6827 43.5 46.3097C45.625 43.5748 48 41.2129 48.875 40.84L52.625 42.3317C52.375 46.807 48.125 52.1524 45.125 53.8928C42 55.6332 38.125 56.5033 34.25 56.5033C32.75 56.5033 31.25 56.379 29.75 56.1304C27.375 55.7575 25.375 55.1359 23.5 54.5143C20.75 53.6442 18.25 52.8983 15.375 52.8983C13.75 52.8983 12.125 53.1469 10.375 53.6442C6.49998 54.763 2.24998 58.741 2.12498 63.2162C1.99998 66.324 3.12498 69.3075 5.12498 71.4208C6.49998 72.9126 8.24998 73.6585 9.74998 73.6585C10.5 73.6585 11.25 73.1612 11.5 72.4153C11.75 71.6695 11.375 70.7993 10.75 70.4263C9.24998 69.5562 8.24998 67.3185 8.49998 65.0809C8.62498 63.8378 9.24998 61.7245 11.875 60.9786C12.875 60.6057 14 60.4813 15 60.4813C17.75 60.4813 20.375 61.6002 23.25 62.8433L23.875 63.0919C29.625 65.5781 34 66.5727 38.625 66.5727C41.75 66.5727 45 66.0754 48.625 65.0809C56.125 62.9676 62.125 57.7465 68 48.423C69 48.9203 70.5 50.0391 71.125 50.785C70.625 52.5253 68 57.0006 65.5 60.6057C65.25 60.9786 65.125 61.3515 65.25 61.7245C64.75 61.8488 64.5 61.8488 64.5 61.9731C63.625 62.346 63.125 63.2162 63.375 64.2107C63.625 65.0809 64.625 65.5782 65.625 65.3295C65.875 65.3295 70.375 63.9621 75.375 70.5507C75.75 71.0479 76.25 71.2965 76.75 71.2965C77.125 71.2965 77.5 71.1722 77.75 70.9236C78.5 70.302 78.75 69.1832 78.125 68.4373C77.875 68.0644 77.5 67.6915 77.25 67.3185L80.625 67.9401C80.75 67.9401 80.875 67.9401 80.875 67.9401C81.75 67.9401 82.5 67.3185 82.625 66.4483C82.75 65.4538 82.125 64.5837 81.125 64.4593L76.5 63.4648L78.625 62.2217C79.5 61.7245 79.75 60.6057 79.25 59.8598C78.75 58.9896 77.625 58.741 76.875 59.2382L71.25 62.5947C70.625 62.346 70.125 62.0974 69.5 61.9731C79.25 55.5088 81.875 49.7905 81.875 49.5418C82.125 48.9203 82 48.2987 81.625 47.8015C78.625 43.5748 73 39.8455 70.875 38.6023C70.75 23.1876 62.625 13.9885 58.125 10.2591L60.75 9.38891L69.125 14.61C68.125 14.8587 67.5 15.1073 67.375 15.2316C66.5 15.7288 66.25 16.7233 66.625 17.5935C67.125 18.4637 68.125 18.8367 69 18.3394C69.125 18.2151 73.625 16.2261 79.5 22.0688C79.875 22.4417 80.25 22.566 80.75 22.566C81.25 22.566 81.625 22.4417 82 22.0688C82.625 21.3229 82.625 20.2041 82 19.5825C81.625 19.2096 81.25 18.961 80.875 18.588L84.375 18.7123C85.375 18.7123 86.125 17.9665 86.125 16.972C86.25 15.8532 85.5 14.983 84.5 14.983Z" fill="#4AE163"/>
</svg>
