<svg width="53" height="84" viewBox="0 0 53 84" fill="none" xmlns="http://www.w3.org/2000/svg">
<path id="logo" fill-rule="evenodd" clip-rule="evenodd" d="M35.1306 75.2145C39.0675 75.9969 41.6628 77.3315 41.6628 78.845C41.6628 79.5469 41.1046 80.2103 40.1132 80.7981C39.7844 80.9929 36.7239 82.1105 36.5203 82.1624C33.9595 82.8136 30.6368 83.2071 27.0077 83.2071C18.9196 83.2071 12.3529 81.2525 12.3529 78.845C12.3529 77.3648 14.8351 76.0558 18.6271 75.267L18.6972 75.3534L18.8631 75.5553L19.0617 75.7938L19.2601 76.0276L19.4488 76.2469L19.6499 76.4763L19.8023 76.6473L19.9896 76.8544L20.1884 77.0702L20.3863 77.2807L20.5337 77.4347L20.721 77.6268L20.9166 77.8234L21.0634 77.9682L21.2472 78.1455L21.4407 78.328L21.5869 78.463L21.767 78.6254L21.9579 78.7933L22.1033 78.918L22.2797 79.0655L22.4678 79.2183L22.612 79.3319L22.795 79.4722L22.8405 79.5062C24.2849 80.5845 25.6507 81.1406 26.8576 81.1406L26.8859 81.1404C28.0859 81.1318 29.4415 80.5761 30.8747 79.5062L31.0051 79.4077L31.1491 79.2961L31.3247 79.156L31.4723 79.0351L31.6584 78.8783L31.8389 78.7221L31.9868 78.5911L32.1661 78.4281L32.3178 78.2875L32.496 78.1187L32.6919 77.9288L32.8437 77.7786L33.0255 77.5949L33.1815 77.4347L33.3614 77.2463L33.5216 77.0757L33.6989 76.8837L33.8999 76.6619L34.0603 76.4818L34.2404 76.2766L34.4056 76.0855L34.5822 75.8783L34.7527 75.675L34.9246 75.4672C34.9933 75.3838 35.0619 75.2995 35.1306 75.2145ZM48.8897 13.741C51.4915 18.0988 53.0004 23.2782 53.0004 28.8324C53.0004 44.3079 35.5718 80.1104 26.8576 80.1104C18.1433 80.1104 0.714722 44.3079 0.714722 28.8324C0.714722 13.3569 12.4289 0.792847 26.8576 0.792847C33.53 0.792847 39.6219 3.47972 44.2433 7.89885C45.2336 8.84575 48.3129 12.775 48.8897 13.741ZM7.21214 35.0463C7.45738 35.9389 8.74413 39.1127 9.12 39.8095C12.662 46.3755 19.2823 50.7963 26.8576 50.7963C38.1597 50.7963 47.3358 40.9547 47.3358 28.8324C47.3358 16.7103 38.1597 6.86867 26.8576 6.86867C15.5555 6.86867 6.3794 16.7103 6.3794 28.8324C6.3794 30.9903 6.67042 33.0757 7.21214 35.0463ZM9.05468 34.4637C8.56371 32.6779 8.30038 30.7879 8.30038 28.8324C8.30038 17.8475 16.6157 8.92903 26.8576 8.92903C37.0995 8.92903 45.4148 17.8475 45.4148 28.8324C45.4148 39.8176 37.0995 48.736 26.8576 48.736C19.9921 48.736 13.9929 44.7284 10.7828 38.7778C10.4423 38.1466 9.27688 35.2721 9.05468 34.4637ZM20.2744 29.7225C17.9335 30.5085 16.2326 32.8541 16.2326 35.6227C16.2326 39.0341 18.8149 41.8037 21.9956 41.8037C23.1139 41.8037 24.1583 41.4612 25.0426 40.8689C25.6293 41.0308 26.2443 41.117 26.8781 41.117C27.5117 41.117 28.1269 41.0308 28.7137 40.8689C29.5977 41.4612 30.6422 41.8037 31.7606 41.8037C34.9412 41.8037 37.5235 39.0341 37.5235 35.6227C37.5235 32.8541 35.8227 30.5085 33.4816 29.7225C32.2789 27.1155 29.7724 25.3209 26.8781 25.3209C23.9838 25.3209 21.4772 27.1155 20.2744 29.7225ZM21.0303 31.2793C21.2765 31.2164 21.4806 31.0324 21.5805 30.7831C22.4625 28.5816 24.5034 27.0378 26.8781 27.0378C29.2526 27.0378 31.2936 28.5816 32.1757 30.7831C32.2756 31.0324 32.4797 31.2164 32.7259 31.2793C34.5583 31.7466 35.9227 33.5151 35.9227 35.6227C35.9227 38.0863 34.0578 40.0868 31.7606 40.0868C30.8499 40.0868 30.007 39.7724 29.3214 39.2391C29.1162 39.0794 28.8525 39.0336 28.6108 39.1153C28.0638 39.3004 27.4817 39.4 26.8781 39.4C26.2744 39.4 25.6923 39.3004 25.1453 39.1153C24.9035 39.0336 24.64 39.0794 24.4346 39.2391C23.7491 39.7724 22.9063 40.0868 21.9956 40.0868C19.6984 40.0868 17.8334 38.0863 17.8334 35.6227C17.8334 33.5151 19.1977 31.7466 21.0303 31.2793ZM14.5279 21.0029C14.0036 21.5652 13.7393 22.3332 13.7489 23.1867C13.7614 24.2936 14.2521 25.5633 15.2022 26.5823C16.1524 27.6015 17.3362 28.1278 18.3683 28.141C19.1639 28.1513 19.8801 27.868 20.4043 27.3057C20.9286 26.7434 21.1929 25.9752 21.1833 25.1219C21.1708 24.0148 20.6802 22.7451 19.7301 21.7261C18.78 20.7071 17.5962 20.1808 16.564 20.1674C15.7684 20.1571 15.0522 20.4406 14.5279 21.0029ZM39.1829 21.0513C37.9897 19.7715 35.6547 19.9792 34.0035 21.7503C32.3522 23.5215 32.1585 26.0259 33.3518 27.3057C34.545 28.5855 36.88 28.3778 38.5312 26.6067C40.1825 24.8355 40.3762 22.3311 39.1829 21.0513ZM38.051 22.2654C38.3455 22.5813 38.4128 23.054 38.3387 23.5478C38.2444 24.1758 37.9175 24.8369 37.3993 25.3927C36.8811 25.9483 36.265 26.2989 35.6794 26.4C35.219 26.4795 34.7781 26.4074 34.4837 26.0916C34.1893 25.7757 34.1219 25.3029 34.1961 24.8091C34.2903 24.1812 34.6172 23.5201 35.1354 22.9644C35.6536 22.4087 36.2699 22.0581 36.8553 21.957C37.3157 21.8775 37.7566 21.9496 38.051 22.2654ZM15.6598 22.217C15.9541 21.9015 16.3962 21.8327 16.8585 21.9149C17.4497 22.02 18.0729 22.3768 18.5981 22.9401C19.1234 23.5035 19.456 24.1719 19.554 24.8058C19.6305 25.3018 19.5665 25.776 19.2724 26.0916C18.9783 26.407 18.5362 26.4757 18.0737 26.3935C17.4825 26.2886 16.8593 25.9316 16.3343 25.3683C15.809 24.8049 15.4762 24.1365 15.3783 23.5026C15.3017 23.0066 15.3658 22.5324 15.6598 22.217ZM22.3228 16.0153C21.605 16.2217 21.0171 16.7519 20.6297 17.5097C20.1308 18.4853 19.9702 19.8657 20.3232 21.2785C20.676 22.6912 21.4586 23.8005 22.3457 24.3779C23.0345 24.8264 23.7907 24.9705 24.5085 24.7642C25.2263 24.5579 25.8142 24.0275 26.2016 23.2698C26.7005 22.294 26.8611 20.9136 26.5083 19.5009C26.1553 18.0883 25.3727 16.9788 24.4858 16.4014C23.797 15.953 23.0407 15.8091 22.3228 16.0153ZM31.4489 15.9526C30.7304 15.7461 29.9723 15.8925 29.2815 16.3468C28.3949 16.9297 27.6109 18.0477 27.2557 19.4696C26.9005 20.8916 27.0583 22.2801 27.5543 23.2604C27.9409 24.0244 28.529 24.5577 29.2476 24.7642C29.9662 24.9706 30.7242 24.8242 31.415 24.37C32.3017 23.7869 33.0856 22.6692 33.4408 21.2472C33.796 19.8252 33.6383 18.4367 33.1422 17.4563C32.7556 16.6925 32.1675 16.1592 31.4489 15.9526ZM22.7372 17.6737C23.1381 17.5585 23.552 17.7439 23.9154 18.0703C24.3846 18.4917 24.7643 19.1542 24.9619 19.9454C25.1596 20.7366 25.1396 21.5139 24.9297 22.1304C24.7672 22.6079 24.4951 22.9904 24.0942 23.1057C23.6932 23.2209 23.2793 23.0354 22.9159 22.7092C22.4468 22.2877 22.0671 21.6253 21.8694 20.8341C21.6717 20.0429 21.6917 19.2657 21.9016 18.6491C22.0642 18.1716 22.3362 17.7889 22.7372 17.6737ZM31.0346 17.611C31.4351 17.7262 31.7052 18.1117 31.8667 18.5923C32.0761 19.2155 32.0947 20.0019 31.8946 20.8029C31.6945 21.6037 31.3119 22.2748 30.8399 22.7022C30.4761 23.0318 30.0624 23.2209 29.6619 23.1057C29.2614 22.9906 28.9913 22.6052 28.8298 22.1246C28.6204 21.5013 28.6018 20.715 28.8019 19.914C29.002 19.113 29.3846 18.442 29.8566 18.0145C30.2206 17.685 30.6341 17.496 31.0346 17.611Z" fill="white"/>
</svg>
