<svg width="110" height="89" viewBox="0 0 110 89" fill="none" xmlns="http://www.w3.org/2000/svg">
<path d="M108.52 27.7583C107.846 24.8842 106.568 22.1864 104.77 19.8447C102.932 17.4208 100.395 15.6181 97.5014 14.6794C95.2232 14.0068 92.8242 13.8474 90.4769 14.2126C90.0365 14.3077 89.6272 14.5127 89.2875 14.8086C88.9477 15.1045 88.6884 15.4815 88.5338 15.9047C88.4228 16.2493 88.3865 16.6137 88.4272 16.9735C88.468 17.3332 88.585 17.6802 88.7703 17.9913C89.019 18.3579 89.353 18.6586 89.7436 18.8675C90.1343 19.0764 90.5699 19.1872 91.0129 19.1905C92.095 19.1717 93.177 19.2291 94.251 19.3625C95.6595 19.5623 96.9952 20.1124 98.1357 20.9624C100.122 22.5273 101.623 24.6235 102.464 27.0074C103.638 30.4051 104.168 33.9918 104.027 37.5836C104.2 44.8416 103.289 52.0848 101.321 59.0736C100.069 63.7834 97.7278 68.1334 94.4859 71.7733C91.0366 75.4679 86.4213 77.8646 81.414 78.5614C83.2214 75.379 84.4508 71.9018 85.0453 68.2909C85.9854 62.1863 85.204 55.9407 82.7889 50.2556C80.578 44.8943 77.0815 40.159 72.6077 36.4672C67.6097 32.7742 62.0275 29.9451 56.0934 28.0975C54.8829 27.7027 53.6934 27.2461 52.5297 26.7295C51.5128 26.1458 50.6571 25.3184 50.0398 24.3219C48.9722 22.5914 48.1412 20.7259 47.132 18.9647C48.2268 17.9741 49.0617 16.7301 49.5636 15.3418C50.0655 13.9535 50.219 12.4633 50.0106 11.0019C49.8553 9.87595 49.4771 8.79218 48.8982 7.81388C48.3193 6.83558 47.5512 5.98236 46.6388 5.30402C45.1688 4.22509 43.3649 3.69981 41.5452 3.82085C40.2807 3.89533 39.051 4.26394 37.9542 4.89732C36.8573 5.5307 35.9236 6.41135 35.2273 7.46913C33.652 6.77185 31.9717 6.34117 30.2551 6.19471C30.0825 5.01707 29.7281 3.87336 29.2044 2.80446C28.863 2.19539 28.3974 1.66481 27.8377 1.24713C27.2781 0.829446 26.6369 0.533973 25.9557 0.379859C24.8553 0.156344 23.7114 0.319605 22.7176 0.842027C21.8985 1.33537 21.2024 2.00856 20.6821 2.81062C20.1619 3.61267 19.831 4.52257 19.7146 5.47137C19.5406 6.35262 19.5063 7.25575 19.6132 8.14763C15.6223 10.1613 11.9348 12.7266 8.65946 15.768C6.48533 17.7443 4.48092 19.8994 2.66734 22.2107C2.44375 22.55 2.12988 22.8201 1.76106 22.9908C1.52189 23.059 1.3013 23.1805 1.11586 23.3462C0.930419 23.5119 0.784957 23.7174 0.690401 23.9473C0.502603 24.386 0.417438 24.8618 0.441391 25.3383C0.465345 25.8149 0.597786 26.2797 0.828626 26.6973C2.01756 28.4155 3.18497 30.1505 4.4676 31.7996C5.71758 33.5317 7.466 34.8418 9.4798 35.5553C10.9713 36.0175 12.555 35.652 14.0665 35.9837C17.2898 36.5287 20.3071 37.9304 22.8021 40.0419C24.7044 41.8556 26.1368 44.1047 26.9756 46.5951C28.2075 50.1052 29.2382 53.6812 30.4164 57.2081C29.7021 58.0265 29.1123 58.9416 28.4733 59.8183C26.8438 61.9147 25.6513 64.3164 24.9664 66.8814C25.0494 66.889 25.2153 66.9013 25.2967 66.9075C25.2106 66.9136 25.0371 66.9274 24.9495 66.9336C24.7787 68.1059 24.9585 69.3025 25.4664 70.373C25.9742 71.4434 26.7873 72.3398 27.8035 72.9494C28.249 73.2272 28.752 73.3998 29.2743 73.4541C29.7965 73.5084 30.3243 73.4429 30.8174 73.2627C31.1962 73.0737 31.5125 72.7799 31.7288 72.4161C31.945 72.0524 32.052 71.6342 32.037 71.2113C31.8008 69.937 31.655 68.6476 31.6008 67.3528C31.6814 66.1314 32.0924 64.9548 32.7897 63.9487C33.7793 66.7572 35.0586 69.4552 36.6069 71.999C37.9658 74.1536 39.6163 76.1099 41.5116 77.8122C43.7332 79.7733 46.2015 81.4359 48.854 82.7578C45.4056 82.787 41.9571 82.7563 38.5085 82.7824C37.6815 82.755 36.8577 82.8998 36.0895 83.2074C35.3213 83.5151 34.6255 83.979 34.0462 84.5697C33.6927 84.9749 33.5144 85.5036 33.5501 86.04C33.5858 86.5765 33.8326 87.0769 34.2366 87.4318C34.6228 87.7043 35.0592 87.8977 35.5206 88.0007C35.982 88.1037 36.4592 88.1144 36.9248 88.0321C48.4929 88.0244 60.0611 88.0413 71.6293 88.0244C73.6173 87.5926 75.4436 86.6104 76.8995 85.19C77.0593 85.0565 77.2851 85.0948 77.4786 85.0702C80.2295 84.9463 82.9561 84.4974 85.6014 83.7329C89.3374 82.6458 92.8208 80.8292 95.8501 78.388C99.0452 75.7598 101.665 72.5027 103.547 68.8191C105.352 65.2372 106.72 61.4519 107.623 57.5444C108.877 52.1021 109.522 46.5372 109.544 40.9524C109.761 36.5287 109.417 32.0954 108.52 27.7583ZM21.4273 23.413C20.9956 23.4091 20.569 23.3194 20.1723 23.149C19.7756 22.9786 19.4168 22.731 19.1169 22.4206C18.8169 22.1102 18.5818 21.7432 18.4252 21.341C18.2685 20.9389 18.1936 20.5095 18.2046 20.0781C18.2113 19.2602 18.5223 18.474 19.0772 17.8728C19.6321 17.2715 20.391 16.8984 21.2061 16.826C21.6476 16.7963 22.0906 16.8557 22.5086 17.0007C22.9267 17.1457 23.3113 17.3733 23.6395 17.6699C23.9677 17.9666 24.2329 18.3262 24.4193 18.7274C24.6056 19.1286 24.7093 19.5631 24.7241 20.0052C24.7389 20.4472 24.6647 20.8878 24.5057 21.3005C24.3467 21.7133 24.1062 22.0899 23.7986 22.4079C23.491 22.7258 23.1226 22.9787 22.7152 23.1514C22.3078 23.324 21.8698 23.413 21.4273 23.413Z" fill="#4AE163"/>
</svg>
