<svg width="155" height="107" viewBox="0 0 155 107" fill="none" xmlns="http://www.w3.org/2000/svg">
<path d="M104.56 56.058C109.6 55.032 126.4 50.073 124.72 56.913C124.72 56.913 121.36 55.2878 121.36 60.7598C121.36 60.7598 118 67.4712 109.6 63.3672C109.6 63.3672 116.32 68.7749 126.4 72.8789C136.48 76.9829 133.12 76.9515 133.12 76.9515C133.12 76.9515 149.92 86.3907 154.96 85.1431C154.96 85.1431 149.92 86.5028 146.56 85.1348C146.56 85.1348 149.92 87.8667 151.6 87.8667C151.6 87.8667 144.88 87.8626 141.52 86.4946C141.52 86.4946 148.24 89.2306 148.24 91.9666C148.24 91.9666 139.84 91.9666 138.16 87.8626C138.16 87.8626 139.84 90.5986 139.84 93.3346C139.84 93.3346 136.48 93.3346 133.12 90.5986C133.12 90.5986 134.8 96.0706 126.4 91.9666C126.4 91.9666 123.04 96.0706 118 91.9666C118 91.9666 114.64 94.7026 111.28 91.9666C111.28 91.9666 104.56 96.0706 109.6 87.8626C109.6 87.8626 101.2 94.7026 102.88 89.2306C102.88 89.2306 101.2 90.5986 99.52 90.5986C99.52 90.5986 97.84 91.2826 94.48 89.9146C94.48 89.9146 91.12 91.9666 92.8 89.2306C92.8 89.2306 89.44 90.5986 89.44 89.2306C89.44 87.8626 84.4 88.2046 86.08 85.4686C86.08 85.4686 82.72 85.2976 84.4 83.9296C84.4 83.9296 81.04 83.8448 81.04 81.1088C81.04 81.1088 77.68 80.3824 79.36 79.0144C79.36 79.0144 76 78.288 77.68 76.92H76C76 76.92 65.92 89.574 59.2 89.574C59.2 89.574 49.12 95.559 49.12 94.191C49.12 94.191 18.88 112.488 39.04 97.44H35.68C35.68 97.44 0.399995 115.566 25.6 99.15C25.6 99.15 -21.44 116.763 12.16 98.979C12.16 98.979 10.48 98.8942 15.52 96.1582C20.56 93.4222 30.64 87.9078 32.32 86.5398C32.32 86.5398 7.11999 97.4619 37.36 82.4139C37.36 82.4139 17.2 86.5069 49.12 74.1949C49.12 74.1949 20.56 76.9255 55.84 68.7175C55.84 68.7175 30.64 65.9787 67.6 64.6107C67.6 64.6107 64.24 63.2414 65.92 61.8734C65.92 61.8734 62.56 63.24 64.24 60.504C64.24 60.504 60.88 60.504 62.56 57.768C62.56 57.768 59.2 57.768 60.88 55.032C60.88 55.032 59.2 53.664 60.88 52.296C60.88 52.296 57.52 53.664 60.88 49.56C60.88 49.56 55.84 49.56 60.88 45.456C60.88 45.456 55.84 45.456 59.2 42.72C59.2 42.72 57.52 41.352 62.56 38.616C62.56 38.616 54.16 37.248 60.88 34.512C60.88 34.512 54.16 31.776 60.88 30.408C60.88 30.408 55.84 23.568 64.24 26.304C64.24 26.304 57.52 19.464 64.24 20.832C64.24 20.832 60.88 13.992 67.6 15.36C67.6 15.36 52.4783 -2.424 72.64 15.36C72.64 15.36 55.84 -16.104 79.36 15.36C79.36 15.36 72.64 -3.792 84.4 15.36C84.4 15.36 79.36 3.048 82.72 0.312C82.72 0.312 87.76 19.464 92.8 27.672C92.8 27.672 97.84 31.776 96.16 38.616C94.48 45.456 100.716 56.8405 104.56 56.058Z" fill="#4BE263"/>
<path d="M118.84 57.768C119.304 57.768 119.68 57.4618 119.68 57.084C119.68 56.7062 119.304 56.4 118.84 56.4C118.376 56.4 118 56.7062 118 57.084C118 57.4618 118.376 57.768 118.84 57.768Z" fill="#4BE263" stroke="#4AE163" stroke-width="0.23" stroke-miterlimit="10"/>
<path d="M124.72 57.768C124.72 57.768 126.4 61.872 121.36 61.872C121.36 61.872 123.04 60.504 121.36 59.136C119.68 57.768 123.04 56.4 124.72 57.768Z" fill="#4BE263" stroke="#4AE163" stroke-width="0.23" stroke-miterlimit="10"/>
</svg>
