<svg width="49" height="51" viewBox="0 0 49 51" fill="none" xmlns="http://www.w3.org/2000/svg">
<path id="user img" d="M24.7144 9.84593C20.4062 9.84593 16.9386 13.536 16.9386 18.1206C16.9386 22.7053 20.4062 26.3953 24.7144 26.3953C29.0226 26.3953 32.4902 22.7053 32.4902 18.1206C32.4902 13.536 29.0226 9.84593 24.7144 9.84593ZM24.7144 0.0057373C11.5796 0.0057373 0.914124 11.3555 0.914124 25.333C0.914124 39.3106 11.5796 50.6604 24.7144 50.6604C37.8492 50.6604 48.5147 39.3106 48.5147 25.333C48.5147 11.3555 37.8492 0.0057373 24.7144 0.0057373ZM40.7389 37.9128C37.534 31.9864 31.597 28.0167 24.7144 28.0167C17.8318 28.0167 11.8423 31.9864 8.63739 37.9128C6.22059 34.3905 4.74949 30.0854 4.74949 25.389C4.74949 13.7037 13.6812 4.14309 24.7144 4.14309C35.7476 4.14309 44.6793 13.6478 44.6793 25.389C44.6793 30.0295 43.2082 34.3905 40.7389 37.9128Z" fill="#4BE263"/>
</svg>
