<svg width="91" height="111" viewBox="0 0 91 111" fill="none" xmlns="http://www.w3.org/2000/svg">
<path d="M76.5925 0H14.3634V7.54801H76.5925V0Z" fill="#4BE263"/>
<path d="M35.113 57.6869C35.113 53.2957 31.6572 49.7323 27.3344 49.4951V59.859H34.822C35.0144 59.1535 35.113 58.4245 35.113 57.6869Z" fill="#4BE263"/>
<path d="M37.7956 57.6869C37.7956 58.4257 37.6513 59.1448 37.5057 59.859H53.3874C53.2455 59.1522 53.1592 58.4282 53.1567 57.6918C53.1567 51.8155 57.8126 47.0462 63.6166 46.8028V46.1764C63.6166 36.1561 55.4779 28.0026 45.4768 28.0026C35.472 28.0026 27.3332 36.1561 27.3332 46.1764V46.8028C33.141 47.0425 37.7956 51.813 37.7956 57.6869ZM52.3945 41.165C53.9535 41.165 55.2078 42.4228 55.2078 43.9845C55.2078 45.5463 53.9522 46.8028 52.3945 46.8028C50.8405 46.8028 49.5813 45.5451 49.5813 43.9845C49.5813 42.424 50.8418 41.165 52.3945 41.165ZM42.1603 45.6427C42.2948 45.3128 42.6179 45.1015 42.9706 45.1015H47.9841C48.3381 45.1015 48.6588 45.3128 48.7969 45.6427C48.9289 45.9738 48.8586 46.3482 48.602 46.6015L46.0996 49.1096C45.9294 49.2838 45.7012 49.3666 45.4792 49.3666C45.2548 49.3666 45.0266 49.2838 44.8613 49.1096L42.354 46.6015C42.1061 46.3482 42.0259 45.9738 42.1603 45.6427ZM38.5528 41.165C40.1167 41.165 41.3722 42.4228 41.3722 43.9845C41.3722 45.5463 40.1167 46.8028 38.5528 46.8028C36.9988 46.8028 35.7433 45.5451 35.7433 43.9845C35.7433 42.424 36.9988 41.165 38.5528 41.165Z" fill="#4BE263"/>
<path d="M55.8441 57.6869C55.8453 58.4331 55.9786 59.1547 56.1734 59.859H63.6178V49.4951C59.2925 49.7336 55.8441 53.2982 55.8441 57.6869Z" fill="#4BE263"/>
<path d="M50.0753 80.6509C50.0467 80.6534 50.0168 80.6633 49.9944 80.6683C49.9994 80.6882 50.0181 80.6994 50.0268 80.7193C50.0368 80.6944 50.0604 80.6745 50.0753 80.6509Z" fill="#4BE263"/>
<path d="M85.158 44.0204C80.0236 29.8547 78.091 19.822 77.3609 13.5491H13.6062C12.8674 19.8368 10.9064 29.9177 5.79422 44.0204C-2.58504 67.1327 0.550091 104.476 0.682058 106.056C0.900358 108.561 3.00319 110.49 5.51426 110.49H85.4318C87.9527 110.49 90.0469 108.561 90.264 106.056C90.4083 104.476 93.5447 67.1314 85.158 44.0204ZM21.962 46.1764C21.962 33.187 32.5132 22.6206 45.478 22.6206C58.4378 22.6206 68.989 33.187 68.989 46.1764V62.5512C68.989 64.0351 67.7853 65.2423 66.3028 65.2423H24.6531C23.1657 65.2423 21.962 64.0351 21.962 62.5512V46.1764ZM35.7766 75.679C35.7766 72.8706 38.0508 70.5922 40.8554 70.5922C42.7264 70.5922 44.2952 71.6536 45.1758 73.1671C46.0564 71.6536 47.624 70.5922 49.4962 70.5922C52.2995 70.5922 54.5738 72.8706 54.5738 75.679C54.5738 76.4945 54.3382 77.2383 53.9966 77.9228C54.1952 77.8981 54.3703 77.8042 54.5738 77.8042C57.3784 77.8042 59.6527 80.0825 59.6527 82.8959H31.3045C31.3045 80.1159 33.5307 77.8783 36.2884 77.8239C35.9751 77.1679 35.7766 76.4537 35.7766 75.679ZM21.9164 100.788L25.8199 85.7055H63.9249L69.042 100.788H21.9164Z" fill="#4BE263"/>
</svg>
