<svg width="23" height="99" viewBox="0 0 23 99" fill="none" xmlns="http://www.w3.org/2000/svg">
<path d="M11.0084 61.444C11.0084 61.444 4.25143 54.14 17.7024 44.006C17.7024 44.006 20.5724 57.123 11.0084 61.444Z" fill="#4BE263"/>
<path d="M6.98441 53.792C6.98441 53.792 -1.18759 51.875 0.147409 34.121C0.147409 34.121 13.2754 44.788 6.98441 53.792Z" fill="#4BE263"/>
<path d="M9.87442 45.677C9.87442 45.677 7.36542 35.423 20.8624 29.055C20.8624 29.055 22.6454 41.121 9.87442 45.677Z" fill="#4BE263"/>
<path d="M12.4614 30.848C12.4614 30.848 9.11643 20.749 22.3164 15.352C22.3164 15.352 26.1404 26.215 12.4614 30.848Z" fill="#4BE263"/>
<path d="M10.1494 19.996C10.1494 19.996 6.22942 7.92 20.2534 0C20.2534 0 23.8294 15.363 10.1494 19.996Z" fill="#4BE263"/>
<path d="M6.91543 39.17C6.91543 39.17 -3.48157 29.352 6.45143 15.786C6.45143 15.786 14.9714 27.184 6.91543 39.17Z" fill="#4BE263"/>
<path d="M7.78541 67.018C7.78541 67.018 -0.624591 66.251 2.16141 53.33C2.16141 53.33 12.4124 57.495 7.78541 67.018Z" fill="#4BE263"/>
<path d="M12.6434 73.13C12.6434 73.13 6.75639 67.072 17.2784 59.078C17.2784 59.078 22.3544 68.908 12.6434 73.13Z" fill="#4BE263"/>
<path d="M13.7694 79.69C13.7694 79.69 11.4714 73.697 17.7914 72.395C17.7914 72.395 19.2864 77.966 13.7694 79.69Z" fill="#4BE263"/>
<path d="M13.7164 82.119C13.7164 82.119 8.02639 82.673 6.14539 76.929C6.14539 76.929 12.3084 76.513 13.7164 82.119Z" fill="#4BE263"/>
<path d="M11.5364 76.209C11.5364 76.209 4.32342 78.243 2.55542 67.471C2.55542 67.471 11.2494 68.025 11.5364 76.209Z" fill="#4BE263"/>
<path d="M14.9314 96.765C15.7264 92.65 16.7154 88.867 14.9444 81.426C14.7014 80.401 18.4314 84.553 17.7714 93.646C17.3834 98.998 14.2844 100.119 14.9314 96.765Z" fill="#4BE263"/>
</svg>
