<svg width="102" height="104" viewBox="0 0 102 104" fill="none" xmlns="http://www.w3.org/2000/svg">
<path fill-rule="evenodd" clip-rule="evenodd" d="M75.6823 22.084L77.2643 0C77.2643 0 89.2768 17.028 86.9358 23.8959C84.3152 31.5719 75.6823 22.084 75.6823 22.084C75.6823 22.084 84.4829 71.5518 84.2992 91.4198C84.1114 111.288 6.19214 104.392 1.69795 92.8398C-2.79625 81.2838 13.8742 20.668 13.8742 20.668C35.0988 18.02 55.7441 18.292 75.6823 22.084ZM88.5457 26.3759C92.2889 39.9919 100.175 69.1278 101.137 76.3238C102.144 83.8238 94.9255 89.7918 86.4085 94.0758C86.6561 93.2398 86.784 92.3598 86.796 91.4438C86.9398 75.8758 81.6147 42.2479 79.2457 28.1159C79.829 28.4439 80.4202 28.7239 81.0154 28.9319C82.6573 29.5119 84.2952 29.5639 85.7293 28.9559C86.764 28.5199 87.7627 27.7319 88.5457 26.3759ZM46.2004 63.1879L47.0873 64.0199L48.074 65.1039L48.5973 65.7559L49.64 67.2479L50.3231 68.4079C52.6281 72.5918 53.3752 77.2638 51.8371 79.5758C48.5254 84.5798 43.0006 75.2518 37.9751 75.6638C33.2811 76.0478 28.8948 84.0998 25.3434 80.6398L24.9519 80.2078C24.7322 79.9398 24.5204 79.6198 24.3087 79.2518C20.5935 72.7278 27.2769 61.7359 37.1721 60.2199C40.6077 59.6919 43.6997 61.0039 46.2004 63.1879ZM61.265 52.7999C60.7936 52.2919 60.1624 51.8519 59.3434 51.4919C59.3434 51.4919 53.8066 49.2239 52.5083 58.6999C52.1288 61.4799 52.3205 63.5279 52.8598 64.8959L53.1115 65.4399C54.5416 68.1119 57.5777 67.3479 59.5552 63.8079C61.5486 60.2319 62.9428 56.8559 62.1838 54.3879L61.9441 53.7839L61.6565 53.2919L61.265 52.7999ZM23.5857 52.0119C19.423 48.5079 15.8916 50.1959 16.0114 52.9399C16.0114 52.9399 16.1473 59.3239 18.0488 62.7599L18.6321 63.6399L19.1394 64.1759L19.5429 64.4759C19.6587 64.5479 19.7826 64.6159 19.9064 64.6719C23.5897 66.2799 30.8163 60.6839 25.7868 54.3199L24.2848 52.6439L23.5857 52.0119ZM50.5788 43.6879C50.1154 43.2079 49.5042 42.7879 48.7212 42.4439C48.7212 42.4439 43.1803 40.1759 41.882 49.6519C41.4266 52.9959 41.7981 55.2759 42.6011 56.5999L42.9526 57.0839C42.9966 57.1359 43.0405 57.1839 43.0884 57.2319C44.6544 58.8319 47.1991 57.8599 48.9289 54.7599C51.4177 50.2999 52.9637 46.1599 50.5788 43.6879ZM35.2426 41.3239C34.3997 40.5119 33.2252 40.1199 31.5953 40.2879C31.5953 40.2879 25.7149 41.0559 28.6192 50.1039C29.1265 51.6719 29.6978 52.9119 30.301 53.8599L30.7524 54.5119L31.2398 55.0839C33.9003 57.8879 36.7886 55.6839 37.0523 51.0999C37.2879 46.9079 37.0762 43.2079 35.3265 41.4079L35.2426 41.3239ZM74.7595 0.0120001L73.3893 19.128C54.3699 15.824 34.7313 15.632 14.5613 18.064L19.2752 0.284L74.7595 0.0120001Z" fill="#4BE263"/>
</svg>
