<svg width="125" height="125" viewBox="0 0 125 125" fill="none" xmlns="http://www.w3.org/2000/svg">
<path fill-rule="evenodd" clip-rule="evenodd" d="M115.625 121.68C115.625 123.396 117.031 124.8 118.75 124.8C120.469 124.8 121.875 123.396 121.875 121.68C121.875 119.964 120.469 118.56 118.75 118.56C117.031 118.56 115.625 119.964 115.625 121.68ZM51.75 95.784L38.5 109.013L49.5625 120.026C50.7812 121.243 52.75 121.243 53.9688 120.026L62.8125 111.197C64.0313 109.98 64.0313 108.014 62.8125 106.798L51.75 95.7528V95.784ZM93.75 115.44C93.75 117.156 95.1563 118.56 96.875 118.56C98.5938 118.56 100 117.156 100 115.44C100 113.724 98.5938 112.32 96.875 112.32C95.1563 112.32 93.75 113.724 93.75 115.44ZM103.125 106.08C103.125 107.796 104.531 109.2 106.25 109.2C107.969 109.2 109.375 107.796 109.375 106.08C109.375 104.364 107.969 102.96 106.25 102.96C104.531 102.96 103.125 104.364 103.125 106.08ZM118.75 102.96C118.75 104.676 120.156 106.08 121.875 106.08C123.594 106.08 125 104.676 125 102.96C125 101.244 123.594 99.84 121.875 99.84C120.156 99.84 118.75 101.244 118.75 102.96ZM47.3125 91.3536L34.0625 104.582L27.4375 97.968L40.6875 84.7392L47.3125 91.3536ZM60.5625 16.3488L19.625 57.2208L63.8125 101.338L104.75 60.4656L106.969 62.6808C108.188 63.8976 110.156 63.8976 111.375 62.6808L120.219 53.8512C121.438 52.6344 121.438 50.6688 120.219 49.452L117.406 46.6128C119.375 46.5816 121.25 45.8016 122.656 44.4288C124.156 42.9624 125 40.9656 125 38.9064C125 36.8472 124.188 34.8816 122.719 33.4152C121.25 31.98 119.281 31.1688 117.219 31.2L102.188 31.3872L71.625 0.904803C70.4063 -0.311997 68.4375 -0.311997 67.2188 0.904803L58.375 9.7344C57.1563 10.9512 57.1563 12.9168 58.375 14.1336L60.5938 16.3488H60.5625ZM36.25 80.34L23 93.5688L16.375 86.9544L29.625 73.7256L36.25 80.34ZM115.594 87.36C115.594 89.076 117 90.48 118.719 90.48C120.438 90.48 121.844 89.076 121.844 87.36C121.844 85.644 120.438 84.24 118.719 84.24C117 84.24 115.594 85.644 115.594 87.36ZM11.9375 82.5552L25.1875 69.3264L14.125 58.2816C12.9062 57.0648 10.9375 57.0648 9.71875 58.2816L0.875 67.1112C-0.34375 68.328 -0.34375 70.2936 0.875 71.5104L11.9375 82.5552ZM103.094 78C103.094 79.716 104.5 81.12 106.219 81.12C107.938 81.12 109.344 79.716 109.344 78C109.344 76.284 107.938 74.88 106.219 74.88C104.5 74.88 103.094 76.284 103.094 78ZM55.2188 64.116C57.4063 67.4544 61.625 71.76 68.7188 71.76C80.7188 71.76 84.3438 63.2736 84.3438 59.28C84.3438 55.2864 80.7188 46.8 68.7188 46.8C61.625 46.8 57.4375 51.1056 55.2188 54.444C54.0625 53.5392 52.6875 52.5408 51.4688 51.7608C49.5938 50.544 47.8125 49.92 46.8437 49.92C45.2812 49.92 43.8438 50.6688 42.75 52.104C41.3438 53.9448 40.5937 57.2832 40.5937 59.28C40.5937 61.2768 41.375 64.6152 42.75 66.456C43.8438 67.8912 45.2812 68.64 46.8437 68.64C47.8125 68.64 49.5938 68.016 51.4688 66.7992C52.6875 66.0192 54.0625 65.0208 55.2188 64.116ZM115.594 65.52C115.594 67.236 117 68.64 118.719 68.64C120.438 68.64 121.844 67.236 121.844 65.52C121.844 63.804 120.438 62.4 118.719 62.4C117 62.4 115.594 63.804 115.594 65.52ZM67 53.196C66.0313 55.1928 65.5625 57.252 65.5938 59.3424C65.625 61.308 66.125 63.336 67.125 65.3952C62.6875 64.6776 60.4375 61.0584 59.5938 59.28C60.4375 57.5328 62.625 53.9448 67 53.196ZM73.8125 54.0072C76.8125 55.3176 78.0938 57.72 78.0938 59.28C78.0938 60.84 76.8437 63.2112 73.8437 64.5528C72.5625 62.712 71.875 60.9648 71.8438 59.2488C71.8125 57.4392 72.5313 55.7232 73.8125 54.0384V54.0072ZM47.4062 56.784L50.875 59.28L47.4062 61.776C47.1562 60.9648 46.8125 59.8416 46.8125 59.28C46.8125 58.7184 47.125 57.5952 47.4062 56.784Z" fill="#4BE263"/>
</svg>
