<svg width="124" height="111" viewBox="0 0 124 111" fill="none" xmlns="http://www.w3.org/2000/svg">
<path d="M119.668 84.375H117.078V21.9281C117.078 20.175 115.568 18.75 113.715 18.75H91.2812V8.87437C91.2812 6.04875 88.8484 3.75 85.8599 3.75H81.3197C81.1093 1.65188 79.2579 0 76.9838 0H53.9869C51.7128 0 49.8614 1.65188 49.651 3.75H45.1108C42.1203 3.75 39.6875 6.04875 39.6875 8.87437V18.75H17.2541C15.3987 18.75 13.8906 20.175 13.8906 21.9281V33.75H4.9907C2.23838 33.75 0 35.865 0 38.4656V70.2863C0 72.885 2.23838 75 4.9907 75H13.8906V84.375H11.301C9.44563 84.375 7.9375 85.8019 7.9375 87.5531V94.32C7.9375 96.0731 9.44563 97.5 11.301 97.5H14.1545L15.7341 107.946C15.9643 109.474 17.3692 110.625 19.0024 110.625H111.966C113.603 110.625 115.008 109.472 115.235 107.946L116.816 97.5H119.668C121.521 97.5 123.031 96.0731 123.031 94.3219V87.555C123.031 85.8019 121.521 84.375 119.668 84.375ZM67.4688 84.375V79.7306C68.8201 80.3906 70.2469 80.9381 71.7391 81.3712L71.5506 84.375H67.4688ZM17.8594 67.5H22.9314C23.4176 67.5 23.8125 67.8731 23.8125 68.3325V70.4156C23.8125 70.8769 23.4176 71.25 22.9314 71.25H17.8594V67.5ZM3.96875 46.875H13.8906V52.5H3.96875V46.875ZM17.8594 30H35.7188V56.25H17.8594V30ZM39.6875 30H63.5V38.9531C57.9616 43.0556 54.2469 49.2375 53.6793 56.25H39.6875V30ZM113.109 56.25H105.071C104.501 49.2356 100.786 43.0556 95.25 38.9531V30H113.109V56.25ZM86.7728 77.5125L86.5287 73.5788C92.9898 70.9125 97.2344 64.8731 97.2344 58.125C97.2344 48.8194 89.2235 41.25 79.375 41.25C69.5265 41.25 61.5156 48.8194 61.5156 58.125C61.5156 64.8731 65.7602 70.9125 72.2233 73.5788L71.9792 77.5125C63.373 74.6044 57.5469 66.9262 57.5469 58.125C57.5469 46.7531 67.3398 37.5 79.375 37.5C91.4102 37.5 101.203 46.7531 101.203 58.125C101.203 66.9262 95.377 74.6044 86.7728 77.5125ZM72.4753 69.5081C68.7765 67.5112 66.2444 64.0031 65.6332 60H73.0687L72.4753 69.5081ZM73.6223 56.25H65.6431C66.5182 50.5144 71.3204 45.9769 77.3906 45.15V52.8319C75.6622 53.3888 74.2831 54.6394 73.6223 56.25ZM81.3594 45.15C87.4296 45.9769 92.2318 50.5144 93.1069 56.25H85.1277C84.4669 54.6394 83.0878 53.3888 81.3594 52.8319V45.15ZM93.1168 60C92.5056 64.0031 89.9735 67.5112 86.2747 69.5081L85.6813 60H93.1168ZM91.2812 36.5231C87.7153 34.7606 83.6712 33.75 79.375 33.75C75.0788 33.75 71.0347 34.7606 67.4688 36.5231V30H91.2812V36.5231ZM53.6615 60C54.2211 66.975 57.8783 73.2094 63.5 77.3381V84.375H39.6875V60H53.6615ZM77.1545 58.2281C77.2239 57.1181 78.1983 56.25 79.375 56.25C80.5517 56.25 81.5261 57.1181 81.5955 58.2281L83.2227 84.375H75.5253L77.1545 58.2281ZM87.1994 84.375L87.0129 81.3731C88.5031 80.9381 89.9319 80.3906 91.2832 79.7325V84.375H87.1994ZM95.25 77.3381C100.872 73.2094 104.527 66.975 105.089 60H113.109V84.375H95.25V77.3381ZM53.5781 4.13812C53.5781 3.92437 53.7627 3.75 53.9869 3.75H76.9818C77.2061 3.75 77.3906 3.92437 77.3906 4.13812V8.98875C77.3906 9.20063 77.2061 9.375 76.9818 9.375H53.9869C53.7627 9.375 53.5781 9.20063 53.5781 8.98688V4.13812ZM43.6562 8.87437C43.6562 8.11687 44.3071 7.5 45.1088 7.5H49.6094V8.98688C49.6094 11.2688 51.5719 13.125 53.9869 13.125H76.9818C79.3968 13.125 81.3594 11.2688 81.3594 8.98688V7.5H85.8599C86.6616 7.5 87.3125 8.11687 87.3125 8.87437V18.75H43.6562V8.87437ZM17.8594 22.5H113.109V26.25H17.8594V22.5ZM4.9907 37.5H13.8906V43.125H3.96875V38.4656C3.96875 37.9312 4.42714 37.5 4.9907 37.5ZM3.96875 70.2844V56.25H13.8906V71.25H4.9907C4.42714 71.25 3.96875 70.8188 3.96875 70.2844ZM17.8594 75H22.9314C25.6044 75 27.7812 72.9431 27.7812 70.4175V68.3344C27.7812 65.8069 25.6044 63.75 22.9314 63.75H17.8594V60H35.7188V84.375H17.8594V75ZM111.387 106.875H19.5798L18.163 97.5H112.806L111.387 106.875ZM119.062 93.75H11.9062V88.125H119.062V93.75Z" fill="#4BE263"/>
</svg>
