<svg width="99" height="89" viewBox="0 0 99 89" fill="none" xmlns="http://www.w3.org/2000/svg">
<path d="M97.2407 0H1.64815C1.21103 0 0.791819 0.173644 0.482731 0.482732C0.173644 0.791819 0 1.21103 0 1.64815V14.8333C0 15.2704 0.173644 15.6897 0.482731 15.9988C0.791819 16.3078 1.21103 16.4815 1.64815 16.4815H3.2963V74.1667C3.29891 76.3514 4.16797 78.446 5.71284 79.9909C7.25772 81.5357 9.35226 82.4048 11.537 82.4074H13.1852V87.3519C13.1852 87.789 13.3588 88.2082 13.6679 88.5173C13.977 88.8264 14.3962 89 14.8333 89H34.6111C35.0482 89 35.4674 88.8264 35.7765 88.5173C36.0856 88.2082 36.2593 87.789 36.2593 87.3519V82.4074H62.6296V87.3519C62.6296 87.789 62.8033 88.2082 63.1124 88.5173C63.4214 88.8264 63.8407 89 64.2778 89H84.0556C84.4927 89 84.9119 88.8264 85.221 88.5173C85.5301 88.2082 85.7037 87.789 85.7037 87.3519V82.4074H87.3518C89.5366 82.4048 91.6312 81.5357 93.176 79.9909C94.7209 78.446 95.59 76.3514 95.5926 74.1667V16.4815H97.2407C97.6779 16.4815 98.0971 16.3078 98.4062 15.9988C98.7152 15.6897 98.8889 15.2704 98.8889 14.8333V1.64815C98.8889 1.21103 98.7152 0.791819 98.4062 0.482732C98.0971 0.173644 97.6779 0 97.2407 0ZM32.963 85.7037H16.4815V82.4074H32.963V85.7037ZM82.4074 85.7037H65.9259V82.4074H82.4074V85.7037ZM92.2963 74.1667C92.2963 75.478 91.7754 76.7357 90.8481 77.6629C89.9208 78.5902 88.6632 79.1111 87.3518 79.1111H11.537C10.2257 79.1111 8.96805 78.5902 8.04079 77.6629C7.11352 76.7357 6.59259 75.478 6.59259 74.1667V61.9242C7.98693 61.3457 12.3117 60.2761 22.7164 62.5835C37.6173 65.9012 58.5752 64.3421 59.3333 64.2778C65.5229 64.2408 71.6982 63.6784 77.7926 62.5967C81.4611 61.8184 85.0521 60.7113 88.522 59.2888C89.9823 58.7268 91.2481 58.2373 92.3029 57.9538L92.2963 74.1667ZM92.2963 54.5784C90.5999 54.9889 88.9392 55.5351 87.3304 56.2117C84.0322 57.565 80.6196 58.6207 77.1333 59.3663C75.0946 59.7734 72.9437 60.0766 70.8704 60.3057V56.037H77.463C80.5217 56.0335 83.4542 54.8169 85.617 52.6541C87.7799 50.4912 88.9965 47.5587 89 44.5C89 44.0629 88.8264 43.6437 88.5173 43.3346C88.2082 43.0255 87.789 42.8519 87.3518 42.8519H80.7593C78.7654 42.855 76.8063 43.3749 75.0732 44.3607C73.3401 45.3466 71.8921 46.7648 70.8704 48.477V41.2037H77.463C80.5217 41.2002 83.4542 39.9836 85.617 37.8207C87.7799 35.6579 88.9965 32.7254 89 29.6667C89 29.2296 88.8264 28.8103 88.5173 28.5012C88.2082 28.1922 87.789 28.0185 87.3518 28.0185H80.7593C78.7654 28.0217 76.8063 28.5415 75.0732 29.5274C73.3401 30.5132 71.8921 31.9314 70.8704 33.6436V31.3148C70.8704 30.8777 70.6967 30.4585 70.3876 30.1494C70.0785 29.8403 69.6593 29.6667 69.2222 29.6667C68.7851 29.6667 68.3659 29.8403 68.0568 30.1494C67.7477 30.4585 67.5741 30.8777 67.5741 31.3148V33.6436C66.5523 31.9314 65.1043 30.5132 63.3712 29.5274C61.6381 28.5415 59.6791 28.0217 57.6852 28.0185H51.0926C50.6555 28.0185 50.2363 28.1922 49.9272 28.5012C49.6181 28.8103 49.4444 29.2296 49.4444 29.6667C49.4479 32.7254 50.6646 35.6579 52.8274 37.8207C54.9903 39.9836 57.9227 41.2002 60.9815 41.2037H67.5741V48.477C66.5523 46.7648 65.1043 45.3466 63.3712 44.3607C61.6381 43.3749 59.6791 42.855 57.6852 42.8519H51.0926C50.6555 42.8519 50.2363 43.0255 49.9272 43.3346C49.6181 43.6437 49.4444 44.0629 49.4444 44.5C49.4479 47.5587 50.6646 50.4912 52.8274 52.6541C54.9903 54.8169 57.9227 56.0335 60.9815 56.037H67.5741V60.6123C62.9691 60.9815 59.3416 60.9815 59.2064 60.9815C59.0086 60.9963 40.612 62.3643 26.4314 59.9497L29.1838 57.1973C29.484 56.8865 29.6501 56.4702 29.6464 56.038C29.6426 55.6059 29.4693 55.1925 29.1637 54.8869C28.8581 54.5813 28.4447 54.408 28.0126 54.4043C27.5804 54.4005 27.1641 54.5666 26.8533 54.8669L24.7222 57.0029V51.0926C24.7222 50.6555 24.5486 50.2363 24.2395 49.9272C23.9304 49.6181 23.5112 49.4444 23.0741 49.4444C22.637 49.4444 22.2177 49.6181 21.9087 49.9272C21.5996 50.2363 21.4259 50.6555 21.4259 51.0926V56.037L19.4481 53.4C19.1859 53.0503 18.7954 52.8191 18.3627 52.7573C17.93 52.6955 17.4904 52.8081 17.1407 53.0704C16.791 53.3326 16.5599 53.7231 16.498 54.1558C16.4362 54.5885 16.5488 55.0281 16.8111 55.3778L19.1976 58.5587C12.7402 57.5006 8.8522 57.8352 6.59259 58.4466V16.4815H92.2963V54.5784ZM72.6833 52.7407C73.0656 50.8805 74.0776 49.209 75.5487 48.0081C77.0199 46.8071 78.8602 46.1502 80.7593 46.1481H85.5389C85.1566 48.0084 84.1446 49.6799 82.6735 50.8808C81.2023 52.0818 79.362 52.7387 77.463 52.7407H72.6833ZM72.6833 37.9074C73.0656 36.0472 74.0776 34.3757 75.5487 33.1747C77.0199 31.9738 78.8602 31.3169 80.7593 31.3148H85.5389C85.1566 33.175 84.1446 34.8465 82.6735 36.0475C81.2023 37.2484 79.362 37.9053 77.463 37.9074H72.6833ZM65.7611 37.9074H60.9815C59.0824 37.9053 57.2421 37.2484 55.771 36.0475C54.2998 34.8465 53.2878 33.175 52.9056 31.3148H57.6852C59.5843 31.3169 61.4245 31.9738 62.8957 33.1747C64.3668 34.3757 65.3789 36.0472 65.7611 37.9074ZM65.7611 52.7407H60.9815C59.0824 52.7387 57.2421 52.0818 55.771 50.8808C54.2998 49.6799 53.2878 48.0084 52.9056 46.1481H57.6852C59.5843 46.1502 61.4245 46.8071 62.8957 48.0081C64.3668 49.209 65.3789 50.8805 65.7611 52.7407ZM95.5926 6.59259H77.463C77.0258 6.59259 76.6066 6.76624 76.2975 7.07532C75.9885 7.38441 75.8148 7.80362 75.8148 8.24074C75.8148 8.67786 75.9885 9.09707 76.2975 9.40616C76.6066 9.71525 77.0258 9.88889 77.463 9.88889H95.5926V13.1852H3.2963V9.88889H60.9815C61.4186 9.88889 61.8378 9.71525 62.1469 9.40616C62.456 9.09707 62.6296 8.67786 62.6296 8.24074C62.6296 7.80362 62.456 7.38441 62.1469 7.07532C61.8378 6.76624 61.4186 6.59259 60.9815 6.59259H3.2963V3.2963H95.5926V6.59259Z" fill="#4BE263"/>
<path d="M67.5741 9.88889H70.8704C71.3075 9.88889 71.7267 9.71524 72.0358 9.40615C72.3449 9.09707 72.5185 8.67785 72.5185 8.24074C72.5185 7.80362 72.3449 7.38441 72.0358 7.07532C71.7267 6.76623 71.3075 6.59259 70.8704 6.59259H67.5741C67.137 6.59259 66.7178 6.76623 66.4087 7.07532C66.0996 7.38441 65.9259 7.80362 65.9259 8.24074C65.9259 8.67785 66.0996 9.09707 66.4087 9.40615C66.7178 9.71524 67.137 9.88889 67.5741 9.88889Z" fill="#4BE263"/>
<path d="M18.1296 65.9259H16.4815C16.0443 65.9259 15.6251 66.0996 15.316 66.4087C15.007 66.7178 14.8333 67.137 14.8333 67.5741C14.8333 68.0112 15.007 68.4304 15.316 68.7395C15.6251 69.0486 16.0443 69.2222 16.4815 69.2222H18.1296C18.5667 69.2222 18.9859 69.0486 19.295 68.7395C19.6041 68.4304 19.7778 68.0112 19.7778 67.5741C19.7778 67.137 19.6041 66.7178 19.295 66.4087C18.9859 66.0996 18.5667 65.9259 18.1296 65.9259Z" fill="#4BE263"/>
<path d="M28.0185 70.8704H26.3704C25.9333 70.8704 25.514 71.044 25.205 71.3531C24.8959 71.6622 24.7222 72.0814 24.7222 72.5185C24.7222 72.9556 24.8959 73.3748 25.205 73.6839C25.514 73.993 25.9333 74.1667 26.3704 74.1667H28.0185C28.4556 74.1667 28.8749 73.993 29.1839 73.6839C29.493 73.3748 29.6667 72.9556 29.6667 72.5185C29.6667 72.0814 29.493 71.6622 29.1839 71.3531C28.8749 71.044 28.4556 70.8704 28.0185 70.8704Z" fill="#4BE263"/>
<path d="M42.8518 67.5741H41.2037C40.7666 67.5741 40.3474 67.7477 40.0383 68.0568C39.7292 68.3659 39.5555 68.7851 39.5555 69.2222C39.5555 69.6593 39.7292 70.0785 40.0383 70.3876C40.3474 70.6967 40.7666 70.8704 41.2037 70.8704H42.8518C43.289 70.8704 43.7082 70.6967 44.0173 70.3876C44.3263 70.0785 44.5 69.6593 44.5 69.2222C44.5 68.7851 44.3263 68.3659 44.0173 68.0568C43.7082 67.7477 43.289 67.5741 42.8518 67.5741Z" fill="#4BE263"/>
<path d="M56.037 72.5185H54.3889C53.9518 72.5185 53.5326 72.6922 53.2235 73.0013C52.9144 73.3103 52.7408 73.7296 52.7408 74.1667C52.7408 74.6038 52.9144 75.023 53.2235 75.3321C53.5326 75.6412 53.9518 75.8148 54.3889 75.8148H56.037C56.4742 75.8148 56.8934 75.6412 57.2025 75.3321C57.5116 75.023 57.6852 74.6038 57.6852 74.1667C57.6852 73.7296 57.5116 73.3103 57.2025 73.0013C56.8934 72.6922 56.4742 72.5185 56.037 72.5185Z" fill="#4BE263"/>
<path d="M67.5741 67.5741H65.9259C65.4888 67.5741 65.0696 67.7477 64.7605 68.0568C64.4514 68.3659 64.2778 68.7851 64.2778 69.2222C64.2778 69.6593 64.4514 70.0785 64.7605 70.3876C65.0696 70.6967 65.4888 70.8704 65.9259 70.8704H67.5741C68.0112 70.8704 68.4304 70.6967 68.7395 70.3876C69.0486 70.0785 69.2222 69.6593 69.2222 69.2222C69.2222 68.7851 69.0486 68.3659 68.7395 68.0568C68.4304 67.7477 68.0112 67.5741 67.5741 67.5741Z" fill="#4BE263"/>
<path d="M80.7592 70.8704H79.1111C78.674 70.8704 78.2548 71.044 77.9457 71.3531C77.6366 71.6622 77.463 72.0814 77.463 72.5185C77.463 72.9556 77.6366 73.3748 77.9457 73.6839C78.2548 73.993 78.674 74.1667 79.1111 74.1667H80.7592C81.1964 74.1667 81.6156 73.993 81.9247 73.6839C82.2338 73.3748 82.4074 72.9556 82.4074 72.5185C82.4074 72.0814 82.2338 71.6622 81.9247 71.3531C81.6156 71.044 81.1964 70.8704 80.7592 70.8704Z" fill="#4BE263"/>
<path d="M85.7037 64.2778H84.0556C83.6184 64.2778 83.1992 64.4514 82.8901 64.7605C82.5811 65.0696 82.4074 65.4888 82.4074 65.9259C82.4074 66.363 82.5811 66.7822 82.8901 67.0913C83.1992 67.4004 83.6184 67.5741 84.0556 67.5741H85.7037C86.1408 67.5741 86.56 67.4004 86.8691 67.0913C87.1782 66.7822 87.3519 66.363 87.3519 65.9259C87.3519 65.4888 87.1782 65.0696 86.8691 64.7605C86.56 64.4514 86.1408 64.2778 85.7037 64.2778Z" fill="#4BE263"/>
<path d="M13.1852 37.9074C13.559 37.9072 13.9217 37.7799 14.2136 37.5464L30.6951 24.3613C31.0365 24.0881 31.2554 23.6904 31.3036 23.2559C31.3518 22.8213 31.2254 22.3853 30.9522 22.044C30.679 21.7026 30.2814 21.4837 29.8468 21.4355C29.4122 21.3873 28.9763 21.5137 28.6349 21.7868L12.1534 34.972C11.8865 35.1855 11.6926 35.4766 11.5984 35.8051C11.5042 36.1337 11.5145 36.4833 11.6279 36.8058C11.7412 37.1282 11.9519 37.4074 12.231 37.6048C12.51 37.8021 12.8434 37.9079 13.1852 37.9074Z" fill="#4BE263"/>
<path d="M26.7989 40.6648C26.9445 40.825 27.1203 40.955 27.3162 41.0472C27.512 41.1395 27.7242 41.1923 27.9404 41.2025C28.1567 41.2128 28.3729 41.1803 28.5766 41.107C28.7803 41.0337 28.9676 40.9209 29.1277 40.7752L47.2573 24.2938C47.5808 23.9996 47.7742 23.5889 47.7949 23.1522C47.8156 22.7155 47.662 22.2884 47.3678 21.9649C47.0736 21.6415 46.663 21.4481 46.2262 21.4274C45.7895 21.4067 45.3624 21.5603 45.0389 21.8545L26.9093 38.336C26.7491 38.4816 26.6191 38.6574 26.5269 38.8532C26.4346 39.0491 26.3819 39.2612 26.3716 39.4775C26.3613 39.6938 26.3938 39.9099 26.4671 40.1137C26.5404 40.3174 26.6532 40.5047 26.7989 40.6648Z" fill="#4BE263"/>
<path d="M43.4287 38.3047L31.8916 48.1935C31.718 48.3313 31.5739 48.5026 31.468 48.6974C31.362 48.8921 31.2965 49.1062 31.2752 49.3268C31.254 49.5475 31.2774 49.7701 31.3442 49.9815C31.411 50.1929 31.5198 50.3886 31.664 50.5569C31.8081 50.7253 31.9848 50.8628 32.1834 50.9613C32.382 51.0598 32.5984 51.1173 32.8196 51.1302C33.0409 51.1431 33.2626 51.1113 33.4712 51.0366C33.6799 50.9619 33.8714 50.8459 34.0342 50.6954L45.5713 40.8065C45.745 40.6688 45.8891 40.4974 45.995 40.3027C46.1009 40.108 46.1664 39.8939 46.1877 39.6733C46.2089 39.4526 46.1855 39.23 46.1187 39.0186C46.0519 38.8072 45.9432 38.6115 45.799 38.4432C45.6548 38.2748 45.4781 38.1372 45.2795 38.0387C45.081 37.9402 44.8646 37.8828 44.6433 37.8699C44.422 37.8569 44.2004 37.8888 43.9917 37.9635C43.783 38.0382 43.5915 38.1542 43.4287 38.3047Z" fill="#4BE263"/>
</svg>
