<svg width="80" height="115" viewBox="0 0 80 115" fill="none" xmlns="http://www.w3.org/2000/svg">
<path d="M64.9986 114.04C61.0217 114.035 57.2093 112.453 54.3975 109.641C51.5858 106.829 50.0043 103.016 50 99.0402V68.0469C50.0751 64.1189 51.6884 60.3772 54.4933 57.6259C57.2982 54.8746 61.0707 53.3333 65 53.3333C68.9293 53.3333 72.7018 54.8746 75.5067 57.6259C78.3116 60.3772 79.9249 64.1189 80 68.0469V99.0402C79.9956 103.017 78.4138 106.83 75.6015 109.642C72.7892 112.454 68.976 114.036 64.9986 114.04ZM64.9986 57.4295C62.1832 57.4328 59.4841 58.5524 57.4933 60.5428C55.5026 62.5333 54.3827 65.232 54.3794 68.0469V99.0402C54.4425 101.814 55.5887 104.452 57.5728 106.391C59.5569 108.331 62.2213 109.416 64.9959 109.416C67.7705 109.416 70.4349 108.331 72.419 106.391C74.4031 104.452 75.5493 101.814 75.6123 99.0402V68.0469C75.6091 65.2329 74.49 62.5351 72.5004 60.5448C70.5108 58.5545 67.8131 57.4342 64.9986 57.4295Z" fill="#4BE263"/>
<path d="M77.8082 85.7576H52.1918C51.6105 85.7576 51.053 85.5234 50.642 85.1067C50.2309 84.6899 50 84.1247 50 83.5353C50 82.946 50.2309 82.3807 50.642 81.964C51.053 81.5472 51.6105 81.3131 52.1918 81.3131H77.8082C78.3895 81.3131 78.947 81.5472 79.358 81.964C79.7691 82.3807 80 82.946 80 83.5353C80 84.1247 79.7691 84.6899 79.358 85.1067C78.947 85.5234 78.3895 85.7576 77.8082 85.7576Z" fill="#4BE263"/>
<path d="M21.6451 91.9192C21.2864 91.9193 20.9332 91.8314 20.6164 91.6633C20.2995 91.4953 20.0287 91.2521 19.8276 90.955C19.6264 90.658 19.5011 90.3162 19.4627 89.9595C19.4242 89.6029 19.4737 89.2422 19.6068 88.9091L24.9768 75.4843H19.8716C19.4974 75.4844 19.1295 75.3887 18.8027 75.2065C18.4759 75.0242 18.2011 74.7614 18.0044 74.443C17.8077 74.1246 17.6957 73.7613 17.679 73.3874C17.6622 73.0135 17.7413 72.6415 17.9088 72.3068L26.8408 54.4465C27.023 54.0818 27.3031 53.775 27.6498 53.5605C27.9965 53.346 28.396 53.2324 28.8036 53.2323H47.3042C47.7151 53.233 48.1176 53.3492 48.4658 53.5674C48.8139 53.7857 49.0939 54.0973 49.2737 54.4669C49.4535 54.8365 49.5259 55.2491 49.4828 55.6578C49.4397 56.0666 49.2827 56.455 49.0298 56.7789L39.9125 68.3857H46.7227C47.1818 68.3856 47.6294 68.5295 48.0024 68.7972C48.3755 69.0649 48.6552 69.4428 48.8023 69.8778C48.9493 70.3129 48.9563 70.7831 48.8221 71.2223C48.688 71.6614 48.4195 72.0475 48.0545 72.3261L22.9756 91.4692C22.5937 91.7615 22.126 91.9197 21.6451 91.9192ZM23.4282 71.094H28.2289C28.5875 71.0942 28.9405 71.1822 29.2572 71.3504C29.5739 71.5185 29.8445 71.7617 30.0455 72.0587C30.2465 72.3557 30.3716 72.6975 30.41 73.054C30.4484 73.4106 30.3989 73.7711 30.2658 74.1041L26.6474 83.1591L40.2417 72.7829H35.3957C34.9839 72.783 34.5803 72.6671 34.2312 72.4486C33.882 72.2301 33.6014 71.9177 33.4214 71.5471C33.2414 71.1766 33.1693 70.7629 33.2133 70.3533C33.2573 69.9437 33.4156 69.5547 33.6702 69.2309L42.7888 57.6267H30.1602L23.4282 71.094Z" fill="#4BE263"/>
<path d="M55.6863 19.899H11.4854C10.904 19.899 10.3463 19.6673 9.93511 19.255C9.52393 18.8427 9.29294 18.2835 9.29294 17.7004V9.86773C9.29584 7.2513 10.3337 4.74289 12.1788 2.89292C14.0238 1.04295 16.5254 0.00254603 19.1345 0H48.0386C50.6475 0.00290971 53.1487 1.04348 54.9935 2.89341C56.8382 4.74333 57.8759 7.25154 57.8788 9.86773V17.7004C57.8788 18.2835 57.6478 18.8427 57.2366 19.255C56.8255 19.6673 56.2678 19.899 55.6863 19.899ZM13.6779 15.5017H53.4938V9.86773C53.492 8.41743 52.9166 7.02705 51.894 6.00153C50.8713 4.97602 49.4848 4.39908 48.0386 4.39726H19.1345C17.688 4.39872 16.3012 4.97549 15.2782 6.00105C14.2553 7.02661 13.6798 8.41719 13.6779 9.86773V15.5017Z" fill="#4BE263"/>
<path d="M49.2233 27.2727H17.9538C17.3714 27.2727 16.8127 27.0411 16.4008 26.6287C15.989 26.2164 15.7576 25.6571 15.7576 25.074V17.6533C15.7576 17.0701 15.989 16.5109 16.4008 16.0985C16.8127 15.6862 17.3714 15.4545 17.9538 15.4545C18.5363 15.4545 19.095 15.6862 19.5068 16.0985C19.9187 16.5109 20.1501 17.0701 20.1501 17.6533V22.8753H49.2123C49.7948 22.8738 50.354 23.1041 50.767 23.5154C51.1799 23.9267 51.4127 24.4854 51.4141 25.0685C51.4156 25.6516 51.1856 26.2115 50.7747 26.6248C50.3639 27.0382 49.8058 27.2713 49.2233 27.2727Z" fill="#4BE263"/>
<path d="M64.9811 57.3737C64.4002 57.3737 63.843 57.1427 63.4322 56.7314C63.0214 56.3201 62.7906 55.7622 62.7906 55.1805V43.7251C62.7919 43.0861 62.667 42.4532 62.4231 41.8627C62.1793 41.2722 61.8212 40.7359 61.3695 40.2845L47.7114 26.6002C47.3011 26.1889 47.0706 25.6312 47.0707 25.0499V17.6478C47.0707 17.0661 47.3015 16.5082 47.7123 16.0969C48.1231 15.6856 48.6803 15.4545 49.2613 15.4545C49.8422 15.4545 50.3994 15.6856 50.8102 16.0969C51.221 16.5082 51.4518 17.0661 51.4518 17.6478V24.1369L64.4691 37.1783C65.3292 38.0367 66.0108 39.0573 66.4747 40.1809C66.9386 41.3046 67.1755 42.5092 67.1717 43.7251V55.1805C67.1717 55.7622 66.9409 56.3201 66.5301 56.7314C66.1193 57.1427 65.5621 57.3737 64.9811 57.3737Z" fill="#4BE263"/>
<path d="M58.8476 114.04H8.35526C6.1401 114.038 4.01639 113.158 2.45003 111.594C0.883677 110.031 0.00258018 107.911 3.71487e-05 105.699V43.7588C-0.00342319 42.5425 0.234894 41.3376 0.701183 40.2139C1.16747 39.0902 1.85247 38.0701 2.71648 37.2126L16.4195 23.5323C16.8347 23.1385 17.3876 22.9222 17.9603 22.9295C18.533 22.9368 19.0801 23.1672 19.4851 23.5715C19.8901 23.9758 20.1209 24.5221 20.1282 25.0938C20.1355 25.6655 19.9189 26.2175 19.5244 26.632L5.82275 40.3151C5.36789 40.7666 5.00726 41.3037 4.76175 41.8952C4.51624 42.4868 4.39072 43.1212 4.39246 43.7615V105.702C4.39428 106.75 4.81246 107.755 5.55531 108.496C6.29816 109.237 7.30507 109.654 8.35526 109.655H58.8476C59.4019 109.657 59.9502 109.541 60.4563 109.315C60.988 109.082 61.5905 109.069 62.1321 109.278C62.6736 109.488 63.11 109.903 63.3459 110.432C63.5818 110.962 63.598 111.563 63.3909 112.105C63.1838 112.647 62.7702 113.084 62.2407 113.322C61.173 113.798 60.0167 114.043 58.8476 114.04Z" fill="#4BE263"/>
<path d="M52.1481 98.7879H2.19536C1.61312 98.7879 1.05472 98.5591 0.643007 98.1518C0.231297 97.7445 0 97.1921 0 96.6162C0 96.0402 0.231297 95.4878 0.643007 95.0805C1.05472 94.6732 1.61312 94.4444 2.19536 94.4444H52.1481C52.7303 94.4444 53.2887 94.6732 53.7004 95.0805C54.1121 95.4878 54.3434 96.0402 54.3434 96.6162C54.3434 97.1921 54.1121 97.7445 53.7004 98.1518C53.2887 98.5591 52.7303 98.7879 52.1481 98.7879Z" fill="#4BE263"/>
<path d="M64.9763 50.7071H2.19538C1.61313 50.7071 1.05473 50.4783 0.643012 50.071C0.231299 49.6637 0 49.1113 0 48.5353C0 47.9594 0.231299 47.407 0.643012 46.9997C1.05473 46.5924 1.61313 46.3636 2.19538 46.3636H64.9763C65.5586 46.3636 66.117 46.5924 66.5287 46.9997C66.9404 47.407 67.1717 47.9594 67.1717 48.5353C67.1717 49.1113 66.9404 49.6637 66.5287 50.071C66.117 50.4783 65.5586 50.7071 64.9763 50.7071Z" fill="#4BE263"/>
</svg>
